<?xml version="1.0" encoding="utf-8"?>
<!-- Generator: Adobe Illustrator 28.0.0, SVG Export Plug-In . SVG Version: 6.00 Build 0)  -->
<svg version="1.1" id="Layer_1" xmlns="http://www.w3.org/2000/svg" xmlns:xlink="http://www.w3.org/1999/xlink" x="0px" y="0px"
	 viewBox="0 0 410.5 484.8" style="enable-background:new 0 0 410.5 484.8;" xml:space="preserve">
<style type="text/css">
	.st0{fill:none;stroke:#000000;stroke-width:0.8361;stroke-miterlimit:10;}
	.st1{fill:#FFFFFF;stroke:#000000;stroke-width:0.8361;stroke-miterlimit:10;}
	.st2{fill:#FFFFFF;stroke:#000000;stroke-width:1.2542;stroke-miterlimit:10;}
	.st3{fill:#FFF200;}
	.st4{fill:#BE1E2D;}
	.st5{fill:#E81E25;}
	.st6{font-family:'AmericanTypewriter-Semibold';}
	.st7{font-size:14.673px;}
	.st8{fill:none;stroke:#F7941D;stroke-width:1.5597;stroke-miterlimit:10;}
	.st9{fill:#FFFFFF;stroke:#F7941D;stroke-width:1.5597;stroke-miterlimit:10;}
</style>
<g>
	<g>
		<defs>
			<polygon id="SVGID_1_" points="24.4,480.1 386.1,480.1 386.1,38.8 182.2,38.8 24.4,38.8 			"/>
		</defs>
		<clipPath id="SVGID_00000169534275692411879180000005362685112343690113_">
			<use xlink:href="#SVGID_1_"  style="overflow:visible;"/>
		</clipPath>
	</g>
	<path class="st0" d="M203.2,87.4"/>
	<path class="st1" d="M161.2,61.9L81,92.9c9.3,24.6,19.7,57.1,26.9,96.4c8.2,44.2,9.1,78.5,9.3,88.9c0.5,31.2-1.6,75.3-14,127.2
		l0.5,4.6l3.8,3.8l4.4,6.3l5.9,7.3l5.9,6.2c0,0,14.7,10.9,23.9,8.7l47.5,4.5c0,0,8.6,2,19.1,0l46.5-4.2c0,0,15.6,2.7,28.2-12
		c1.3-1.1,15.6-19,15.6-19l2.9-3.2c-12.6-46.6-15.7-86.8-16-115.5c-0.5-46.6,6.2-82,10.5-103.5c7.7-39.4,18.5-72,28-96.4
		c-11.6-5.9-80.5-31.5-80.5-31.5l0,0"/>
	<path class="st1" d="M109.9,198.9l-11.5,76.8c2.2,73.5-7.8,135.4-7.8,135.4H46l-4.4-140.4C57.4,137.9,81.6,92.8,81.6,92.8
		S104.3,102.6,109.9,198.9z"/>
	<path class="st1" d="M46.9,442.4c0,0,17.4,6.3,43.9,1.1c0-8.4-0.7-32.7-0.7-32.7H47L46.9,442.4z"/>
	<path class="st1" d="M328.8,92.7c20.3,43.1,30.2,113,30.2,113l9.7,67.9l-5.1,137.3c0,0-32.9,0-43.4-1.5
		c-7.4-14.7-8.5-138.9-8.5-138.9l-10.8-71.8c3.6-22.2,5.6-34.6,7.1-44.4c3.1-19.4,4.6-29,9.8-41.4C321.6,104,325.8,97.1,328.8,92.7z
		"/>
	<path class="st1" d="M319,442.8l1-33.5c6.6,0.8,13.6,1.3,21.1,1.6c7.9,0.3,15.3,0.2,22.3-0.1c0,10.4,0,20.7,0,31.1
		C363.4,441.9,348.8,447.7,319,442.8z"/>
	<path class="st1" d="M161.4,60.1c11.9-2.1,26-3.7,41.9-3.9c17.4-0.2,32.8,1.3,45.5,3.4l79.9,33L81.4,92.7L161.4,60.1z"/>
	<path class="st2" d="M258.1,63.5c-2.3-5.1-5.7-11.1-10.6-17.3c-2.8-3.6-5.7-6.6-8.3-9.2c-10.2-0.9-21.4-1.5-33.5-1.4
		c-11.2,0-21.7,0.6-31.3,1.4c-2.2,2.6-4.5,5.4-6.7,8.3c-4.5,5.9-8.4,11.6-11.8,17c14.7-1.9,31.9-3.3,51.2-3.1
		C226.4,59.5,243.6,61.2,258.1,63.5z"/>
	
		<rect x="113.1" y="147.9" transform="matrix(-1.836970e-16 1 -1 -1.836970e-16 359.7388 -53.5235)" class="st3" width="187" height="10.4"/>
	<g>
		<g>
			<path class="st4" d="M208.3,62.5c-1.6,0-3.3,0-4.9,0c-0.3,0-0.3,0.5,0,0.5c1.6,0,3.3,0,4.9,0C208.6,63,208.6,62.5,208.3,62.5
				L208.3,62.5z"/>
		</g>
		<g>
			<path class="st4" d="M208.3,64.5c-1.6,0-3.3,0-4.9,0c-0.3,0-0.3,0.5,0,0.5c1.6,0,3.3,0,4.9,0C208.6,65,208.6,64.5,208.3,64.5
				L208.3,64.5z"/>
		</g>
		<g>
			<path class="st4" d="M208.3,66.5c-1.6,0-3.3,0-4.9,0c-0.3,0-0.3,0.5,0,0.5c1.6,0,3.3,0,4.9,0C208.6,67,208.6,66.5,208.3,66.5
				L208.3,66.5z"/>
		</g>
		<g>
			<path class="st4" d="M208.3,78.1c-1.6,0-3.3,0-4.9,0c-0.3,0-0.3,0.5,0,0.5c1.6,0,3.3,0,4.9,0C208.6,78.6,208.6,78.1,208.3,78.1
				L208.3,78.1z"/>
		</g>
		<g>
			<path class="st4" d="M210.4,70.2c-2.3,0-4.7,0-7,0c-0.3,0-0.3,0.5,0,0.5c2.3,0,4.7,0,7,0C210.8,70.7,210.8,70.2,210.4,70.2
				L210.4,70.2z"/>
		</g>
		<g>
			<path class="st4" d="M212.3,79.9c-3,0-5.9,0-8.9,0c-0.3,0-0.3,0.5,0,0.5c3,0,5.9,0,8.9,0C212.6,80.4,212.6,79.9,212.3,79.9
				L212.3,79.9z"/>
		</g>
		<g>
			<path class="st4" d="M208.3,68.2c-1.6,0-3.3,0-4.9,0c-0.3,0-0.3,0.5,0,0.5c1.6,0,3.3,0,4.9,0C208.6,68.7,208.6,68.2,208.3,68.2
				L208.3,68.2z"/>
		</g>
		<g>
			<path class="st4" d="M208.3,72.1c-1.6,0-3.3,0-4.9,0c-0.3,0-0.3,0.5,0,0.5c1.6,0,3.3,0,4.9,0C208.6,72.6,208.6,72.1,208.3,72.1
				L208.3,72.1z"/>
		</g>
		<g>
			<path class="st4" d="M208.3,74.1c-1.6,0-3.3,0-4.9,0c-0.3,0-0.3,0.5,0,0.5c1.6,0,3.3,0,4.9,0C208.7,74.6,208.7,74.1,208.3,74.1
				L208.3,74.1z"/>
		</g>
		<g>
			<path class="st4" d="M208.3,76c-1.6,0-3.3,0-4.9,0c-0.3,0-0.3,0.5,0,0.5c1.6,0,3.3,0,4.9,0C208.6,76.5,208.6,76,208.3,76
				L208.3,76z"/>
		</g>
		<g>
			<path class="st4" d="M212.3,79.9c-3,0-5.9,0-8.9,0c-0.3,0-0.3,0.5,0,0.5c3,0,5.9,0,8.9,0C212.6,80.4,212.6,79.9,212.3,79.9
				L212.3,79.9z"/>
		</g>
		<g>
			<path class="st4" d="M208.3,82c-1.6,0-3.3,0-4.9,0c-0.3,0-0.3,0.5,0,0.5c1.6,0,3.3,0,4.9,0C208.6,82.5,208.6,82,208.3,82
				L208.3,82z"/>
		</g>
		<g>
			<path class="st4" d="M208.3,84c-1.6,0-3.3,0-4.9,0c-0.3,0-0.3,0.5,0,0.5c1.6,0,3.3,0,4.9,0C208.6,84.5,208.6,84,208.3,84
				L208.3,84z"/>
		</g>
		<g>
			<path class="st4" d="M208.3,86c-1.6,0-3.3,0-4.9,0c-0.3,0-0.3,0.5,0,0.5c1.6,0,3.3,0,4.9,0C208.6,86.5,208.6,86,208.3,86
				L208.3,86z"/>
		</g>
		<g>
			<path class="st4" d="M208.3,97.6c-1.6,0-3.3,0-4.9,0c-0.3,0-0.3,0.5,0,0.5c1.6,0,3.3,0,4.9,0C208.6,98.1,208.6,97.6,208.3,97.6
				L208.3,97.6z"/>
		</g>
		<g>
			<path class="st4" d="M210.4,89.7c-2.3,0-4.7,0-7,0c-0.3,0-0.3,0.5,0,0.5c2.3,0,4.7,0,7,0C210.8,90.2,210.8,89.7,210.4,89.7
				L210.4,89.7z"/>
		</g>
		<g>
			<path class="st4" d="M212.3,99.4c-3,0-5.9,0-8.9,0c-0.3,0-0.3,0.5,0,0.5c3,0,5.9,0,8.9,0C212.6,99.9,212.6,99.4,212.3,99.4
				L212.3,99.4z"/>
		</g>
		<g>
			<path class="st4" d="M208.3,87.7c-1.6,0-3.3,0-4.9,0c-0.3,0-0.3,0.5,0,0.5c1.6,0,3.3,0,4.9,0C208.6,88.2,208.6,87.7,208.3,87.7
				L208.3,87.7z"/>
		</g>
		<g>
			<path class="st4" d="M208.3,91.6c-1.6,0-3.3,0-4.9,0c-0.3,0-0.3,0.5,0,0.5c1.6,0,3.3,0,4.9,0C208.6,92.1,208.6,91.6,208.3,91.6
				L208.3,91.6z"/>
		</g>
		<g>
			<path class="st4" d="M208.3,93.6c-1.6,0-3.3,0-4.9,0c-0.3,0-0.3,0.5,0,0.5c1.6,0,3.3,0,4.9,0C208.7,94.1,208.7,93.6,208.3,93.6
				L208.3,93.6z"/>
		</g>
		<g>
			<path class="st4" d="M208.3,95.5c-1.6,0-3.3,0-4.9,0c-0.3,0-0.3,0.5,0,0.5c1.6,0,3.3,0,4.9,0C208.6,96,208.6,95.5,208.3,95.5
				L208.3,95.5z"/>
		</g>
		<g>
			<path class="st4" d="M212.3,99.4c-3,0-5.9,0-8.9,0c-0.3,0-0.3,0.5,0,0.5c3,0,5.9,0,8.9,0C212.6,99.9,212.6,99.4,212.3,99.4
				L212.3,99.4z"/>
		</g>
		<g>
			<path class="st4" d="M208.3,101.5c-1.6,0-3.3,0-4.9,0c-0.3,0-0.3,0.5,0,0.5c1.6,0,3.3,0,4.9,0C208.6,102,208.6,101.5,208.3,101.5
				L208.3,101.5z"/>
		</g>
		<g>
			<path class="st4" d="M208.3,103.5c-1.6,0-3.3,0-4.9,0c-0.3,0-0.3,0.5,0,0.5c1.6,0,3.3,0,4.9,0C208.6,104,208.6,103.5,208.3,103.5
				L208.3,103.5z"/>
		</g>
		<g>
			<path class="st4" d="M208.3,105.5c-1.6,0-3.3,0-4.9,0c-0.3,0-0.3,0.5,0,0.5c1.6,0,3.3,0,4.9,0C208.6,106,208.6,105.5,208.3,105.5
				L208.3,105.5z"/>
		</g>
		<g>
			<path class="st4" d="M208.3,117.1c-1.6,0-3.3,0-4.9,0c-0.3,0-0.3,0.5,0,0.5c1.6,0,3.3,0,4.9,0
				C208.6,117.6,208.6,117.1,208.3,117.1L208.3,117.1z"/>
		</g>
		<g>
			<path class="st4" d="M210.4,109.2c-2.3,0-4.7,0-7,0c-0.3,0-0.3,0.5,0,0.5c2.3,0,4.7,0,7,0C210.8,109.7,210.8,109.2,210.4,109.2
				L210.4,109.2z"/>
		</g>
		<g>
			<path class="st4" d="M212.3,118.9c-3,0-5.9,0-8.9,0c-0.3,0-0.3,0.5,0,0.5c3,0,5.9,0,8.9,0C212.6,119.4,212.6,118.9,212.3,118.9
				L212.3,118.9z"/>
		</g>
		<g>
			<path class="st4" d="M208.3,107.2c-1.6,0-3.3,0-4.9,0c-0.3,0-0.3,0.5,0,0.5c1.6,0,3.3,0,4.9,0
				C208.6,107.7,208.6,107.2,208.3,107.2L208.3,107.2z"/>
		</g>
		<g>
			<path class="st4" d="M208.3,111.1c-1.6,0-3.3,0-4.9,0c-0.3,0-0.3,0.5,0,0.5c1.6,0,3.3,0,4.9,0
				C208.6,111.6,208.6,111.1,208.3,111.1L208.3,111.1z"/>
		</g>
		<g>
			<path class="st4" d="M208.3,113.1c-1.6,0-3.3,0-4.9,0c-0.3,0-0.3,0.5,0,0.5c1.6,0,3.3,0,4.9,0
				C208.7,113.6,208.7,113.1,208.3,113.1L208.3,113.1z"/>
		</g>
		<g>
			<path class="st4" d="M208.3,115c-1.6,0-3.3,0-4.9,0c-0.3,0-0.3,0.5,0,0.5c1.6,0,3.3,0,4.9,0C208.6,115.5,208.6,115,208.3,115
				L208.3,115z"/>
		</g>
		<g>
			<path class="st4" d="M212.3,118.9c-3,0-5.9,0-8.9,0c-0.3,0-0.3,0.5,0,0.5c3,0,5.9,0,8.9,0C212.6,119.4,212.6,118.9,212.3,118.9
				L212.3,118.9z"/>
		</g>
		<g>
			<path class="st4" d="M208.3,121c-1.6,0-3.3,0-4.9,0c-0.3,0-0.3,0.5,0,0.5c1.6,0,3.3,0,4.9,0C208.6,121.5,208.6,121,208.3,121
				L208.3,121z"/>
		</g>
		<g>
			<path class="st4" d="M208.3,123c-1.6,0-3.3,0-4.9,0c-0.3,0-0.3,0.5,0,0.5c1.6,0,3.3,0,4.9,0C208.6,123.5,208.6,123,208.3,123
				L208.3,123z"/>
		</g>
		<g>
			<path class="st4" d="M208.3,125c-1.6,0-3.3,0-4.9,0c-0.3,0-0.3,0.5,0,0.5c1.6,0,3.3,0,4.9,0C208.6,125.5,208.6,125,208.3,125
				L208.3,125z"/>
		</g>
		<g>
			<path class="st4" d="M208.3,136.6c-1.6,0-3.3,0-4.9,0c-0.3,0-0.3,0.5,0,0.5c1.6,0,3.3,0,4.9,0
				C208.6,137.1,208.6,136.6,208.3,136.6L208.3,136.6z"/>
		</g>
		<g>
			<path class="st4" d="M210.4,128.7c-2.3,0-4.7,0-7,0c-0.3,0-0.3,0.5,0,0.5c2.3,0,4.7,0,7,0C210.8,129.2,210.8,128.7,210.4,128.7
				L210.4,128.7z"/>
		</g>
		<g>
			<path class="st4" d="M212.3,138.4c-3,0-5.9,0-8.9,0c-0.3,0-0.3,0.5,0,0.5c3,0,5.9,0,8.9,0C212.6,138.9,212.6,138.4,212.3,138.4
				L212.3,138.4z"/>
		</g>
		<g>
			<path class="st4" d="M208.3,126.7c-1.6,0-3.3,0-4.9,0c-0.3,0-0.3,0.5,0,0.5c1.6,0,3.3,0,4.9,0
				C208.6,127.2,208.6,126.7,208.3,126.7L208.3,126.7z"/>
		</g>
		<g>
			<path class="st4" d="M208.3,130.6c-1.6,0-3.3,0-4.9,0c-0.3,0-0.3,0.5,0,0.5c1.6,0,3.3,0,4.9,0
				C208.6,131.1,208.6,130.6,208.3,130.6L208.3,130.6z"/>
		</g>
		<g>
			<path class="st4" d="M208.3,132.6c-1.6,0-3.3,0-4.9,0c-0.3,0-0.3,0.5,0,0.5c1.6,0,3.3,0,4.9,0
				C208.7,133.1,208.7,132.6,208.3,132.6L208.3,132.6z"/>
		</g>
		<g>
			<path class="st4" d="M208.3,134.5c-1.6,0-3.3,0-4.9,0c-0.3,0-0.3,0.5,0,0.5c1.6,0,3.3,0,4.9,0C208.6,135,208.6,134.5,208.3,134.5
				L208.3,134.5z"/>
		</g>
		<g>
			<path class="st4" d="M212.3,138.4c-3,0-5.9,0-8.9,0c-0.3,0-0.3,0.5,0,0.5c3,0,5.9,0,8.9,0C212.6,138.9,212.6,138.4,212.3,138.4
				L212.3,138.4z"/>
		</g>
		<g>
			<path class="st4" d="M208.3,140.5c-1.6,0-3.3,0-4.9,0c-0.3,0-0.3,0.5,0,0.5c1.6,0,3.3,0,4.9,0C208.6,141,208.6,140.5,208.3,140.5
				L208.3,140.5z"/>
		</g>
		<g>
			<path class="st4" d="M208.3,142.5c-1.6,0-3.3,0-4.9,0c-0.3,0-0.3,0.5,0,0.5c1.6,0,3.3,0,4.9,0C208.6,143,208.6,142.5,208.3,142.5
				L208.3,142.5z"/>
		</g>
		<g>
			<path class="st4" d="M208.3,144.5c-1.6,0-3.3,0-4.9,0c-0.3,0-0.3,0.5,0,0.5c1.6,0,3.3,0,4.9,0C208.6,145,208.6,144.5,208.3,144.5
				L208.3,144.5z"/>
		</g>
		<g>
			<path class="st4" d="M208.3,156.1c-1.6,0-3.3,0-4.9,0c-0.3,0-0.3,0.5,0,0.5c1.6,0,3.3,0,4.9,0
				C208.6,156.6,208.6,156.1,208.3,156.1L208.3,156.1z"/>
		</g>
		<g>
			<path class="st4" d="M210.4,148.2c-2.3,0-4.7,0-7,0c-0.3,0-0.3,0.5,0,0.5c2.3,0,4.7,0,7,0C210.8,148.7,210.8,148.2,210.4,148.2
				L210.4,148.2z"/>
		</g>
		<g>
			<path class="st4" d="M212.3,157.9c-3,0-5.9,0-8.9,0c-0.3,0-0.3,0.5,0,0.5c3,0,5.9,0,8.9,0C212.6,158.4,212.6,157.9,212.3,157.9
				L212.3,157.9z"/>
		</g>
		<g>
			<path class="st4" d="M208.3,146.2c-1.6,0-3.3,0-4.9,0c-0.3,0-0.3,0.5,0,0.5c1.6,0,3.3,0,4.9,0
				C208.6,146.7,208.6,146.2,208.3,146.2L208.3,146.2z"/>
		</g>
		<g>
			<path class="st4" d="M208.3,150.1c-1.6,0-3.3,0-4.9,0c-0.3,0-0.3,0.5,0,0.5c1.6,0,3.3,0,4.9,0
				C208.6,150.6,208.6,150.1,208.3,150.1L208.3,150.1z"/>
		</g>
		<g>
			<path class="st4" d="M208.3,152.1c-1.6,0-3.3,0-4.9,0c-0.3,0-0.3,0.5,0,0.5c1.6,0,3.3,0,4.9,0
				C208.7,152.6,208.7,152.1,208.3,152.1L208.3,152.1z"/>
		</g>
		<g>
			<path class="st4" d="M208.3,154c-1.6,0-3.3,0-4.9,0c-0.3,0-0.3,0.5,0,0.5c1.6,0,3.3,0,4.9,0C208.6,154.5,208.6,154,208.3,154
				L208.3,154z"/>
		</g>
		<g>
			<path class="st4" d="M212.3,157.9c-3,0-5.9,0-8.9,0c-0.3,0-0.3,0.5,0,0.5c3,0,5.9,0,8.9,0C212.6,158.4,212.6,157.9,212.3,157.9
				L212.3,157.9z"/>
		</g>
		<g>
			<path class="st4" d="M208.3,160c-1.6,0-3.3,0-4.9,0c-0.3,0-0.3,0.5,0,0.5c1.6,0,3.3,0,4.9,0C208.6,160.5,208.6,160,208.3,160
				L208.3,160z"/>
		</g>
		<g>
			<path class="st4" d="M208.3,162c-1.6,0-3.3,0-4.9,0c-0.3,0-0.3,0.5,0,0.5c1.6,0,3.3,0,4.9,0C208.6,162.5,208.6,162,208.3,162
				L208.3,162z"/>
		</g>
		<g>
			<path class="st4" d="M208.3,164c-1.6,0-3.3,0-4.9,0c-0.3,0-0.3,0.5,0,0.5c1.6,0,3.3,0,4.9,0C208.6,164.5,208.6,164,208.3,164
				L208.3,164z"/>
		</g>
		<g>
			<path class="st4" d="M208.3,175.6c-1.6,0-3.3,0-4.9,0c-0.3,0-0.3,0.5,0,0.5c1.6,0,3.3,0,4.9,0
				C208.6,176.1,208.6,175.6,208.3,175.6L208.3,175.6z"/>
		</g>
		<g>
			<path class="st4" d="M210.4,167.7c-2.3,0-4.7,0-7,0c-0.3,0-0.3,0.5,0,0.5c2.3,0,4.7,0,7,0C210.8,168.2,210.8,167.7,210.4,167.7
				L210.4,167.7z"/>
		</g>
		<g>
			<path class="st4" d="M212.3,177.4c-3,0-5.9,0-8.9,0c-0.3,0-0.3,0.5,0,0.5c3,0,5.9,0,8.9,0C212.6,177.9,212.6,177.4,212.3,177.4
				L212.3,177.4z"/>
		</g>
		<g>
			<path class="st4" d="M208.3,165.7c-1.6,0-3.3,0-4.9,0c-0.3,0-0.3,0.5,0,0.5c1.6,0,3.3,0,4.9,0
				C208.6,166.2,208.6,165.7,208.3,165.7L208.3,165.7z"/>
		</g>
		<g>
			<path class="st4" d="M208.3,169.6c-1.6,0-3.3,0-4.9,0c-0.3,0-0.3,0.5,0,0.5c1.6,0,3.3,0,4.9,0
				C208.6,170.1,208.6,169.6,208.3,169.6L208.3,169.6z"/>
		</g>
		<g>
			<path class="st4" d="M208.3,171.6c-1.6,0-3.3,0-4.9,0c-0.3,0-0.3,0.5,0,0.5c1.6,0,3.3,0,4.9,0
				C208.7,172.1,208.7,171.6,208.3,171.6L208.3,171.6z"/>
		</g>
		<g>
			<path class="st4" d="M208.3,173.5c-1.6,0-3.3,0-4.9,0c-0.3,0-0.3,0.5,0,0.5c1.6,0,3.3,0,4.9,0C208.6,174,208.6,173.5,208.3,173.5
				L208.3,173.5z"/>
		</g>
		<g>
			<path class="st4" d="M212.3,177.4c-3,0-5.9,0-8.9,0c-0.3,0-0.3,0.5,0,0.5c3,0,5.9,0,8.9,0C212.6,177.9,212.6,177.4,212.3,177.4
				L212.3,177.4z"/>
		</g>
		<g>
			<path class="st4" d="M208.3,179.4c-1.6,0-3.3,0-4.9,0c-0.3,0-0.3,0.5,0,0.5c1.6,0,3.3,0,4.9,0C208.6,180,208.6,179.4,208.3,179.4
				L208.3,179.4z"/>
		</g>
		<g>
			<path class="st4" d="M208.3,181.5c-1.6,0-3.3,0-4.9,0c-0.3,0-0.3,0.5,0,0.5c1.6,0,3.3,0,4.9,0C208.6,182,208.6,181.5,208.3,181.5
				L208.3,181.5z"/>
		</g>
		<g>
			<path class="st4" d="M208.3,183.5c-1.6,0-3.3,0-4.9,0c-0.3,0-0.3,0.5,0,0.5c1.6,0,3.3,0,4.9,0C208.6,184,208.6,183.5,208.3,183.5
				L208.3,183.5z"/>
		</g>
	</g>
	<g>
		<g>
			<path class="st4" d="M212.3,138.5c-3,0-5.9,0-8.9,0c-0.3,0-0.3,0.5,0,0.5c3,0,5.9,0,8.9,0C212.6,139,212.6,138.5,212.3,138.5
				L212.3,138.5z"/>
		</g>
		<g>
			<path class="st4" d="M208.3,140.5c-1.6,0-3.3,0-4.9,0c-0.3,0-0.3,0.5,0,0.5c1.6,0,3.3,0,4.9,0C208.6,141,208.6,140.5,208.3,140.5
				L208.3,140.5z"/>
		</g>
		<g>
			<path class="st4" d="M208.3,142.5c-1.6,0-3.3,0-4.9,0c-0.3,0-0.3,0.5,0,0.5c1.6,0,3.3,0,4.9,0C208.6,143,208.6,142.5,208.3,142.5
				L208.3,142.5z"/>
		</g>
		<g>
			<path class="st4" d="M208.3,144.5c-1.6,0-3.3,0-4.9,0c-0.3,0-0.3,0.5,0,0.5c1.6,0,3.3,0,4.9,0C208.6,145,208.6,144.5,208.3,144.5
				L208.3,144.5z"/>
		</g>
		<g>
			<path class="st4" d="M208.3,156.1c-1.6,0-3.3,0-4.9,0c-0.3,0-0.3,0.5,0,0.5c1.6,0,3.3,0,4.9,0
				C208.6,156.6,208.6,156.1,208.3,156.1L208.3,156.1z"/>
		</g>
		<g>
			<path class="st4" d="M210.4,148.3c-2.3,0-4.7,0-7,0c-0.3,0-0.3,0.5,0,0.5c2.3,0,4.7,0,7,0C210.8,148.8,210.8,148.3,210.4,148.3
				L210.4,148.3z"/>
		</g>
		<g>
			<path class="st4" d="M212.3,158c-3,0-5.9,0-8.9,0c-0.3,0-0.3,0.5,0,0.5c3,0,5.9,0,8.9,0C212.6,158.5,212.6,158,212.3,158
				L212.3,158z"/>
		</g>
		<g>
			<path class="st4" d="M208.3,146.2c-1.6,0-3.3,0-4.9,0c-0.3,0-0.3,0.5,0,0.5c1.6,0,3.3,0,4.9,0
				C208.6,146.7,208.6,146.2,208.3,146.2L208.3,146.2z"/>
		</g>
		<g>
			<path class="st4" d="M208.3,150.1c-1.6,0-3.3,0-4.9,0c-0.3,0-0.3,0.5,0,0.5c1.6,0,3.3,0,4.9,0
				C208.6,150.7,208.6,150.1,208.3,150.1L208.3,150.1z"/>
		</g>
		<g>
			<path class="st4" d="M208.3,152.1c-1.6,0-3.3,0-4.9,0c-0.3,0-0.3,0.5,0,0.5c1.6,0,3.3,0,4.9,0
				C208.7,152.6,208.7,152.1,208.3,152.1L208.3,152.1z"/>
		</g>
		<g>
			<path class="st4" d="M208.3,154c-1.6,0-3.3,0-4.9,0c-0.3,0-0.3,0.5,0,0.5c1.6,0,3.3,0,4.9,0C208.6,154.6,208.6,154,208.3,154
				L208.3,154z"/>
		</g>
		<g>
			<path class="st4" d="M212.3,158c-3,0-5.9,0-8.9,0c-0.3,0-0.3,0.5,0,0.5c3,0,5.9,0,8.9,0C212.6,158.5,212.6,158,212.3,158
				L212.3,158z"/>
		</g>
		<g>
			<path class="st4" d="M208.3,160c-1.6,0-3.3,0-4.9,0c-0.3,0-0.3,0.5,0,0.5c1.6,0,3.3,0,4.9,0C208.6,160.5,208.6,160,208.3,160
				L208.3,160z"/>
		</g>
		<g>
			<path class="st4" d="M208.3,162c-1.6,0-3.3,0-4.9,0c-0.3,0-0.3,0.5,0,0.5c1.6,0,3.3,0,4.9,0C208.6,162.5,208.6,162,208.3,162
				L208.3,162z"/>
		</g>
		<g>
			<path class="st4" d="M208.3,164c-1.6,0-3.3,0-4.9,0c-0.3,0-0.3,0.5,0,0.5c1.6,0,3.3,0,4.9,0C208.6,164.5,208.6,164,208.3,164
				L208.3,164z"/>
		</g>
		<g>
			<path class="st4" d="M208.3,175.6c-1.6,0-3.3,0-4.9,0c-0.3,0-0.3,0.5,0,0.5c1.6,0,3.3,0,4.9,0
				C208.6,176.1,208.6,175.6,208.3,175.6L208.3,175.6z"/>
		</g>
		<g>
			<path class="st4" d="M210.4,167.8c-2.3,0-4.7,0-7,0c-0.3,0-0.3,0.5,0,0.5c2.3,0,4.7,0,7,0C210.8,168.3,210.8,167.8,210.4,167.8
				L210.4,167.8z"/>
		</g>
		<g>
			<path class="st4" d="M212.3,177.5c-3,0-5.9,0-8.9,0c-0.3,0-0.3,0.5,0,0.5c3,0,5.9,0,8.9,0C212.6,178,212.6,177.5,212.3,177.5
				L212.3,177.5z"/>
		</g>
		<g>
			<path class="st4" d="M208.3,165.7c-1.6,0-3.3,0-4.9,0c-0.3,0-0.3,0.5,0,0.5c1.6,0,3.3,0,4.9,0
				C208.6,166.2,208.6,165.7,208.3,165.7L208.3,165.7z"/>
		</g>
		<g>
			<path class="st4" d="M208.3,169.6c-1.6,0-3.3,0-4.9,0c-0.3,0-0.3,0.5,0,0.5c1.6,0,3.3,0,4.9,0
				C208.6,170.2,208.6,169.6,208.3,169.6L208.3,169.6z"/>
		</g>
		<g>
			<path class="st4" d="M208.3,171.6c-1.6,0-3.3,0-4.9,0c-0.3,0-0.3,0.5,0,0.5c1.6,0,3.3,0,4.9,0
				C208.7,172.1,208.7,171.6,208.3,171.6L208.3,171.6z"/>
		</g>
		<g>
			<path class="st4" d="M208.3,173.5c-1.6,0-3.3,0-4.9,0c-0.3,0-0.3,0.5,0,0.5c1.6,0,3.3,0,4.9,0
				C208.6,174.1,208.6,173.5,208.3,173.5L208.3,173.5z"/>
		</g>
		<g>
			<path class="st4" d="M212.3,177.5c-3,0-5.9,0-8.9,0c-0.3,0-0.3,0.5,0,0.5c3,0,5.9,0,8.9,0C212.6,178,212.6,177.5,212.3,177.5
				L212.3,177.5z"/>
		</g>
		<g>
			<path class="st4" d="M208.3,179.5c-1.6,0-3.3,0-4.9,0c-0.3,0-0.3,0.5,0,0.5c1.6,0,3.3,0,4.9,0C208.6,180,208.6,179.5,208.3,179.5
				L208.3,179.5z"/>
		</g>
		<g>
			<path class="st4" d="M208.3,181.5c-1.6,0-3.3,0-4.9,0c-0.3,0-0.3,0.5,0,0.5c1.6,0,3.3,0,4.9,0C208.6,182,208.6,181.5,208.3,181.5
				L208.3,181.5z"/>
		</g>
		<g>
			<path class="st4" d="M208.3,183.5c-1.6,0-3.3,0-4.9,0c-0.3,0-0.3,0.5,0,0.5c1.6,0,3.3,0,4.9,0C208.6,184,208.6,183.5,208.3,183.5
				L208.3,183.5z"/>
		</g>
		<g>
			<path class="st4" d="M208.3,195.1c-1.6,0-3.3,0-4.9,0c-0.3,0-0.3,0.5,0,0.5c1.6,0,3.3,0,4.9,0
				C208.6,195.6,208.6,195.1,208.3,195.1L208.3,195.1z"/>
		</g>
		<g>
			<path class="st4" d="M210.4,187.3c-2.3,0-4.7,0-7,0c-0.3,0-0.3,0.5,0,0.5c2.3,0,4.7,0,7,0C210.8,187.8,210.8,187.3,210.4,187.3
				L210.4,187.3z"/>
		</g>
		<g>
			<path class="st4" d="M212.3,197c-3,0-5.9,0-8.9,0c-0.3,0-0.3,0.5,0,0.5c3,0,5.9,0,8.9,0C212.6,197.5,212.6,197,212.3,197
				L212.3,197z"/>
		</g>
		<g>
			<path class="st4" d="M208.3,185.2c-1.6,0-3.3,0-4.9,0c-0.3,0-0.3,0.5,0,0.5c1.6,0,3.3,0,4.9,0
				C208.6,185.7,208.6,185.2,208.3,185.2L208.3,185.2z"/>
		</g>
		<g>
			<path class="st4" d="M208.3,189.1c-1.6,0-3.3,0-4.9,0c-0.3,0-0.3,0.5,0,0.5c1.6,0,3.3,0,4.9,0
				C208.6,189.7,208.6,189.1,208.3,189.1L208.3,189.1z"/>
		</g>
		<g>
			<path class="st4" d="M208.3,191.1c-1.6,0-3.3,0-4.9,0c-0.3,0-0.3,0.5,0,0.5c1.6,0,3.3,0,4.9,0
				C208.7,191.6,208.7,191.1,208.3,191.1L208.3,191.1z"/>
		</g>
		<g>
			<path class="st4" d="M208.3,193c-1.6,0-3.3,0-4.9,0c-0.3,0-0.3,0.5,0,0.5c1.6,0,3.3,0,4.9,0C208.6,193.6,208.6,193,208.3,193
				L208.3,193z"/>
		</g>
		<g>
			<path class="st4" d="M212.3,197c-3,0-5.9,0-8.9,0c-0.3,0-0.3,0.5,0,0.5c3,0,5.9,0,8.9,0C212.6,197.5,212.6,197,212.3,197
				L212.3,197z"/>
		</g>
		<g>
			<path class="st4" d="M208.3,199c-1.6,0-3.3,0-4.9,0c-0.3,0-0.3,0.5,0,0.5c1.6,0,3.3,0,4.9,0C208.6,199.5,208.6,199,208.3,199
				L208.3,199z"/>
		</g>
		<g>
			<path class="st4" d="M208.3,201c-1.6,0-3.3,0-4.9,0c-0.3,0-0.3,0.5,0,0.5c1.6,0,3.3,0,4.9,0C208.6,201.5,208.6,201,208.3,201
				L208.3,201z"/>
		</g>
		<g>
			<path class="st4" d="M208.3,203c-1.6,0-3.3,0-4.9,0c-0.3,0-0.3,0.5,0,0.5c1.6,0,3.3,0,4.9,0C208.6,203.5,208.6,203,208.3,203
				L208.3,203z"/>
		</g>
		<g>
			<path class="st4" d="M208.3,214.6c-1.6,0-3.3,0-4.9,0c-0.3,0-0.3,0.5,0,0.5c1.6,0,3.3,0,4.9,0
				C208.6,215.1,208.6,214.6,208.3,214.6L208.3,214.6z"/>
		</g>
		<g>
			<path class="st4" d="M210.4,206.8c-2.3,0-4.7,0-7,0c-0.3,0-0.3,0.5,0,0.5c2.3,0,4.7,0,7,0C210.8,207.3,210.8,206.8,210.4,206.8
				L210.4,206.8z"/>
		</g>
		<g>
			<path class="st4" d="M212.3,216.5c-3,0-5.9,0-8.9,0c-0.3,0-0.3,0.5,0,0.5c3,0,5.9,0,8.9,0C212.6,217,212.6,216.5,212.3,216.5
				L212.3,216.5z"/>
		</g>
		<g>
			<path class="st4" d="M208.3,204.7c-1.6,0-3.3,0-4.9,0c-0.3,0-0.3,0.5,0,0.5c1.6,0,3.3,0,4.9,0
				C208.6,205.2,208.6,204.7,208.3,204.7L208.3,204.7z"/>
		</g>
		<g>
			<path class="st4" d="M208.3,208.6c-1.6,0-3.3,0-4.9,0c-0.3,0-0.3,0.5,0,0.5c1.6,0,3.3,0,4.9,0
				C208.6,209.2,208.6,208.6,208.3,208.6L208.3,208.6z"/>
		</g>
		<g>
			<path class="st4" d="M208.3,210.6c-1.6,0-3.3,0-4.9,0c-0.3,0-0.3,0.5,0,0.5c1.6,0,3.3,0,4.9,0
				C208.7,211.1,208.7,210.6,208.3,210.6L208.3,210.6z"/>
		</g>
		<g>
			<path class="st4" d="M208.3,212.5c-1.6,0-3.3,0-4.9,0c-0.3,0-0.3,0.5,0,0.5c1.6,0,3.3,0,4.9,0
				C208.6,213.1,208.6,212.5,208.3,212.5L208.3,212.5z"/>
		</g>
		<g>
			<path class="st4" d="M212.3,216.5c-3,0-5.9,0-8.9,0c-0.3,0-0.3,0.5,0,0.5c3,0,5.9,0,8.9,0C212.6,217,212.6,216.5,212.3,216.5
				L212.3,216.5z"/>
		</g>
		<g>
			<path class="st4" d="M208.3,218.5c-1.6,0-3.3,0-4.9,0c-0.3,0-0.3,0.5,0,0.5c1.6,0,3.3,0,4.9,0C208.6,219,208.6,218.5,208.3,218.5
				L208.3,218.5z"/>
		</g>
		<g>
			<path class="st4" d="M208.3,220.5c-1.6,0-3.3,0-4.9,0c-0.3,0-0.3,0.5,0,0.5c1.6,0,3.3,0,4.9,0C208.6,221,208.6,220.5,208.3,220.5
				L208.3,220.5z"/>
		</g>
		<g>
			<path class="st4" d="M208.3,222.5c-1.6,0-3.3,0-4.9,0c-0.3,0-0.3,0.5,0,0.5c1.6,0,3.3,0,4.9,0C208.6,223,208.6,222.5,208.3,222.5
				L208.3,222.5z"/>
		</g>
		<g>
			<path class="st4" d="M208.3,234.1c-1.6,0-3.3,0-4.9,0c-0.3,0-0.3,0.5,0,0.5c1.6,0,3.3,0,4.9,0
				C208.6,234.6,208.6,234.1,208.3,234.1L208.3,234.1z"/>
		</g>
		<g>
			<path class="st4" d="M210.4,226.3c-2.3,0-4.7,0-7,0c-0.3,0-0.3,0.5,0,0.5c2.3,0,4.7,0,7,0C210.8,226.8,210.8,226.3,210.4,226.3
				L210.4,226.3z"/>
		</g>
		<g>
			<path class="st4" d="M212.3,236c-3,0-5.9,0-8.9,0c-0.3,0-0.3,0.5,0,0.5c3,0,5.9,0,8.9,0C212.6,236.5,212.6,236,212.3,236
				L212.3,236z"/>
		</g>
		<g>
			<path class="st4" d="M208.3,224.2c-1.6,0-3.3,0-4.9,0c-0.3,0-0.3,0.5,0,0.5c1.6,0,3.3,0,4.9,0
				C208.6,224.7,208.6,224.2,208.3,224.2L208.3,224.2z"/>
		</g>
		<g>
			<path class="st4" d="M208.3,228.1c-1.6,0-3.3,0-4.9,0c-0.3,0-0.3,0.5,0,0.5c1.6,0,3.3,0,4.9,0
				C208.6,228.7,208.6,228.1,208.3,228.1L208.3,228.1z"/>
		</g>
		<g>
			<path class="st4" d="M208.3,230.1c-1.6,0-3.3,0-4.9,0c-0.3,0-0.3,0.5,0,0.5c1.6,0,3.3,0,4.9,0
				C208.7,230.6,208.7,230.1,208.3,230.1L208.3,230.1z"/>
		</g>
		<g>
			<path class="st4" d="M208.3,232c-1.6,0-3.3,0-4.9,0c-0.3,0-0.3,0.5,0,0.5c1.6,0,3.3,0,4.9,0C208.6,232.6,208.6,232,208.3,232
				L208.3,232z"/>
		</g>
		<g>
			<path class="st4" d="M212.3,236c-3,0-5.9,0-8.9,0c-0.3,0-0.3,0.5,0,0.5c3,0,5.9,0,8.9,0C212.6,236.5,212.6,236,212.3,236
				L212.3,236z"/>
		</g>
		<g>
			<path class="st4" d="M208.3,238c-1.6,0-3.3,0-4.9,0c-0.3,0-0.3,0.5,0,0.5c1.6,0,3.3,0,4.9,0C208.6,238.5,208.6,238,208.3,238
				L208.3,238z"/>
		</g>
		<g>
			<path class="st4" d="M208.3,240c-1.6,0-3.3,0-4.9,0c-0.3,0-0.3,0.5,0,0.5c1.6,0,3.3,0,4.9,0C208.6,240.5,208.6,240,208.3,240
				L208.3,240z"/>
		</g>
		<g>
			<path class="st4" d="M208.3,242c-1.6,0-3.3,0-4.9,0c-0.3,0-0.3,0.5,0,0.5c1.6,0,3.3,0,4.9,0C208.6,242.5,208.6,242,208.3,242
				L208.3,242z"/>
		</g>
		<g>
			<path class="st4" d="M208.3,243.7c-1.6,0-3.3,0-4.9,0c-0.3,0-0.3,0.5,0,0.5c1.6,0,3.3,0,4.9,0
				C208.6,244.2,208.6,243.7,208.3,243.7L208.3,243.7z"/>
		</g>
	</g>
	
		<rect x="113.6" y="322.7" transform="matrix(-1.836970e-16 1 -1 -1.836970e-16 535.0119 120.7182)" class="st3" width="187" height="10.4"/>
	<g>
		<g>
			<path class="st4" d="M208.8,237.2c-1.6,0-3.3,0-4.9,0c-0.3,0-0.3,0.5,0,0.5c1.6,0,3.3,0,4.9,0
				C209.2,237.7,209.2,237.2,208.8,237.2L208.8,237.2z"/>
		</g>
		<g>
			<path class="st4" d="M208.8,239.2c-1.6,0-3.3,0-4.9,0c-0.3,0-0.3,0.5,0,0.5c1.6,0,3.3,0,4.9,0
				C209.2,239.8,209.2,239.2,208.8,239.2L208.8,239.2z"/>
		</g>
		<g>
			<path class="st4" d="M208.8,241.3c-1.6,0-3.3,0-4.9,0c-0.3,0-0.3,0.5,0,0.5c1.6,0,3.3,0,4.9,0
				C209.2,241.8,209.2,241.3,208.8,241.3L208.8,241.3z"/>
		</g>
		<g>
			<path class="st4" d="M208.8,252.8c-1.6,0-3.3,0-4.9,0c-0.3,0-0.3,0.5,0,0.5c1.6,0,3.3,0,4.9,0
				C209.2,253.4,209.2,252.8,208.8,252.8L208.8,252.8z"/>
		</g>
		<g>
			<path class="st4" d="M211,245c-2.3,0-4.7,0-7,0c-0.3,0-0.3,0.5,0,0.5c2.3,0,4.7,0,7,0C211.3,245.5,211.3,245,211,245L211,245z"/>
		</g>
		<g>
			<path class="st4" d="M212.8,254.7c-3,0-5.9,0-8.9,0c-0.3,0-0.3,0.5,0,0.5c3,0,5.9,0,8.9,0C213.1,255.2,213.1,254.7,212.8,254.7
				L212.8,254.7z"/>
		</g>
		<g>
			<path class="st4" d="M208.8,242.9c-1.6,0-3.3,0-4.9,0c-0.3,0-0.3,0.5,0,0.5c1.6,0,3.3,0,4.9,0
				C209.2,243.5,209.2,242.9,208.8,242.9L208.8,242.9z"/>
		</g>
		<g>
			<path class="st4" d="M208.8,246.9c-1.6,0-3.3,0-4.9,0c-0.3,0-0.3,0.5,0,0.5c1.6,0,3.3,0,4.9,0
				C209.2,247.4,209.2,246.9,208.8,246.9L208.8,246.9z"/>
		</g>
		<g>
			<path class="st4" d="M208.9,248.9c-1.6,0-3.3,0-4.9,0c-0.3,0-0.3,0.5,0,0.5c1.6,0,3.3,0,4.9,0
				C209.2,249.4,209.2,248.9,208.9,248.9L208.9,248.9z"/>
		</g>
		<g>
			<path class="st4" d="M208.8,250.8c-1.6,0-3.3,0-4.9,0c-0.3,0-0.3,0.5,0,0.5c1.6,0,3.3,0,4.9,0
				C209.2,251.3,209.2,250.8,208.8,250.8L208.8,250.8z"/>
		</g>
		<g>
			<path class="st4" d="M212.8,254.7c-3,0-5.9,0-8.9,0c-0.3,0-0.3,0.5,0,0.5c3,0,5.9,0,8.9,0C213.1,255.2,213.1,254.7,212.8,254.7
				L212.8,254.7z"/>
		</g>
		<g>
			<path class="st4" d="M208.8,256.7c-1.6,0-3.3,0-4.9,0c-0.3,0-0.3,0.5,0,0.5c1.6,0,3.3,0,4.9,0
				C209.2,257.2,209.2,256.7,208.8,256.7L208.8,256.7z"/>
		</g>
		<g>
			<path class="st4" d="M208.8,258.7c-1.6,0-3.3,0-4.9,0c-0.3,0-0.3,0.5,0,0.5c1.6,0,3.3,0,4.9,0
				C209.2,259.3,209.2,258.7,208.8,258.7L208.8,258.7z"/>
		</g>
		<g>
			<path class="st4" d="M208.8,260.8c-1.6,0-3.3,0-4.9,0c-0.3,0-0.3,0.5,0,0.5c1.6,0,3.3,0,4.9,0
				C209.2,261.3,209.2,260.8,208.8,260.8L208.8,260.8z"/>
		</g>
		<g>
			<path class="st4" d="M208.8,272.3c-1.6,0-3.3,0-4.9,0c-0.3,0-0.3,0.5,0,0.5c1.6,0,3.3,0,4.9,0
				C209.2,272.9,209.2,272.3,208.8,272.3L208.8,272.3z"/>
		</g>
		<g>
			<path class="st4" d="M211,264.5c-2.3,0-4.7,0-7,0c-0.3,0-0.3,0.5,0,0.5c2.3,0,4.7,0,7,0C211.3,265,211.3,264.5,211,264.5
				L211,264.5z"/>
		</g>
		<g>
			<path class="st4" d="M212.8,274.2c-3,0-5.9,0-8.9,0c-0.3,0-0.3,0.5,0,0.5c3,0,5.9,0,8.9,0C213.1,274.7,213.1,274.2,212.8,274.2
				L212.8,274.2z"/>
		</g>
		<g>
			<path class="st4" d="M208.8,262.4c-1.6,0-3.3,0-4.9,0c-0.3,0-0.3,0.5,0,0.5c1.6,0,3.3,0,4.9,0C209.2,263,209.2,262.4,208.8,262.4
				L208.8,262.4z"/>
		</g>
		<g>
			<path class="st4" d="M208.8,266.4c-1.6,0-3.3,0-4.9,0c-0.3,0-0.3,0.5,0,0.5c1.6,0,3.3,0,4.9,0
				C209.2,266.9,209.2,266.4,208.8,266.4L208.8,266.4z"/>
		</g>
		<g>
			<path class="st4" d="M208.9,268.4c-1.6,0-3.3,0-4.9,0c-0.3,0-0.3,0.5,0,0.5c1.6,0,3.3,0,4.9,0
				C209.2,268.9,209.2,268.4,208.9,268.4L208.9,268.4z"/>
		</g>
		<g>
			<path class="st4" d="M208.8,270.3c-1.6,0-3.3,0-4.9,0c-0.3,0-0.3,0.5,0,0.5c1.6,0,3.3,0,4.9,0
				C209.2,270.8,209.2,270.3,208.8,270.3L208.8,270.3z"/>
		</g>
		<g>
			<path class="st4" d="M212.8,274.2c-3,0-5.9,0-8.9,0c-0.3,0-0.3,0.5,0,0.5c3,0,5.9,0,8.9,0C213.1,274.7,213.1,274.2,212.8,274.2
				L212.8,274.2z"/>
		</g>
		<g>
			<path class="st4" d="M208.8,276.2c-1.6,0-3.3,0-4.9,0c-0.3,0-0.3,0.5,0,0.5c1.6,0,3.3,0,4.9,0
				C209.2,276.7,209.2,276.2,208.8,276.2L208.8,276.2z"/>
		</g>
		<g>
			<path class="st4" d="M208.8,278.2c-1.6,0-3.3,0-4.9,0c-0.3,0-0.3,0.5,0,0.5c1.6,0,3.3,0,4.9,0
				C209.2,278.8,209.2,278.2,208.8,278.2L208.8,278.2z"/>
		</g>
		<g>
			<path class="st4" d="M208.8,280.3c-1.6,0-3.3,0-4.9,0c-0.3,0-0.3,0.5,0,0.5c1.6,0,3.3,0,4.9,0
				C209.2,280.8,209.2,280.3,208.8,280.3L208.8,280.3z"/>
		</g>
		<g>
			<path class="st4" d="M208.8,291.8c-1.6,0-3.3,0-4.9,0c-0.3,0-0.3,0.5,0,0.5c1.6,0,3.3,0,4.9,0
				C209.2,292.4,209.2,291.8,208.8,291.8L208.8,291.8z"/>
		</g>
		<g>
			<path class="st4" d="M211,284c-2.3,0-4.7,0-7,0c-0.3,0-0.3,0.5,0,0.5c2.3,0,4.7,0,7,0C211.3,284.5,211.3,284,211,284L211,284z"/>
		</g>
		<g>
			<path class="st4" d="M212.8,293.7c-3,0-5.9,0-8.9,0c-0.3,0-0.3,0.5,0,0.5c3,0,5.9,0,8.9,0C213.1,294.2,213.1,293.7,212.8,293.7
				L212.8,293.7z"/>
		</g>
		<g>
			<path class="st4" d="M208.8,281.9c-1.6,0-3.3,0-4.9,0c-0.3,0-0.3,0.5,0,0.5c1.6,0,3.3,0,4.9,0
				C209.2,282.5,209.2,281.9,208.8,281.9L208.8,281.9z"/>
		</g>
		<g>
			<path class="st4" d="M208.8,285.9c-1.6,0-3.3,0-4.9,0c-0.3,0-0.3,0.5,0,0.5c1.6,0,3.3,0,4.9,0
				C209.2,286.4,209.2,285.9,208.8,285.9L208.8,285.9z"/>
		</g>
		<g>
			<path class="st4" d="M208.9,287.9c-1.6,0-3.3,0-4.9,0c-0.3,0-0.3,0.5,0,0.5c1.6,0,3.3,0,4.9,0
				C209.2,288.4,209.2,287.9,208.9,287.9L208.9,287.9z"/>
		</g>
		<g>
			<path class="st4" d="M208.8,289.8c-1.6,0-3.3,0-4.9,0c-0.3,0-0.3,0.5,0,0.5c1.6,0,3.3,0,4.9,0
				C209.2,290.3,209.2,289.8,208.8,289.8L208.8,289.8z"/>
		</g>
		<g>
			<path class="st4" d="M212.8,293.7c-3,0-5.9,0-8.9,0c-0.3,0-0.3,0.5,0,0.5c3,0,5.9,0,8.9,0C213.1,294.2,213.1,293.7,212.8,293.7
				L212.8,293.7z"/>
		</g>
		<g>
			<path class="st4" d="M208.8,295.7c-1.6,0-3.3,0-4.9,0c-0.3,0-0.3,0.5,0,0.5c1.6,0,3.3,0,4.9,0
				C209.2,296.2,209.2,295.7,208.8,295.7L208.8,295.7z"/>
		</g>
		<g>
			<path class="st4" d="M208.8,297.7c-1.6,0-3.3,0-4.9,0c-0.3,0-0.3,0.5,0,0.5c1.6,0,3.3,0,4.9,0
				C209.2,298.3,209.2,297.7,208.8,297.7L208.8,297.7z"/>
		</g>
		<g>
			<path class="st4" d="M208.8,299.8c-1.6,0-3.3,0-4.9,0c-0.3,0-0.3,0.5,0,0.5c1.6,0,3.3,0,4.9,0
				C209.2,300.3,209.2,299.8,208.8,299.8L208.8,299.8z"/>
		</g>
		<g>
			<path class="st4" d="M208.8,311.3c-1.6,0-3.3,0-4.9,0c-0.3,0-0.3,0.5,0,0.5c1.6,0,3.3,0,4.9,0
				C209.2,311.9,209.2,311.3,208.8,311.3L208.8,311.3z"/>
		</g>
		<g>
			<path class="st4" d="M211,303.5c-2.3,0-4.7,0-7,0c-0.3,0-0.3,0.5,0,0.5c2.3,0,4.7,0,7,0C211.3,304,211.3,303.5,211,303.5
				L211,303.5z"/>
		</g>
		<g>
			<path class="st4" d="M212.8,313.2c-3,0-5.9,0-8.9,0c-0.3,0-0.3,0.5,0,0.5c3,0,5.9,0,8.9,0C213.1,313.7,213.1,313.2,212.8,313.2
				L212.8,313.2z"/>
		</g>
		<g>
			<path class="st4" d="M208.8,301.4c-1.6,0-3.3,0-4.9,0c-0.3,0-0.3,0.5,0,0.5c1.6,0,3.3,0,4.9,0C209.2,302,209.2,301.4,208.8,301.4
				L208.8,301.4z"/>
		</g>
		<g>
			<path class="st4" d="M208.8,305.4c-1.6,0-3.3,0-4.9,0c-0.3,0-0.3,0.5,0,0.5c1.6,0,3.3,0,4.9,0
				C209.2,305.9,209.2,305.4,208.8,305.4L208.8,305.4z"/>
		</g>
		<g>
			<path class="st4" d="M208.9,307.4c-1.6,0-3.3,0-4.9,0c-0.3,0-0.3,0.5,0,0.5c1.6,0,3.3,0,4.9,0
				C209.2,307.9,209.2,307.4,208.9,307.4L208.9,307.4z"/>
		</g>
		<g>
			<path class="st4" d="M208.8,309.3c-1.6,0-3.3,0-4.9,0c-0.3,0-0.3,0.5,0,0.5c1.6,0,3.3,0,4.9,0
				C209.2,309.8,209.2,309.3,208.8,309.3L208.8,309.3z"/>
		</g>
		<g>
			<path class="st4" d="M212.8,313.2c-3,0-5.9,0-8.9,0c-0.3,0-0.3,0.5,0,0.5c3,0,5.9,0,8.9,0C213.1,313.7,213.1,313.2,212.8,313.2
				L212.8,313.2z"/>
		</g>
		<g>
			<path class="st4" d="M208.8,315.2c-1.6,0-3.3,0-4.9,0c-0.3,0-0.3,0.5,0,0.5c1.6,0,3.3,0,4.9,0
				C209.2,315.7,209.2,315.2,208.8,315.2L208.8,315.2z"/>
		</g>
		<g>
			<path class="st4" d="M208.8,317.2c-1.6,0-3.3,0-4.9,0c-0.3,0-0.3,0.5,0,0.5c1.6,0,3.3,0,4.9,0
				C209.2,317.8,209.2,317.2,208.8,317.2L208.8,317.2z"/>
		</g>
		<g>
			<path class="st4" d="M208.8,319.3c-1.6,0-3.3,0-4.9,0c-0.3,0-0.3,0.5,0,0.5c1.6,0,3.3,0,4.9,0
				C209.2,319.8,209.2,319.3,208.8,319.3L208.8,319.3z"/>
		</g>
		<g>
			<path class="st4" d="M208.8,330.8c-1.6,0-3.3,0-4.9,0c-0.3,0-0.3,0.5,0,0.5c1.6,0,3.3,0,4.9,0
				C209.2,331.4,209.2,330.8,208.8,330.8L208.8,330.8z"/>
		</g>
		<g>
			<path class="st4" d="M211,323c-2.3,0-4.7,0-7,0c-0.3,0-0.3,0.5,0,0.5c2.3,0,4.7,0,7,0C211.3,323.5,211.3,323,211,323L211,323z"/>
		</g>
		<g>
			<path class="st4" d="M212.8,332.7c-3,0-5.9,0-8.9,0c-0.3,0-0.3,0.5,0,0.5c3,0,5.9,0,8.9,0C213.1,333.2,213.1,332.7,212.8,332.7
				L212.8,332.7z"/>
		</g>
		<g>
			<path class="st4" d="M208.8,320.9c-1.6,0-3.3,0-4.9,0c-0.3,0-0.3,0.5,0,0.5c1.6,0,3.3,0,4.9,0
				C209.2,321.5,209.2,320.9,208.8,320.9L208.8,320.9z"/>
		</g>
		<g>
			<path class="st4" d="M208.8,324.9c-1.6,0-3.3,0-4.9,0c-0.3,0-0.3,0.5,0,0.5c1.6,0,3.3,0,4.9,0
				C209.2,325.4,209.2,324.9,208.8,324.9L208.8,324.9z"/>
		</g>
		<g>
			<path class="st4" d="M208.9,326.8c-1.6,0-3.3,0-4.9,0c-0.3,0-0.3,0.5,0,0.5c1.6,0,3.3,0,4.9,0
				C209.2,327.4,209.2,326.8,208.9,326.8L208.9,326.8z"/>
		</g>
		<g>
			<path class="st4" d="M208.8,328.8c-1.6,0-3.3,0-4.9,0c-0.3,0-0.3,0.5,0,0.5c1.6,0,3.3,0,4.9,0
				C209.2,329.3,209.2,328.8,208.8,328.8L208.8,328.8z"/>
		</g>
		<g>
			<path class="st4" d="M212.8,332.7c-3,0-5.9,0-8.9,0c-0.3,0-0.3,0.5,0,0.5c3,0,5.9,0,8.9,0C213.1,333.2,213.1,332.7,212.8,332.7
				L212.8,332.7z"/>
		</g>
		<g>
			<path class="st4" d="M208.8,334.7c-1.6,0-3.3,0-4.9,0c-0.3,0-0.3,0.5,0,0.5c1.6,0,3.3,0,4.9,0
				C209.2,335.2,209.2,334.7,208.8,334.7L208.8,334.7z"/>
		</g>
		<g>
			<path class="st4" d="M208.8,336.7c-1.6,0-3.3,0-4.9,0c-0.3,0-0.3,0.5,0,0.5c1.6,0,3.3,0,4.9,0
				C209.2,337.2,209.2,336.7,208.8,336.7L208.8,336.7z"/>
		</g>
		<g>
			<path class="st4" d="M208.8,338.8c-1.6,0-3.3,0-4.9,0c-0.3,0-0.3,0.5,0,0.5c1.6,0,3.3,0,4.9,0
				C209.2,339.3,209.2,338.8,208.8,338.8L208.8,338.8z"/>
		</g>
		<g>
			<path class="st4" d="M208.8,350.3c-1.6,0-3.3,0-4.9,0c-0.3,0-0.3,0.5,0,0.5c1.6,0,3.3,0,4.9,0
				C209.2,350.9,209.2,350.3,208.8,350.3L208.8,350.3z"/>
		</g>
		<g>
			<path class="st4" d="M211,342.5c-2.3,0-4.7,0-7,0c-0.3,0-0.3,0.5,0,0.5c2.3,0,4.7,0,7,0C211.3,343,211.3,342.5,211,342.5
				L211,342.5z"/>
		</g>
		<g>
			<path class="st4" d="M212.8,352.2c-3,0-5.9,0-8.9,0c-0.3,0-0.3,0.5,0,0.5c3,0,5.9,0,8.9,0C213.1,352.7,213.1,352.2,212.8,352.2
				L212.8,352.2z"/>
		</g>
		<g>
			<path class="st4" d="M208.8,340.4c-1.6,0-3.3,0-4.9,0c-0.3,0-0.3,0.5,0,0.5c1.6,0,3.3,0,4.9,0C209.2,341,209.2,340.4,208.8,340.4
				L208.8,340.4z"/>
		</g>
		<g>
			<path class="st4" d="M208.8,344.4c-1.6,0-3.3,0-4.9,0c-0.3,0-0.3,0.5,0,0.5c1.6,0,3.3,0,4.9,0
				C209.2,344.9,209.2,344.4,208.8,344.4L208.8,344.4z"/>
		</g>
		<g>
			<path class="st4" d="M208.9,346.3c-1.6,0-3.3,0-4.9,0c-0.3,0-0.3,0.5,0,0.5c1.6,0,3.3,0,4.9,0
				C209.2,346.9,209.2,346.3,208.9,346.3L208.9,346.3z"/>
		</g>
		<g>
			<path class="st4" d="M208.8,348.3c-1.6,0-3.3,0-4.9,0c-0.3,0-0.3,0.5,0,0.5c1.6,0,3.3,0,4.9,0
				C209.2,348.8,209.2,348.3,208.8,348.3L208.8,348.3z"/>
		</g>
		<g>
			<path class="st4" d="M212.8,352.2c-3,0-5.9,0-8.9,0c-0.3,0-0.3,0.5,0,0.5c3,0,5.9,0,8.9,0C213.1,352.7,213.1,352.2,212.8,352.2
				L212.8,352.2z"/>
		</g>
		<g>
			<path class="st4" d="M208.8,354.2c-1.6,0-3.3,0-4.9,0c-0.3,0-0.3,0.5,0,0.5c1.6,0,3.3,0,4.9,0
				C209.2,354.7,209.2,354.2,208.8,354.2L208.8,354.2z"/>
		</g>
		<g>
			<path class="st4" d="M208.8,356.2c-1.6,0-3.3,0-4.9,0c-0.3,0-0.3,0.5,0,0.5c1.6,0,3.3,0,4.9,0
				C209.2,356.7,209.2,356.2,208.8,356.2L208.8,356.2z"/>
		</g>
		<g>
			<path class="st4" d="M208.8,358.3c-1.6,0-3.3,0-4.9,0c-0.3,0-0.3,0.5,0,0.5c1.6,0,3.3,0,4.9,0
				C209.2,358.8,209.2,358.3,208.8,358.3L208.8,358.3z"/>
		</g>
	</g>
	<g>
		<g>
			<path class="st4" d="M212.8,313.2c-3,0-5.9,0-8.9,0c-0.3,0-0.3,0.5,0,0.5c3,0,5.9,0,8.9,0C213.1,313.7,213.1,313.2,212.8,313.2
				L212.8,313.2z"/>
		</g>
		<g>
			<path class="st4" d="M208.8,315.2c-1.6,0-3.3,0-4.9,0c-0.3,0-0.3,0.5,0,0.5c1.6,0,3.3,0,4.9,0
				C209.2,315.8,209.2,315.2,208.8,315.2L208.8,315.2z"/>
		</g>
		<g>
			<path class="st4" d="M208.8,317.3c-1.6,0-3.3,0-4.9,0c-0.3,0-0.3,0.5,0,0.5c1.6,0,3.3,0,4.9,0
				C209.2,317.8,209.2,317.3,208.8,317.3L208.8,317.3z"/>
		</g>
		<g>
			<path class="st4" d="M208.8,319.3c-1.6,0-3.3,0-4.9,0c-0.3,0-0.3,0.5,0,0.5c1.6,0,3.3,0,4.9,0
				C209.2,319.8,209.2,319.3,208.8,319.3L208.8,319.3z"/>
		</g>
		<g>
			<path class="st4" d="M208.8,330.9c-1.6,0-3.3,0-4.9,0c-0.3,0-0.3,0.5,0,0.5c1.6,0,3.3,0,4.9,0
				C209.2,331.4,209.2,330.9,208.8,330.9L208.8,330.9z"/>
		</g>
		<g>
			<path class="st4" d="M211,323c-2.3,0-4.7,0-7,0c-0.3,0-0.3,0.5,0,0.5c2.3,0,4.7,0,7,0C211.3,323.5,211.3,323,211,323L211,323z"/>
		</g>
		<g>
			<path class="st4" d="M212.8,332.7c-3,0-5.9,0-8.9,0c-0.3,0-0.3,0.5,0,0.5c3,0,5.9,0,8.9,0C213.1,333.2,213.1,332.7,212.8,332.7
				L212.8,332.7z"/>
		</g>
		<g>
			<path class="st4" d="M208.8,321c-1.6,0-3.3,0-4.9,0c-0.3,0-0.3,0.5,0,0.5c1.6,0,3.3,0,4.9,0C209.2,321.5,209.2,321,208.8,321
				L208.8,321z"/>
		</g>
		<g>
			<path class="st4" d="M208.8,324.9c-1.6,0-3.3,0-4.9,0c-0.3,0-0.3,0.5,0,0.5c1.6,0,3.3,0,4.9,0
				C209.2,325.4,209.2,324.9,208.8,324.9L208.8,324.9z"/>
		</g>
		<g>
			<path class="st4" d="M208.9,326.9c-1.6,0-3.3,0-4.9,0c-0.3,0-0.3,0.5,0,0.5c1.6,0,3.3,0,4.9,0
				C209.2,327.4,209.2,326.9,208.9,326.9L208.9,326.9z"/>
		</g>
		<g>
			<path class="st4" d="M208.8,328.8c-1.6,0-3.3,0-4.9,0c-0.3,0-0.3,0.5,0,0.5c1.6,0,3.3,0,4.9,0
				C209.2,329.3,209.2,328.8,208.8,328.8L208.8,328.8z"/>
		</g>
		<g>
			<path class="st4" d="M212.8,332.7c-3,0-5.9,0-8.9,0c-0.3,0-0.3,0.5,0,0.5c3,0,5.9,0,8.9,0C213.1,333.2,213.1,332.7,212.8,332.7
				L212.8,332.7z"/>
		</g>
		<g>
			<path class="st4" d="M208.8,334.7c-1.6,0-3.3,0-4.9,0c-0.3,0-0.3,0.5,0,0.5c1.6,0,3.3,0,4.9,0
				C209.2,335.3,209.2,334.7,208.8,334.7L208.8,334.7z"/>
		</g>
		<g>
			<path class="st4" d="M208.8,336.8c-1.6,0-3.3,0-4.9,0c-0.3,0-0.3,0.5,0,0.5c1.6,0,3.3,0,4.9,0
				C209.2,337.3,209.2,336.8,208.8,336.8L208.8,336.8z"/>
		</g>
		<g>
			<path class="st4" d="M208.8,338.8c-1.6,0-3.3,0-4.9,0c-0.3,0-0.3,0.5,0,0.5c1.6,0,3.3,0,4.9,0
				C209.2,339.3,209.2,338.8,208.8,338.8L208.8,338.8z"/>
		</g>
		<g>
			<path class="st4" d="M208.8,350.4c-1.6,0-3.3,0-4.9,0c-0.3,0-0.3,0.5,0,0.5c1.6,0,3.3,0,4.9,0
				C209.2,350.9,209.2,350.4,208.8,350.4L208.8,350.4z"/>
		</g>
		<g>
			<path class="st4" d="M211,342.5c-2.3,0-4.7,0-7,0c-0.3,0-0.3,0.5,0,0.5c2.3,0,4.7,0,7,0C211.3,343,211.3,342.5,211,342.5
				L211,342.5z"/>
		</g>
		<g>
			<path class="st4" d="M212.8,352.2c-3,0-5.9,0-8.9,0c-0.3,0-0.3,0.5,0,0.5c3,0,5.9,0,8.9,0C213.1,352.7,213.1,352.2,212.8,352.2
				L212.8,352.2z"/>
		</g>
		<g>
			<path class="st4" d="M208.8,340.5c-1.6,0-3.3,0-4.9,0c-0.3,0-0.3,0.5,0,0.5c1.6,0,3.3,0,4.9,0C209.2,341,209.2,340.5,208.8,340.5
				L208.8,340.5z"/>
		</g>
		<g>
			<path class="st4" d="M208.8,344.4c-1.6,0-3.3,0-4.9,0c-0.3,0-0.3,0.5,0,0.5c1.6,0,3.3,0,4.9,0
				C209.2,344.9,209.2,344.4,208.8,344.4L208.8,344.4z"/>
		</g>
		<g>
			<path class="st4" d="M208.9,346.4c-1.6,0-3.3,0-4.9,0c-0.3,0-0.3,0.5,0,0.5c1.6,0,3.3,0,4.9,0
				C209.2,346.9,209.2,346.4,208.9,346.4L208.9,346.4z"/>
		</g>
		<g>
			<path class="st4" d="M208.8,348.3c-1.6,0-3.3,0-4.9,0c-0.3,0-0.3,0.5,0,0.5c1.6,0,3.3,0,4.9,0
				C209.2,348.8,209.2,348.3,208.8,348.3L208.8,348.3z"/>
		</g>
		<g>
			<path class="st4" d="M212.8,352.2c-3,0-5.9,0-8.9,0c-0.3,0-0.3,0.5,0,0.5c3,0,5.9,0,8.9,0C213.1,352.7,213.1,352.2,212.8,352.2
				L212.8,352.2z"/>
		</g>
		<g>
			<path class="st4" d="M208.8,354.2c-1.6,0-3.3,0-4.9,0c-0.3,0-0.3,0.5,0,0.5c1.6,0,3.3,0,4.9,0
				C209.2,354.8,209.2,354.2,208.8,354.2L208.8,354.2z"/>
		</g>
		<g>
			<path class="st4" d="M208.8,356.3c-1.6,0-3.3,0-4.9,0c-0.3,0-0.3,0.5,0,0.5c1.6,0,3.3,0,4.9,0
				C209.2,356.8,209.2,356.3,208.8,356.3L208.8,356.3z"/>
		</g>
		<g>
			<path class="st4" d="M208.8,358.3c-1.6,0-3.3,0-4.9,0c-0.3,0-0.3,0.5,0,0.5c1.6,0,3.3,0,4.9,0
				C209.2,358.8,209.2,358.3,208.8,358.3L208.8,358.3z"/>
		</g>
		<g>
			<path class="st4" d="M208.8,369.9c-1.6,0-3.3,0-4.9,0c-0.3,0-0.3,0.5,0,0.5c1.6,0,3.3,0,4.9,0
				C209.2,370.4,209.2,369.9,208.8,369.9L208.8,369.9z"/>
		</g>
		<g>
			<path class="st4" d="M211,362c-2.3,0-4.7,0-7,0c-0.3,0-0.3,0.5,0,0.5c2.3,0,4.7,0,7,0C211.3,362.5,211.3,362,211,362L211,362z"/>
		</g>
		<g>
			<path class="st4" d="M212.8,371.7c-3,0-5.9,0-8.9,0c-0.3,0-0.3,0.5,0,0.5c3,0,5.9,0,8.9,0C213.1,372.2,213.1,371.7,212.8,371.7
				L212.8,371.7z"/>
		</g>
		<g>
			<path class="st4" d="M208.8,360c-1.6,0-3.3,0-4.9,0c-0.3,0-0.3,0.5,0,0.5c1.6,0,3.3,0,4.9,0C209.2,360.5,209.2,360,208.8,360
				L208.8,360z"/>
		</g>
		<g>
			<path class="st4" d="M208.8,363.9c-1.6,0-3.3,0-4.9,0c-0.3,0-0.3,0.5,0,0.5c1.6,0,3.3,0,4.9,0
				C209.2,364.4,209.2,363.9,208.8,363.9L208.8,363.9z"/>
		</g>
		<g>
			<path class="st4" d="M208.9,365.9c-1.6,0-3.3,0-4.9,0c-0.3,0-0.3,0.5,0,0.5c1.6,0,3.3,0,4.9,0
				C209.2,366.4,209.2,365.9,208.9,365.9L208.9,365.9z"/>
		</g>
		<g>
			<path class="st4" d="M208.8,367.8c-1.6,0-3.3,0-4.9,0c-0.3,0-0.3,0.5,0,0.5c1.6,0,3.3,0,4.9,0
				C209.2,368.3,209.2,367.8,208.8,367.8L208.8,367.8z"/>
		</g>
		<g>
			<path class="st4" d="M212.8,371.7c-3,0-5.9,0-8.9,0c-0.3,0-0.3,0.5,0,0.5c3,0,5.9,0,8.9,0C213.1,372.2,213.1,371.7,212.8,371.7
				L212.8,371.7z"/>
		</g>
		<g>
			<path class="st4" d="M208.8,373.7c-1.6,0-3.3,0-4.9,0c-0.3,0-0.3,0.5,0,0.5c1.6,0,3.3,0,4.9,0
				C209.2,374.3,209.2,373.7,208.8,373.7L208.8,373.7z"/>
		</g>
		<g>
			<path class="st4" d="M208.8,375.8c-1.6,0-3.3,0-4.9,0c-0.3,0-0.3,0.5,0,0.5c1.6,0,3.3,0,4.9,0
				C209.2,376.3,209.2,375.8,208.8,375.8L208.8,375.8z"/>
		</g>
		<g>
			<path class="st4" d="M208.8,377.8c-1.6,0-3.3,0-4.9,0c-0.3,0-0.3,0.5,0,0.5c1.6,0,3.3,0,4.9,0
				C209.2,378.3,209.2,377.8,208.8,377.8L208.8,377.8z"/>
		</g>
		<g>
			<path class="st4" d="M208.8,389.4c-1.6,0-3.3,0-4.9,0c-0.3,0-0.3,0.5,0,0.5c1.6,0,3.3,0,4.9,0
				C209.2,389.9,209.2,389.4,208.8,389.4L208.8,389.4z"/>
		</g>
		<g>
			<path class="st4" d="M211,381.5c-2.3,0-4.7,0-7,0c-0.3,0-0.3,0.5,0,0.5c2.3,0,4.7,0,7,0C211.3,382,211.3,381.5,211,381.5
				L211,381.5z"/>
		</g>
		<g>
			<path class="st4" d="M212.8,391.2c-3,0-5.9,0-8.9,0c-0.3,0-0.3,0.5,0,0.5c3,0,5.9,0,8.9,0C213.1,391.7,213.1,391.2,212.8,391.2
				L212.8,391.2z"/>
		</g>
		<g>
			<path class="st4" d="M208.8,379.5c-1.6,0-3.3,0-4.9,0c-0.3,0-0.3,0.5,0,0.5c1.6,0,3.3,0,4.9,0C209.2,380,209.2,379.5,208.8,379.5
				L208.8,379.5z"/>
		</g>
		<g>
			<path class="st4" d="M208.8,383.4c-1.6,0-3.3,0-4.9,0c-0.3,0-0.3,0.5,0,0.5c1.6,0,3.3,0,4.9,0
				C209.2,383.9,209.2,383.4,208.8,383.4L208.8,383.4z"/>
		</g>
		<g>
			<path class="st4" d="M208.9,385.4c-1.6,0-3.3,0-4.9,0c-0.3,0-0.3,0.5,0,0.5c1.6,0,3.3,0,4.9,0
				C209.2,385.9,209.2,385.4,208.9,385.4L208.9,385.4z"/>
		</g>
		<g>
			<path class="st4" d="M208.8,387.3c-1.6,0-3.3,0-4.9,0c-0.3,0-0.3,0.5,0,0.5c1.6,0,3.3,0,4.9,0
				C209.2,387.8,209.2,387.3,208.8,387.3L208.8,387.3z"/>
		</g>
		<g>
			<path class="st4" d="M212.8,391.2c-3,0-5.9,0-8.9,0c-0.3,0-0.3,0.5,0,0.5c3,0,5.9,0,8.9,0C213.1,391.7,213.1,391.2,212.8,391.2
				L212.8,391.2z"/>
		</g>
		<g>
			<path class="st4" d="M208.8,393.2c-1.6,0-3.3,0-4.9,0c-0.3,0-0.3,0.5,0,0.5c1.6,0,3.3,0,4.9,0
				C209.2,393.8,209.2,393.2,208.8,393.2L208.8,393.2z"/>
		</g>
		<g>
			<path class="st4" d="M208.8,395.3c-1.6,0-3.3,0-4.9,0c-0.3,0-0.3,0.5,0,0.5c1.6,0,3.3,0,4.9,0
				C209.2,395.8,209.2,395.3,208.8,395.3L208.8,395.3z"/>
		</g>
		<g>
			<path class="st4" d="M208.8,397.3c-1.6,0-3.3,0-4.9,0c-0.3,0-0.3,0.5,0,0.5c1.6,0,3.3,0,4.9,0
				C209.2,397.8,209.2,397.3,208.8,397.3L208.8,397.3z"/>
		</g>
		<g>
			<path class="st4" d="M208.8,408.9c-1.6,0-3.3,0-4.9,0c-0.3,0-0.3,0.5,0,0.5c1.6,0,3.3,0,4.9,0
				C209.2,409.4,209.2,408.9,208.8,408.9L208.8,408.9z"/>
		</g>
		<g>
			<path class="st4" d="M211,401c-2.3,0-4.7,0-7,0c-0.3,0-0.3,0.5,0,0.5c2.3,0,4.7,0,7,0C211.3,401.5,211.3,401,211,401L211,401z"/>
		</g>
		<g>
			<path class="st4" d="M212.8,410.7c-3,0-5.9,0-8.9,0c-0.3,0-0.3,0.5,0,0.5c3,0,5.9,0,8.9,0C213.1,411.2,213.1,410.7,212.8,410.7
				L212.8,410.7z"/>
		</g>
		<g>
			<path class="st4" d="M208.8,399c-1.6,0-3.3,0-4.9,0c-0.3,0-0.3,0.5,0,0.5c1.6,0,3.3,0,4.9,0C209.2,399.5,209.2,399,208.8,399
				L208.8,399z"/>
		</g>
		<g>
			<path class="st4" d="M208.8,402.9c-1.6,0-3.3,0-4.9,0c-0.3,0-0.3,0.5,0,0.5c1.6,0,3.3,0,4.9,0
				C209.2,403.4,209.2,402.9,208.8,402.9L208.8,402.9z"/>
		</g>
		<g>
			<path class="st4" d="M208.9,404.9c-1.6,0-3.3,0-4.9,0c-0.3,0-0.3,0.5,0,0.5c1.6,0,3.3,0,4.9,0
				C209.2,405.4,209.2,404.9,208.9,404.9L208.9,404.9z"/>
		</g>
		<g>
			<path class="st4" d="M208.8,406.8c-1.6,0-3.3,0-4.9,0c-0.3,0-0.3,0.5,0,0.5c1.6,0,3.3,0,4.9,0
				C209.2,407.3,209.2,406.8,208.8,406.8L208.8,406.8z"/>
		</g>
		<g>
			<path class="st4" d="M212.8,410.7c-3,0-5.9,0-8.9,0c-0.3,0-0.3,0.5,0,0.5c3,0,5.9,0,8.9,0C213.1,411.2,213.1,410.7,212.8,410.7
				L212.8,410.7z"/>
		</g>
		<g>
			<path class="st4" d="M208.8,412.7c-1.6,0-3.3,0-4.9,0c-0.3,0-0.3,0.5,0,0.5c1.6,0,3.3,0,4.9,0
				C209.2,413.3,209.2,412.7,208.8,412.7L208.8,412.7z"/>
		</g>
		<g>
			<path class="st4" d="M208.8,414.8c-1.6,0-3.3,0-4.9,0c-0.3,0-0.3,0.5,0,0.5c1.6,0,3.3,0,4.9,0
				C209.2,415.3,209.2,414.8,208.8,414.8L208.8,414.8z"/>
		</g>
		<g>
			<path class="st4" d="M208.8,416.8c-1.6,0-3.3,0-4.9,0c-0.3,0-0.3,0.5,0,0.5c1.6,0,3.3,0,4.9,0
				C209.2,417.3,209.2,416.8,208.8,416.8L208.8,416.8z"/>
		</g>
		<g>
			<path class="st4" d="M208.8,418.5c-1.6,0-3.3,0-4.9,0c-0.3,0-0.3,0.5,0,0.5c1.6,0,3.3,0,4.9,0C209.2,419,209.2,418.5,208.8,418.5
				L208.8,418.5z"/>
		</g>
	</g>
	
		<rect x="114" y="349" transform="matrix(-1.836970e-16 1 -1 -1.836970e-16 561.7077 146.7054)" class="st3" width="187" height="10.4"/>
	<g>
		<g>
			<path class="st4" d="M209.2,263.6c-1.6,0-3.3,0-4.9,0c-0.3,0-0.3,0.5,0,0.5c1.6,0,3.3,0,4.9,0
				C209.5,264.1,209.5,263.6,209.2,263.6L209.2,263.6z"/>
		</g>
		<g>
			<path class="st4" d="M209.2,265.6c-1.6,0-3.3,0-4.9,0c-0.3,0-0.3,0.5,0,0.5c1.6,0,3.3,0,4.9,0
				C209.5,266.1,209.5,265.6,209.2,265.6L209.2,265.6z"/>
		</g>
		<g>
			<path class="st4" d="M209.2,267.6c-1.6,0-3.3,0-4.9,0c-0.3,0-0.3,0.5,0,0.5c1.6,0,3.3,0,4.9,0
				C209.5,268.1,209.5,267.6,209.2,267.6L209.2,267.6z"/>
		</g>
		<g>
			<path class="st4" d="M209.2,279.2c-1.6,0-3.3,0-4.9,0c-0.3,0-0.3,0.5,0,0.5c1.6,0,3.3,0,4.9,0
				C209.5,279.7,209.5,279.2,209.2,279.2L209.2,279.2z"/>
		</g>
		<g>
			<path class="st4" d="M211.3,271.3c-2.3,0-4.7,0-7,0c-0.3,0-0.3,0.5,0,0.5c2.3,0,4.7,0,7,0C211.6,271.8,211.6,271.3,211.3,271.3
				L211.3,271.3z"/>
		</g>
		<g>
			<path class="st4" d="M213.1,281c-3,0-5.9,0-8.9,0c-0.3,0-0.3,0.5,0,0.5c3,0,5.9,0,8.9,0C213.5,281.5,213.5,281,213.1,281
				L213.1,281z"/>
		</g>
		<g>
			<path class="st4" d="M209.2,269.3c-1.6,0-3.3,0-4.9,0c-0.3,0-0.3,0.5,0,0.5c1.6,0,3.3,0,4.9,0
				C209.5,269.8,209.5,269.3,209.2,269.3L209.2,269.3z"/>
		</g>
		<g>
			<path class="st4" d="M209.2,273.2c-1.6,0-3.3,0-4.9,0c-0.3,0-0.3,0.5,0,0.5c1.6,0,3.3,0,4.9,0
				C209.5,273.7,209.5,273.2,209.2,273.2L209.2,273.2z"/>
		</g>
		<g>
			<path class="st4" d="M209.2,275.2c-1.6,0-3.3,0-4.9,0c-0.3,0-0.3,0.5,0,0.5c1.6,0,3.3,0,4.9,0
				C209.5,275.7,209.5,275.2,209.2,275.2L209.2,275.2z"/>
		</g>
		<g>
			<path class="st4" d="M209.2,277.1c-1.6,0-3.3,0-4.9,0c-0.3,0-0.3,0.5,0,0.5c1.6,0,3.3,0,4.9,0
				C209.5,277.6,209.5,277.1,209.2,277.1L209.2,277.1z"/>
		</g>
		<g>
			<path class="st4" d="M213.1,281c-3,0-5.9,0-8.9,0c-0.3,0-0.3,0.5,0,0.5c3,0,5.9,0,8.9,0C213.5,281.5,213.5,281,213.1,281
				L213.1,281z"/>
		</g>
		<g>
			<path class="st4" d="M209.2,283.1c-1.6,0-3.3,0-4.9,0c-0.3,0-0.3,0.5,0,0.5c1.6,0,3.3,0,4.9,0
				C209.5,283.6,209.5,283.1,209.2,283.1L209.2,283.1z"/>
		</g>
		<g>
			<path class="st4" d="M209.2,285.1c-1.6,0-3.3,0-4.9,0c-0.3,0-0.3,0.5,0,0.5c1.6,0,3.3,0,4.9,0
				C209.5,285.6,209.5,285.1,209.2,285.1L209.2,285.1z"/>
		</g>
		<g>
			<path class="st4" d="M209.2,287.1c-1.6,0-3.3,0-4.9,0c-0.3,0-0.3,0.5,0,0.5c1.6,0,3.3,0,4.9,0
				C209.5,287.6,209.5,287.1,209.2,287.1L209.2,287.1z"/>
		</g>
		<g>
			<path class="st4" d="M209.2,298.7c-1.6,0-3.3,0-4.9,0c-0.3,0-0.3,0.5,0,0.5c1.6,0,3.3,0,4.9,0
				C209.5,299.2,209.5,298.7,209.2,298.7L209.2,298.7z"/>
		</g>
		<g>
			<path class="st4" d="M211.3,290.8c-2.3,0-4.7,0-7,0c-0.3,0-0.3,0.5,0,0.5c2.3,0,4.7,0,7,0C211.6,291.3,211.6,290.8,211.3,290.8
				L211.3,290.8z"/>
		</g>
		<g>
			<path class="st4" d="M213.1,300.5c-3,0-5.9,0-8.9,0c-0.3,0-0.3,0.5,0,0.5c3,0,5.9,0,8.9,0C213.5,301,213.5,300.5,213.1,300.5
				L213.1,300.5z"/>
		</g>
		<g>
			<path class="st4" d="M209.2,288.8c-1.6,0-3.3,0-4.9,0c-0.3,0-0.3,0.5,0,0.5c1.6,0,3.3,0,4.9,0
				C209.5,289.3,209.5,288.8,209.2,288.8L209.2,288.8z"/>
		</g>
		<g>
			<path class="st4" d="M209.2,292.7c-1.6,0-3.3,0-4.9,0c-0.3,0-0.3,0.5,0,0.5c1.6,0,3.3,0,4.9,0
				C209.5,293.2,209.5,292.7,209.2,292.7L209.2,292.7z"/>
		</g>
		<g>
			<path class="st4" d="M209.2,294.7c-1.6,0-3.3,0-4.9,0c-0.3,0-0.3,0.5,0,0.5c1.6,0,3.3,0,4.9,0
				C209.5,295.2,209.5,294.7,209.2,294.7L209.2,294.7z"/>
		</g>
		<g>
			<path class="st4" d="M209.2,296.6c-1.6,0-3.3,0-4.9,0c-0.3,0-0.3,0.5,0,0.5c1.6,0,3.3,0,4.9,0
				C209.5,297.1,209.5,296.6,209.2,296.6L209.2,296.6z"/>
		</g>
		<g>
			<path class="st4" d="M213.1,300.5c-3,0-5.9,0-8.9,0c-0.3,0-0.3,0.5,0,0.5c3,0,5.9,0,8.9,0C213.5,301,213.5,300.5,213.1,300.5
				L213.1,300.5z"/>
		</g>
		<g>
			<path class="st4" d="M209.2,302.6c-1.6,0-3.3,0-4.9,0c-0.3,0-0.3,0.5,0,0.5c1.6,0,3.3,0,4.9,0
				C209.5,303.1,209.5,302.6,209.2,302.6L209.2,302.6z"/>
		</g>
		<g>
			<path class="st4" d="M209.2,304.6c-1.6,0-3.3,0-4.9,0c-0.3,0-0.3,0.5,0,0.5c1.6,0,3.3,0,4.9,0
				C209.5,305.1,209.5,304.6,209.2,304.6L209.2,304.6z"/>
		</g>
		<g>
			<path class="st4" d="M209.2,306.6c-1.6,0-3.3,0-4.9,0c-0.3,0-0.3,0.5,0,0.5c1.6,0,3.3,0,4.9,0
				C209.5,307.1,209.5,306.6,209.2,306.6L209.2,306.6z"/>
		</g>
		<g>
			<path class="st4" d="M209.2,318.2c-1.6,0-3.3,0-4.9,0c-0.3,0-0.3,0.5,0,0.5c1.6,0,3.3,0,4.9,0
				C209.5,318.7,209.5,318.2,209.2,318.2L209.2,318.2z"/>
		</g>
		<g>
			<path class="st4" d="M211.3,310.3c-2.3,0-4.7,0-7,0c-0.3,0-0.3,0.5,0,0.5c2.3,0,4.7,0,7,0C211.6,310.8,211.6,310.3,211.3,310.3
				L211.3,310.3z"/>
		</g>
		<g>
			<path class="st4" d="M213.1,320c-3,0-5.9,0-8.9,0c-0.3,0-0.3,0.5,0,0.5c3,0,5.9,0,8.9,0C213.5,320.5,213.5,320,213.1,320
				L213.1,320z"/>
		</g>
		<g>
			<path class="st4" d="M209.2,308.3c-1.6,0-3.3,0-4.9,0c-0.3,0-0.3,0.5,0,0.5c1.6,0,3.3,0,4.9,0
				C209.5,308.8,209.5,308.3,209.2,308.3L209.2,308.3z"/>
		</g>
		<g>
			<path class="st4" d="M209.2,312.2c-1.6,0-3.3,0-4.9,0c-0.3,0-0.3,0.5,0,0.5c1.6,0,3.3,0,4.9,0
				C209.5,312.7,209.5,312.2,209.2,312.2L209.2,312.2z"/>
		</g>
		<g>
			<path class="st4" d="M209.2,314.2c-1.6,0-3.3,0-4.9,0c-0.3,0-0.3,0.5,0,0.5c1.6,0,3.3,0,4.9,0
				C209.5,314.7,209.5,314.2,209.2,314.2L209.2,314.2z"/>
		</g>
		<g>
			<path class="st4" d="M209.2,316.1c-1.6,0-3.3,0-4.9,0c-0.3,0-0.3,0.5,0,0.5c1.6,0,3.3,0,4.9,0
				C209.5,316.6,209.5,316.1,209.2,316.1L209.2,316.1z"/>
		</g>
		<g>
			<path class="st4" d="M213.1,320c-3,0-5.9,0-8.9,0c-0.3,0-0.3,0.5,0,0.5c3,0,5.9,0,8.9,0C213.5,320.5,213.5,320,213.1,320
				L213.1,320z"/>
		</g>
		<g>
			<path class="st4" d="M209.2,322.1c-1.6,0-3.3,0-4.9,0c-0.3,0-0.3,0.5,0,0.5c1.6,0,3.3,0,4.9,0
				C209.5,322.6,209.5,322.1,209.2,322.1L209.2,322.1z"/>
		</g>
		<g>
			<path class="st4" d="M209.2,324.1c-1.6,0-3.3,0-4.9,0c-0.3,0-0.3,0.5,0,0.5c1.6,0,3.3,0,4.9,0
				C209.5,324.6,209.5,324.1,209.2,324.1L209.2,324.1z"/>
		</g>
		<g>
			<path class="st4" d="M209.2,326.1c-1.6,0-3.3,0-4.9,0c-0.3,0-0.3,0.5,0,0.5c1.6,0,3.3,0,4.9,0
				C209.5,326.6,209.5,326.1,209.2,326.1L209.2,326.1z"/>
		</g>
		<g>
			<path class="st4" d="M209.2,337.7c-1.6,0-3.3,0-4.9,0c-0.3,0-0.3,0.5,0,0.5c1.6,0,3.3,0,4.9,0
				C209.5,338.2,209.5,337.7,209.2,337.7L209.2,337.7z"/>
		</g>
		<g>
			<path class="st4" d="M211.3,329.8c-2.3,0-4.7,0-7,0c-0.3,0-0.3,0.5,0,0.5c2.3,0,4.7,0,7,0C211.6,330.3,211.6,329.8,211.3,329.8
				L211.3,329.8z"/>
		</g>
		<g>
			<path class="st4" d="M213.1,339.5c-3,0-5.9,0-8.9,0c-0.3,0-0.3,0.5,0,0.5c3,0,5.9,0,8.9,0C213.5,340,213.5,339.5,213.1,339.5
				L213.1,339.5z"/>
		</g>
		<g>
			<path class="st4" d="M209.2,327.8c-1.6,0-3.3,0-4.9,0c-0.3,0-0.3,0.5,0,0.5c1.6,0,3.3,0,4.9,0
				C209.5,328.3,209.5,327.8,209.2,327.8L209.2,327.8z"/>
		</g>
		<g>
			<path class="st4" d="M209.2,331.7c-1.6,0-3.3,0-4.9,0c-0.3,0-0.3,0.5,0,0.5c1.6,0,3.3,0,4.9,0
				C209.5,332.2,209.5,331.7,209.2,331.7L209.2,331.7z"/>
		</g>
		<g>
			<path class="st4" d="M209.2,333.7c-1.6,0-3.3,0-4.9,0c-0.3,0-0.3,0.5,0,0.5c1.6,0,3.3,0,4.9,0
				C209.5,334.2,209.5,333.7,209.2,333.7L209.2,333.7z"/>
		</g>
		<g>
			<path class="st4" d="M209.2,335.6c-1.6,0-3.3,0-4.9,0c-0.3,0-0.3,0.5,0,0.5c1.6,0,3.3,0,4.9,0
				C209.5,336.1,209.5,335.6,209.2,335.6L209.2,335.6z"/>
		</g>
		<g>
			<path class="st4" d="M213.1,339.5c-3,0-5.9,0-8.9,0c-0.3,0-0.3,0.5,0,0.5c3,0,5.9,0,8.9,0C213.5,340,213.5,339.5,213.1,339.5
				L213.1,339.5z"/>
		</g>
		<g>
			<path class="st4" d="M209.2,341.6c-1.6,0-3.3,0-4.9,0c-0.3,0-0.3,0.5,0,0.5c1.6,0,3.3,0,4.9,0
				C209.5,342.1,209.5,341.6,209.2,341.6L209.2,341.6z"/>
		</g>
		<g>
			<path class="st4" d="M209.2,343.6c-1.6,0-3.3,0-4.9,0c-0.3,0-0.3,0.5,0,0.5c1.6,0,3.3,0,4.9,0
				C209.5,344.1,209.5,343.6,209.2,343.6L209.2,343.6z"/>
		</g>
		<g>
			<path class="st4" d="M209.2,345.6c-1.6,0-3.3,0-4.9,0c-0.3,0-0.3,0.5,0,0.5c1.6,0,3.3,0,4.9,0
				C209.5,346.1,209.5,345.6,209.2,345.6L209.2,345.6z"/>
		</g>
		<g>
			<path class="st4" d="M209.2,357.2c-1.6,0-3.3,0-4.9,0c-0.3,0-0.3,0.5,0,0.5c1.6,0,3.3,0,4.9,0
				C209.5,357.7,209.5,357.2,209.2,357.2L209.2,357.2z"/>
		</g>
		<g>
			<path class="st4" d="M211.3,349.3c-2.3,0-4.7,0-7,0c-0.3,0-0.3,0.5,0,0.5c2.3,0,4.7,0,7,0C211.6,349.8,211.6,349.3,211.3,349.3
				L211.3,349.3z"/>
		</g>
		<g>
			<path class="st4" d="M213.1,359c-3,0-5.9,0-8.9,0c-0.3,0-0.3,0.5,0,0.5c3,0,5.9,0,8.9,0C213.5,359.5,213.5,359,213.1,359
				L213.1,359z"/>
		</g>
		<g>
			<path class="st4" d="M209.2,347.3c-1.6,0-3.3,0-4.9,0c-0.3,0-0.3,0.5,0,0.5c1.6,0,3.3,0,4.9,0
				C209.5,347.8,209.5,347.3,209.2,347.3L209.2,347.3z"/>
		</g>
		<g>
			<path class="st4" d="M209.2,351.2c-1.6,0-3.3,0-4.9,0c-0.3,0-0.3,0.5,0,0.5c1.6,0,3.3,0,4.9,0
				C209.5,351.7,209.5,351.2,209.2,351.2L209.2,351.2z"/>
		</g>
		<g>
			<path class="st4" d="M209.2,353.2c-1.6,0-3.3,0-4.9,0c-0.3,0-0.3,0.5,0,0.5c1.6,0,3.3,0,4.9,0
				C209.5,353.7,209.5,353.2,209.2,353.2L209.2,353.2z"/>
		</g>
		<g>
			<path class="st4" d="M209.2,355.1c-1.6,0-3.3,0-4.9,0c-0.3,0-0.3,0.5,0,0.5c1.6,0,3.3,0,4.9,0
				C209.5,355.6,209.5,355.1,209.2,355.1L209.2,355.1z"/>
		</g>
		<g>
			<path class="st4" d="M213.1,359c-3,0-5.9,0-8.9,0c-0.3,0-0.3,0.5,0,0.5c3,0,5.9,0,8.9,0C213.5,359.5,213.5,359,213.1,359
				L213.1,359z"/>
		</g>
		<g>
			<path class="st4" d="M209.2,361c-1.6,0-3.3,0-4.9,0c-0.3,0-0.3,0.5,0,0.5c1.6,0,3.3,0,4.9,0C209.5,361.6,209.5,361,209.2,361
				L209.2,361z"/>
		</g>
		<g>
			<path class="st4" d="M209.2,363.1c-1.6,0-3.3,0-4.9,0c-0.3,0-0.3,0.5,0,0.5c1.6,0,3.3,0,4.9,0
				C209.5,363.6,209.5,363.1,209.2,363.1L209.2,363.1z"/>
		</g>
		<g>
			<path class="st4" d="M209.2,365.1c-1.6,0-3.3,0-4.9,0c-0.3,0-0.3,0.5,0,0.5c1.6,0,3.3,0,4.9,0
				C209.5,365.6,209.5,365.1,209.2,365.1L209.2,365.1z"/>
		</g>
		<g>
			<path class="st4" d="M209.2,376.7c-1.6,0-3.3,0-4.9,0c-0.3,0-0.3,0.5,0,0.5c1.6,0,3.3,0,4.9,0
				C209.5,377.2,209.5,376.7,209.2,376.7L209.2,376.7z"/>
		</g>
		<g>
			<path class="st4" d="M211.3,368.8c-2.3,0-4.7,0-7,0c-0.3,0-0.3,0.5,0,0.5c2.3,0,4.7,0,7,0C211.6,369.3,211.6,368.8,211.3,368.8
				L211.3,368.8z"/>
		</g>
		<g>
			<path class="st4" d="M213.1,378.5c-3,0-5.9,0-8.9,0c-0.3,0-0.3,0.5,0,0.5c3,0,5.9,0,8.9,0C213.5,379,213.5,378.5,213.1,378.5
				L213.1,378.5z"/>
		</g>
		<g>
			<path class="st4" d="M209.2,366.8c-1.6,0-3.3,0-4.9,0c-0.3,0-0.3,0.5,0,0.5c1.6,0,3.3,0,4.9,0
				C209.5,367.3,209.5,366.8,209.2,366.8L209.2,366.8z"/>
		</g>
		<g>
			<path class="st4" d="M209.2,370.7c-1.6,0-3.3,0-4.9,0c-0.3,0-0.3,0.5,0,0.5c1.6,0,3.3,0,4.9,0
				C209.5,371.2,209.5,370.7,209.2,370.7L209.2,370.7z"/>
		</g>
		<g>
			<path class="st4" d="M209.2,372.7c-1.6,0-3.3,0-4.9,0c-0.3,0-0.3,0.5,0,0.5c1.6,0,3.3,0,4.9,0
				C209.5,373.2,209.5,372.7,209.2,372.7L209.2,372.7z"/>
		</g>
		<g>
			<path class="st4" d="M209.2,374.6c-1.6,0-3.3,0-4.9,0c-0.3,0-0.3,0.5,0,0.5c1.6,0,3.3,0,4.9,0
				C209.5,375.1,209.5,374.6,209.2,374.6L209.2,374.6z"/>
		</g>
		<g>
			<path class="st4" d="M213.1,378.5c-3,0-5.9,0-8.9,0c-0.3,0-0.3,0.5,0,0.5c3,0,5.9,0,8.9,0C213.5,379,213.5,378.5,213.1,378.5
				L213.1,378.5z"/>
		</g>
		<g>
			<path class="st4" d="M209.2,380.5c-1.6,0-3.3,0-4.9,0c-0.3,0-0.3,0.5,0,0.5c1.6,0,3.3,0,4.9,0
				C209.5,381.1,209.5,380.5,209.2,380.5L209.2,380.5z"/>
		</g>
		<g>
			<path class="st4" d="M209.2,382.6c-1.6,0-3.3,0-4.9,0c-0.3,0-0.3,0.5,0,0.5c1.6,0,3.3,0,4.9,0
				C209.5,383.1,209.5,382.6,209.2,382.6L209.2,382.6z"/>
		</g>
		<g>
			<path class="st4" d="M209.2,384.6c-1.6,0-3.3,0-4.9,0c-0.3,0-0.3,0.5,0,0.5c1.6,0,3.3,0,4.9,0
				C209.5,385.1,209.5,384.6,209.2,384.6L209.2,384.6z"/>
		</g>
	</g>
	<g>
		<g>
			<path class="st4" d="M213.1,339.6c-3,0-5.9,0-8.9,0c-0.3,0-0.3,0.5,0,0.5c3,0,5.9,0,8.9,0C213.5,340.1,213.5,339.6,213.1,339.6
				L213.1,339.6z"/>
		</g>
		<g>
			<path class="st4" d="M209.2,341.6c-1.6,0-3.3,0-4.9,0c-0.3,0-0.3,0.5,0,0.5c1.6,0,3.3,0,4.9,0
				C209.5,342.1,209.5,341.6,209.2,341.6L209.2,341.6z"/>
		</g>
		<g>
			<path class="st4" d="M209.2,343.6c-1.6,0-3.3,0-4.9,0c-0.3,0-0.3,0.5,0,0.5c1.6,0,3.3,0,4.9,0
				C209.5,344.1,209.5,343.6,209.2,343.6L209.2,343.6z"/>
		</g>
		<g>
			<path class="st4" d="M209.2,345.6c-1.6,0-3.3,0-4.9,0c-0.3,0-0.3,0.5,0,0.5c1.6,0,3.3,0,4.9,0
				C209.5,346.1,209.5,345.6,209.2,345.6L209.2,345.6z"/>
		</g>
		<g>
			<path class="st4" d="M209.2,357.2c-1.6,0-3.3,0-4.9,0c-0.3,0-0.3,0.5,0,0.5c1.6,0,3.3,0,4.9,0
				C209.5,357.7,209.5,357.2,209.2,357.2L209.2,357.2z"/>
		</g>
		<g>
			<path class="st4" d="M211.3,349.4c-2.3,0-4.7,0-7,0c-0.3,0-0.3,0.5,0,0.5c2.3,0,4.7,0,7,0C211.6,349.9,211.6,349.4,211.3,349.4
				L211.3,349.4z"/>
		</g>
		<g>
			<path class="st4" d="M213.1,359.1c-3,0-5.9,0-8.9,0c-0.3,0-0.3,0.5,0,0.5c3,0,5.9,0,8.9,0C213.5,359.6,213.5,359.1,213.1,359.1
				L213.1,359.1z"/>
		</g>
		<g>
			<path class="st4" d="M209.2,347.3c-1.6,0-3.3,0-4.9,0c-0.3,0-0.3,0.5,0,0.5c1.6,0,3.3,0,4.9,0
				C209.5,347.8,209.5,347.3,209.2,347.3L209.2,347.3z"/>
		</g>
		<g>
			<path class="st4" d="M209.2,351.2c-1.6,0-3.3,0-4.9,0c-0.3,0-0.3,0.5,0,0.5c1.6,0,3.3,0,4.9,0
				C209.5,351.8,209.5,351.2,209.2,351.2L209.2,351.2z"/>
		</g>
		<g>
			<path class="st4" d="M209.2,353.2c-1.6,0-3.3,0-4.9,0c-0.3,0-0.3,0.5,0,0.5c1.6,0,3.3,0,4.9,0
				C209.5,353.7,209.5,353.2,209.2,353.2L209.2,353.2z"/>
		</g>
		<g>
			<path class="st4" d="M209.2,355.1c-1.6,0-3.3,0-4.9,0c-0.3,0-0.3,0.5,0,0.5c1.6,0,3.3,0,4.9,0
				C209.5,355.7,209.5,355.1,209.2,355.1L209.2,355.1z"/>
		</g>
		<g>
			<path class="st4" d="M213.1,359.1c-3,0-5.9,0-8.9,0c-0.3,0-0.3,0.5,0,0.5c3,0,5.9,0,8.9,0C213.5,359.6,213.5,359.1,213.1,359.1
				L213.1,359.1z"/>
		</g>
		<g>
			<path class="st4" d="M209.2,361.1c-1.6,0-3.3,0-4.9,0c-0.3,0-0.3,0.5,0,0.5c1.6,0,3.3,0,4.9,0
				C209.5,361.6,209.5,361.1,209.2,361.1L209.2,361.1z"/>
		</g>
		<g>
			<path class="st4" d="M209.2,363.1c-1.6,0-3.3,0-4.9,0c-0.3,0-0.3,0.5,0,0.5c1.6,0,3.3,0,4.9,0
				C209.5,363.6,209.5,363.1,209.2,363.1L209.2,363.1z"/>
		</g>
		<g>
			<path class="st4" d="M209.2,365.1c-1.6,0-3.3,0-4.9,0c-0.3,0-0.3,0.5,0,0.5c1.6,0,3.3,0,4.9,0
				C209.5,365.6,209.5,365.1,209.2,365.1L209.2,365.1z"/>
		</g>
		<g>
			<path class="st4" d="M209.2,376.7c-1.6,0-3.3,0-4.9,0c-0.3,0-0.3,0.5,0,0.5c1.6,0,3.3,0,4.9,0
				C209.5,377.2,209.5,376.7,209.2,376.7L209.2,376.7z"/>
		</g>
		<g>
			<path class="st4" d="M211.3,368.9c-2.3,0-4.7,0-7,0c-0.3,0-0.3,0.5,0,0.5c2.3,0,4.7,0,7,0C211.6,369.4,211.6,368.9,211.3,368.9
				L211.3,368.9z"/>
		</g>
		<g>
			<path class="st4" d="M213.1,378.6c-3,0-5.9,0-8.9,0c-0.3,0-0.3,0.5,0,0.5c3,0,5.9,0,8.9,0C213.5,379.1,213.5,378.6,213.1,378.6
				L213.1,378.6z"/>
		</g>
		<g>
			<path class="st4" d="M209.2,366.8c-1.6,0-3.3,0-4.9,0c-0.3,0-0.3,0.5,0,0.5c1.6,0,3.3,0,4.9,0
				C209.5,367.3,209.5,366.8,209.2,366.8L209.2,366.8z"/>
		</g>
		<g>
			<path class="st4" d="M209.2,370.7c-1.6,0-3.3,0-4.9,0c-0.3,0-0.3,0.5,0,0.5c1.6,0,3.3,0,4.9,0
				C209.5,371.3,209.5,370.7,209.2,370.7L209.2,370.7z"/>
		</g>
		<g>
			<path class="st4" d="M209.2,372.7c-1.6,0-3.3,0-4.9,0c-0.3,0-0.3,0.5,0,0.5c1.6,0,3.3,0,4.9,0
				C209.5,373.2,209.5,372.7,209.2,372.7L209.2,372.7z"/>
		</g>
		<g>
			<path class="st4" d="M209.2,374.6c-1.6,0-3.3,0-4.9,0c-0.3,0-0.3,0.5,0,0.5c1.6,0,3.3,0,4.9,0
				C209.5,375.2,209.5,374.6,209.2,374.6L209.2,374.6z"/>
		</g>
		<g>
			<path class="st4" d="M213.1,378.6c-3,0-5.9,0-8.9,0c-0.3,0-0.3,0.5,0,0.5c3,0,5.9,0,8.9,0C213.5,379.1,213.5,378.6,213.1,378.6
				L213.1,378.6z"/>
		</g>
		<g>
			<path class="st4" d="M209.2,380.6c-1.6,0-3.3,0-4.9,0c-0.3,0-0.3,0.5,0,0.5c1.6,0,3.3,0,4.9,0
				C209.5,381.1,209.5,380.6,209.2,380.6L209.2,380.6z"/>
		</g>
		<g>
			<path class="st4" d="M209.2,382.6c-1.6,0-3.3,0-4.9,0c-0.3,0-0.3,0.5,0,0.5c1.6,0,3.3,0,4.9,0
				C209.5,383.1,209.5,382.6,209.2,382.6L209.2,382.6z"/>
		</g>
		<g>
			<path class="st4" d="M209.2,384.6c-1.6,0-3.3,0-4.9,0c-0.3,0-0.3,0.5,0,0.5c1.6,0,3.3,0,4.9,0
				C209.5,385.1,209.5,384.6,209.2,384.6L209.2,384.6z"/>
		</g>
		<g>
			<path class="st4" d="M209.2,396.2c-1.6,0-3.3,0-4.9,0c-0.3,0-0.3,0.5,0,0.5c1.6,0,3.3,0,4.9,0
				C209.5,396.7,209.5,396.2,209.2,396.2L209.2,396.2z"/>
		</g>
		<g>
			<path class="st4" d="M211.3,388.4c-2.3,0-4.7,0-7,0c-0.3,0-0.3,0.5,0,0.5c2.3,0,4.7,0,7,0C211.6,388.9,211.6,388.4,211.3,388.4
				L211.3,388.4z"/>
		</g>
		<g>
			<path class="st4" d="M213.1,398.1c-3,0-5.9,0-8.9,0c-0.3,0-0.3,0.5,0,0.5c3,0,5.9,0,8.9,0C213.5,398.6,213.5,398.1,213.1,398.1
				L213.1,398.1z"/>
		</g>
		<g>
			<path class="st4" d="M209.2,386.3c-1.6,0-3.3,0-4.9,0c-0.3,0-0.3,0.5,0,0.5c1.6,0,3.3,0,4.9,0
				C209.5,386.8,209.5,386.3,209.2,386.3L209.2,386.3z"/>
		</g>
		<g>
			<path class="st4" d="M209.2,390.2c-1.6,0-3.3,0-4.9,0c-0.3,0-0.3,0.5,0,0.5c1.6,0,3.3,0,4.9,0
				C209.5,390.8,209.5,390.2,209.2,390.2L209.2,390.2z"/>
		</g>
		<g>
			<path class="st4" d="M209.2,392.2c-1.6,0-3.3,0-4.9,0c-0.3,0-0.3,0.5,0,0.5c1.6,0,3.3,0,4.9,0
				C209.5,392.7,209.5,392.2,209.2,392.2L209.2,392.2z"/>
		</g>
		<g>
			<path class="st4" d="M209.2,394.1c-1.6,0-3.3,0-4.9,0c-0.3,0-0.3,0.5,0,0.5c1.6,0,3.3,0,4.9,0
				C209.5,394.7,209.5,394.1,209.2,394.1L209.2,394.1z"/>
		</g>
		<g>
			<path class="st4" d="M213.1,398.1c-3,0-5.9,0-8.9,0c-0.3,0-0.3,0.5,0,0.5c3,0,5.9,0,8.9,0C213.5,398.6,213.5,398.1,213.1,398.1
				L213.1,398.1z"/>
		</g>
		<g>
			<path class="st4" d="M209.2,400.1c-1.6,0-3.3,0-4.9,0c-0.3,0-0.3,0.5,0,0.5c1.6,0,3.3,0,4.9,0
				C209.5,400.6,209.5,400.1,209.2,400.1L209.2,400.1z"/>
		</g>
		<g>
			<path class="st4" d="M209.2,402.1c-1.6,0-3.3,0-4.9,0c-0.3,0-0.3,0.5,0,0.5c1.6,0,3.3,0,4.9,0
				C209.5,402.6,209.5,402.1,209.2,402.1L209.2,402.1z"/>
		</g>
		<g>
			<path class="st4" d="M209.2,404.1c-1.6,0-3.3,0-4.9,0c-0.3,0-0.3,0.5,0,0.5c1.6,0,3.3,0,4.9,0
				C209.5,404.6,209.5,404.1,209.2,404.1L209.2,404.1z"/>
		</g>
		<g>
			<path class="st4" d="M209.2,415.7c-1.6,0-3.3,0-4.9,0c-0.3,0-0.3,0.5,0,0.5c1.6,0,3.3,0,4.9,0
				C209.5,416.2,209.5,415.7,209.2,415.7L209.2,415.7z"/>
		</g>
		<g>
			<path class="st4" d="M211.3,407.9c-2.3,0-4.7,0-7,0c-0.3,0-0.3,0.5,0,0.5c2.3,0,4.7,0,7,0C211.6,408.4,211.6,407.9,211.3,407.9
				L211.3,407.9z"/>
		</g>
		<g>
			<path class="st4" d="M213.1,417.6c-3,0-5.9,0-8.9,0c-0.3,0-0.3,0.5,0,0.5c3,0,5.9,0,8.9,0C213.5,418.1,213.5,417.6,213.1,417.6
				L213.1,417.6z"/>
		</g>
		<g>
			<path class="st4" d="M209.2,405.8c-1.6,0-3.3,0-4.9,0c-0.3,0-0.3,0.5,0,0.5c1.6,0,3.3,0,4.9,0
				C209.5,406.3,209.5,405.8,209.2,405.8L209.2,405.8z"/>
		</g>
		<g>
			<path class="st4" d="M209.2,409.7c-1.6,0-3.3,0-4.9,0c-0.3,0-0.3,0.5,0,0.5c1.6,0,3.3,0,4.9,0
				C209.5,410.3,209.5,409.7,209.2,409.7L209.2,409.7z"/>
		</g>
		<g>
			<path class="st4" d="M209.2,411.7c-1.6,0-3.3,0-4.9,0c-0.3,0-0.3,0.5,0,0.5c1.6,0,3.3,0,4.9,0
				C209.5,412.2,209.5,411.7,209.2,411.7L209.2,411.7z"/>
		</g>
		<g>
			<path class="st4" d="M209.2,413.6c-1.6,0-3.3,0-4.9,0c-0.3,0-0.3,0.5,0,0.5c1.6,0,3.3,0,4.9,0
				C209.5,414.2,209.5,413.6,209.2,413.6L209.2,413.6z"/>
		</g>
		<g>
			<path class="st4" d="M213.1,417.6c-3,0-5.9,0-8.9,0c-0.3,0-0.3,0.5,0,0.5c3,0,5.9,0,8.9,0C213.5,418.1,213.5,417.6,213.1,417.6
				L213.1,417.6z"/>
		</g>
		<g>
			<path class="st4" d="M209.2,419.6c-1.6,0-3.3,0-4.9,0c-0.3,0-0.3,0.5,0,0.5c1.6,0,3.3,0,4.9,0
				C209.5,420.1,209.5,419.6,209.2,419.6L209.2,419.6z"/>
		</g>
		<g>
			<path class="st4" d="M209.2,421.6c-1.6,0-3.3,0-4.9,0c-0.3,0-0.3,0.5,0,0.5c1.6,0,3.3,0,4.9,0
				C209.5,422.1,209.5,421.6,209.2,421.6L209.2,421.6z"/>
		</g>
		<g>
			<path class="st4" d="M209.2,423.6c-1.6,0-3.3,0-4.9,0c-0.3,0-0.3,0.5,0,0.5c1.6,0,3.3,0,4.9,0
				C209.5,424.1,209.5,423.6,209.2,423.6L209.2,423.6z"/>
		</g>
		<g>
			<path class="st4" d="M209.2,435.2c-1.6,0-3.3,0-4.9,0c-0.3,0-0.3,0.5,0,0.5c1.6,0,3.3,0,4.9,0
				C209.5,435.7,209.5,435.2,209.2,435.2L209.2,435.2z"/>
		</g>
		<g>
			<path class="st4" d="M211.3,427.3c-2.3,0-4.7,0-7,0c-0.3,0-0.3,0.5,0,0.5c2.3,0,4.7,0,7,0C211.6,427.9,211.6,427.3,211.3,427.3
				L211.3,427.3z"/>
		</g>
		<g>
			<path class="st4" d="M213.1,437.1c-3,0-5.9,0-8.9,0c-0.3,0-0.3,0.5,0,0.5c3,0,5.9,0,8.9,0C213.5,437.6,213.5,437.1,213.1,437.1
				L213.1,437.1z"/>
		</g>
		<g>
			<path class="st4" d="M209.2,425.3c-1.6,0-3.3,0-4.9,0c-0.3,0-0.3,0.5,0,0.5c1.6,0,3.3,0,4.9,0
				C209.5,425.8,209.5,425.3,209.2,425.3L209.2,425.3z"/>
		</g>
		<g>
			<path class="st4" d="M209.2,429.2c-1.6,0-3.3,0-4.9,0c-0.3,0-0.3,0.5,0,0.5c1.6,0,3.3,0,4.9,0
				C209.5,429.8,209.5,429.2,209.2,429.2L209.2,429.2z"/>
		</g>
		<g>
			<path class="st4" d="M209.2,431.2c-1.6,0-3.3,0-4.9,0c-0.3,0-0.3,0.5,0,0.5c1.6,0,3.3,0,4.9,0
				C209.5,431.7,209.5,431.2,209.2,431.2L209.2,431.2z"/>
		</g>
		<g>
			<path class="st4" d="M209.2,433.1c-1.6,0-3.3,0-4.9,0c-0.3,0-0.3,0.5,0,0.5c1.6,0,3.3,0,4.9,0
				C209.5,433.7,209.5,433.1,209.2,433.1L209.2,433.1z"/>
		</g>
		<g>
			<path class="st4" d="M213.1,437.1c-3,0-5.9,0-8.9,0c-0.3,0-0.3,0.5,0,0.5c3,0,5.9,0,8.9,0C213.5,437.6,213.5,437.1,213.1,437.1
				L213.1,437.1z"/>
		</g>
		<g>
			<path class="st4" d="M209.2,439.1c-1.6,0-3.3,0-4.9,0c-0.3,0-0.3,0.5,0,0.5c1.6,0,3.3,0,4.9,0
				C209.5,439.6,209.5,439.1,209.2,439.1L209.2,439.1z"/>
		</g>
		<g>
			<path class="st4" d="M209.2,441.1c-1.6,0-3.3,0-4.9,0c-0.3,0-0.3,0.5,0,0.5c1.6,0,3.3,0,4.9,0
				C209.5,441.6,209.5,441.1,209.2,441.1L209.2,441.1z"/>
		</g>
		<g>
			<path class="st4" d="M209.2,443.1c-1.6,0-3.3,0-4.9,0c-0.3,0-0.3,0.5,0,0.5c1.6,0,3.3,0,4.9,0
				C209.5,443.6,209.5,443.1,209.2,443.1L209.2,443.1z"/>
		</g>
		<g>
			<path class="st4" d="M209.2,444.8c-1.6,0-3.3,0-4.9,0c-0.3,0-0.3,0.5,0,0.5c1.6,0,3.3,0,4.9,0
				C209.5,445.3,209.5,444.8,209.2,444.8L209.2,444.8z"/>
		</g>
	</g>
	<path class="st3" d="M331.3,90.6l-72.7-29.3l2.7-7.5l73.5,29.6c-0.6,1.2-1.2,2.4-1.8,3.7C332.5,88.3,331.9,89.5,331.3,90.6z"/>
	<g>
		<g>
			<path class="st4" d="M261.1,55.1c-0.7,2.1-1.5,4.2-2.2,6.3c-0.1,0.2,0.3,0.4,0.3,0.1c0.7-2.1,1.5-4.2,2.2-6.3
				C261.5,55,261.1,54.8,261.1,55.1L261.1,55.1z"/>
		</g>
		<g>
			<path class="st4" d="M261.4,58.4c-0.4,1.2-0.8,2.3-1.2,3.5c-0.1,0.2,0.3,0.4,0.3,0.1c0.4-1.2,0.8-2.3,1.2-3.5
				C261.9,58.3,261.5,58.2,261.4,58.4L261.4,58.4z"/>
		</g>
		<g>
			<path class="st4" d="M262.8,58.9c-0.4,1.2-0.8,2.3-1.2,3.5c-0.1,0.2,0.3,0.4,0.3,0.1c0.4-1.2,0.8-2.3,1.2-3.5
				C263.2,58.8,262.9,58.7,262.8,58.9L262.8,58.9z"/>
		</g>
		<g>
			<path class="st4" d="M264.1,59.5c-0.4,1.2-0.8,2.3-1.2,3.5c-0.1,0.2,0.3,0.4,0.3,0.1c0.4-1.2,0.8-2.3,1.2-3.5
				C264.6,59.4,264.2,59.2,264.1,59.5L264.1,59.5z"/>
		</g>
		<g>
			<path class="st4" d="M271.9,62.5c-0.4,1.2-0.8,2.3-1.2,3.5c-0.1,0.2,0.3,0.4,0.3,0.1c0.4-1.2,0.8-2.3,1.2-3.5
				C272.4,62.4,272,62.3,271.9,62.5L271.9,62.5z"/>
		</g>
		<g>
			<path class="st4" d="M267.2,58.9c-0.6,1.7-1.2,3.3-1.8,5c-0.1,0.2,0.3,0.4,0.3,0.1c0.6-1.7,1.2-3.3,1.8-5
				C267.6,58.8,267.3,58.7,267.2,58.9L267.2,58.9z"/>
		</g>
		<g>
			<path class="st4" d="M274.2,60.2c-0.7,2.1-1.5,4.2-2.2,6.3c-0.1,0.2,0.3,0.4,0.3,0.1c0.7-2.1,1.5-4.2,2.2-6.3
				C274.6,60.1,274.2,60,274.2,60.2L274.2,60.2z"/>
		</g>
		<g>
			<path class="st4" d="M265.3,59.9c-0.4,1.2-0.8,2.3-1.2,3.5c-0.1,0.2,0.3,0.4,0.3,0.1c0.4-1.2,0.8-2.3,1.2-3.5
				C265.7,59.8,265.4,59.7,265.3,59.9L265.3,59.9z"/>
		</g>
		<g>
			<path class="st4" d="M267.9,61c-0.4,1.2-0.8,2.3-1.2,3.5c-0.1,0.2,0.3,0.4,0.3,0.1c0.4-1.2,0.8-2.3,1.2-3.5
				C268.3,60.9,268,60.7,267.9,61L267.9,61z"/>
		</g>
		<g>
			<path class="st4" d="M269.3,61.5c-0.4,1.2-0.8,2.3-1.2,3.5c-0.1,0.2,0.3,0.4,0.3,0.1c0.4-1.2,0.8-2.3,1.2-3.5
				C269.7,61.4,269.3,61.2,269.3,61.5L269.3,61.5z"/>
		</g>
		<g>
			<path class="st4" d="M270.5,62c-0.4,1.2-0.8,2.3-1.2,3.5c-0.1,0.2,0.3,0.4,0.3,0.1c0.4-1.2,0.8-2.3,1.2-3.5
				C271,61.9,270.6,61.8,270.5,62L270.5,62z"/>
		</g>
		<g>
			<path class="st4" d="M274.2,60.2c-0.7,2.1-1.5,4.2-2.2,6.3c-0.1,0.2,0.3,0.4,0.3,0.1c0.7-2.1,1.5-4.2,2.2-6.3
				C274.6,60.1,274.2,60,274.2,60.2L274.2,60.2z"/>
		</g>
		<g>
			<path class="st4" d="M274.5,63.6c-0.4,1.2-0.8,2.3-1.2,3.5c-0.1,0.2,0.3,0.4,0.3,0.1c0.4-1.2,0.8-2.3,1.2-3.5
				C275,63.5,274.6,63.3,274.5,63.6L274.5,63.6z"/>
		</g>
		<g>
			<path class="st4" d="M275.9,64.1c-0.4,1.2-0.8,2.3-1.2,3.5c-0.1,0.2,0.3,0.4,0.3,0.1c0.4-1.2,0.8-2.3,1.2-3.5
				C276.3,64,276,63.9,275.9,64.1L275.9,64.1z"/>
		</g>
		<g>
			<path class="st4" d="M277.2,64.6c-0.4,1.2-0.8,2.3-1.2,3.5c-0.1,0.2,0.3,0.4,0.3,0.1c0.4-1.2,0.8-2.3,1.2-3.5
				C277.7,64.5,277.3,64.4,277.2,64.6L277.2,64.6z"/>
		</g>
		<g>
			<path class="st4" d="M285,67.7c-0.4,1.2-0.8,2.3-1.2,3.5c-0.1,0.2,0.3,0.4,0.3,0.1c0.4-1.2,0.8-2.3,1.2-3.5
				C285.5,67.6,285.1,67.5,285,67.7L285,67.7z"/>
		</g>
		<g>
			<path class="st4" d="M280.3,64.1c-0.6,1.7-1.2,3.3-1.8,5c-0.1,0.2,0.3,0.4,0.3,0.1c0.6-1.7,1.2-3.3,1.8-5
				C280.7,64,280.4,63.9,280.3,64.1L280.3,64.1z"/>
		</g>
		<g>
			<path class="st4" d="M287.3,65.4c-0.7,2.1-1.5,4.2-2.2,6.3c-0.1,0.2,0.3,0.4,0.3,0.1c0.7-2.1,1.5-4.2,2.2-6.3
				C287.7,65.3,287.3,65.2,287.3,65.4L287.3,65.4z"/>
		</g>
		<g>
			<path class="st4" d="M278.4,65.1c-0.4,1.2-0.8,2.3-1.2,3.5c-0.1,0.2,0.3,0.4,0.3,0.1c0.4-1.2,0.8-2.3,1.2-3.5
				C278.8,65,278.5,64.9,278.4,65.1L278.4,65.1z"/>
		</g>
		<g>
			<path class="st4" d="M281,66.1c-0.4,1.2-0.8,2.3-1.2,3.5c-0.1,0.2,0.3,0.4,0.3,0.1c0.4-1.2,0.8-2.3,1.2-3.5
				C281.4,66,281.1,65.9,281,66.1L281,66.1z"/>
		</g>
		<g>
			<path class="st4" d="M282.4,66.6c-0.4,1.2-0.8,2.3-1.2,3.5c-0.1,0.2,0.3,0.4,0.3,0.1c0.4-1.2,0.8-2.3,1.2-3.5
				C282.8,66.5,282.4,66.4,282.4,66.6L282.4,66.6z"/>
		</g>
		<g>
			<path class="st4" d="M283.6,67.2c-0.4,1.2-0.8,2.3-1.2,3.5c-0.1,0.2,0.3,0.4,0.3,0.1c0.4-1.2,0.8-2.3,1.2-3.5
				C284.1,67.1,283.7,66.9,283.6,67.2L283.6,67.2z"/>
		</g>
		<g>
			<path class="st4" d="M287.3,65.4c-0.7,2.1-1.5,4.2-2.2,6.3c-0.1,0.2,0.3,0.4,0.3,0.1c0.7-2.1,1.5-4.2,2.2-6.3
				C287.7,65.3,287.3,65.2,287.3,65.4L287.3,65.4z"/>
		</g>
		<g>
			<path class="st4" d="M287.6,68.8c-0.4,1.2-0.8,2.3-1.2,3.5c-0.1,0.2,0.3,0.4,0.3,0.1c0.4-1.2,0.8-2.3,1.2-3.5
				C288.1,68.7,287.7,68.5,287.6,68.8L287.6,68.8z"/>
		</g>
		<g>
			<path class="st4" d="M289,69.3c-0.4,1.2-0.8,2.3-1.2,3.5c-0.1,0.2,0.3,0.4,0.3,0.1c0.4-1.2,0.8-2.3,1.2-3.5
				C289.4,69.2,289.1,69.1,289,69.3L289,69.3z"/>
		</g>
		<g>
			<path class="st4" d="M290.3,69.8c-0.4,1.2-0.8,2.3-1.2,3.5c-0.1,0.2,0.3,0.4,0.3,0.1c0.4-1.2,0.8-2.3,1.2-3.5
				C290.8,69.7,290.4,69.6,290.3,69.8L290.3,69.8z"/>
		</g>
		<g>
			<path class="st4" d="M298.1,72.9c-0.4,1.2-0.8,2.3-1.2,3.5c-0.1,0.2,0.3,0.4,0.3,0.1c0.4-1.2,0.8-2.3,1.2-3.5
				C298.6,72.8,298.2,72.7,298.1,72.9L298.1,72.9z"/>
		</g>
		<g>
			<path class="st4" d="M293.4,69.3c-0.6,1.7-1.2,3.3-1.8,5c-0.1,0.2,0.3,0.4,0.3,0.1c0.6-1.7,1.2-3.3,1.8-5
				C293.8,69.2,293.5,69.1,293.4,69.3L293.4,69.3z"/>
		</g>
		<g>
			<path class="st4" d="M300.4,70.6c-0.7,2.1-1.5,4.2-2.2,6.3c-0.1,0.2,0.3,0.4,0.3,0.1c0.7-2.1,1.5-4.2,2.2-6.3
				C300.8,70.5,300.4,70.4,300.4,70.6L300.4,70.6z"/>
		</g>
		<g>
			<path class="st4" d="M291.5,70.3c-0.4,1.2-0.8,2.3-1.2,3.5c-0.1,0.2,0.3,0.4,0.3,0.1c0.4-1.2,0.8-2.3,1.2-3.5
				C291.9,70.2,291.6,70,291.5,70.3L291.5,70.3z"/>
		</g>
		<g>
			<path class="st4" d="M294.1,71.3c-0.4,1.2-0.8,2.3-1.2,3.5c-0.1,0.2,0.3,0.4,0.3,0.1c0.4-1.2,0.8-2.3,1.2-3.5
				C294.5,71.2,294.2,71.1,294.1,71.3L294.1,71.3z"/>
		</g>
		<g>
			<path class="st4" d="M295.4,71.8c-0.4,1.2-0.8,2.3-1.2,3.5c-0.1,0.2,0.3,0.4,0.3,0.1c0.4-1.2,0.8-2.3,1.2-3.5
				C295.9,71.7,295.5,71.6,295.4,71.8L295.4,71.8z"/>
		</g>
		<g>
			<path class="st4" d="M296.7,72.4c-0.4,1.2-0.8,2.3-1.2,3.5c-0.1,0.2,0.3,0.4,0.3,0.1c0.4-1.2,0.8-2.3,1.2-3.5
				C297.2,72.3,296.8,72.1,296.7,72.4L296.7,72.4z"/>
		</g>
		<g>
			<path class="st4" d="M300.4,70.6c-0.7,2.1-1.5,4.2-2.2,6.3c-0.1,0.2,0.3,0.4,0.3,0.1c0.7-2.1,1.5-4.2,2.2-6.3
				C300.8,70.5,300.4,70.4,300.4,70.6L300.4,70.6z"/>
		</g>
		<g>
			<path class="st4" d="M300.7,73.9c-0.4,1.2-0.8,2.3-1.2,3.5c-0.1,0.2,0.3,0.4,0.3,0.1c0.4-1.2,0.8-2.3,1.2-3.5
				C301.2,73.8,300.8,73.7,300.7,73.9L300.7,73.9z"/>
		</g>
		<g>
			<path class="st4" d="M302.1,74.5c-0.4,1.2-0.8,2.3-1.2,3.5c-0.1,0.2,0.3,0.4,0.3,0.1c0.4-1.2,0.8-2.3,1.2-3.5
				C302.5,74.4,302.2,74.2,302.1,74.5L302.1,74.5z"/>
		</g>
		<g>
			<path class="st4" d="M303.4,75c-0.4,1.2-0.8,2.3-1.2,3.5c-0.1,0.2,0.3,0.4,0.3,0.1c0.4-1.2,0.8-2.3,1.2-3.5
				C303.9,74.9,303.5,74.8,303.4,75L303.4,75z"/>
		</g>
		<g>
			<path class="st4" d="M311.2,78.1c-0.4,1.2-0.8,2.3-1.2,3.5c-0.1,0.2,0.3,0.4,0.3,0.1c0.4-1.2,0.8-2.3,1.2-3.5
				C311.7,78,311.3,77.9,311.2,78.1L311.2,78.1z"/>
		</g>
		<g>
			<path class="st4" d="M306.5,74.5c-0.6,1.7-1.2,3.3-1.8,5c-0.1,0.2,0.3,0.4,0.3,0.1c0.6-1.7,1.2-3.3,1.8-5
				C306.9,74.4,306.6,74.3,306.5,74.5L306.5,74.5z"/>
		</g>
		<g>
			<path class="st4" d="M313.5,75.8c-0.7,2.1-1.5,4.2-2.2,6.3c-0.1,0.2,0.3,0.4,0.3,0.1c0.7-2.1,1.5-4.2,2.2-6.3
				C313.9,75.7,313.5,75.5,313.5,75.8L313.5,75.8z"/>
		</g>
		<g>
			<path class="st4" d="M304.6,75.5c-0.4,1.2-0.8,2.3-1.2,3.5c-0.1,0.2,0.3,0.4,0.3,0.1c0.4-1.2,0.8-2.3,1.2-3.5
				C305,75.4,304.7,75.2,304.6,75.5L304.6,75.5z"/>
		</g>
		<g>
			<path class="st4" d="M307.2,76.5c-0.4,1.2-0.8,2.3-1.2,3.5c-0.1,0.2,0.3,0.4,0.3,0.1c0.4-1.2,0.8-2.3,1.2-3.5
				C307.6,76.4,307.3,76.3,307.2,76.5L307.2,76.5z"/>
		</g>
		<g>
			<path class="st4" d="M308.5,77c-0.4,1.2-0.8,2.3-1.2,3.5c-0.1,0.2,0.3,0.4,0.3,0.1c0.4-1.2,0.8-2.3,1.2-3.5
				C309,76.9,308.6,76.8,308.5,77L308.5,77z"/>
		</g>
		<g>
			<path class="st4" d="M309.8,77.5c-0.4,1.2-0.8,2.3-1.2,3.5c-0.1,0.2,0.3,0.4,0.3,0.1c0.4-1.2,0.8-2.3,1.2-3.5
				C310.3,77.4,309.9,77.3,309.8,77.5L309.8,77.5z"/>
		</g>
		<g>
			<path class="st4" d="M313.5,75.8c-0.7,2.1-1.5,4.2-2.2,6.3c-0.1,0.2,0.3,0.4,0.3,0.1c0.7-2.1,1.5-4.2,2.2-6.3
				C313.9,75.7,313.5,75.5,313.5,75.8L313.5,75.8z"/>
		</g>
		<g>
			<path class="st4" d="M313.8,79.1c-0.4,1.2-0.8,2.3-1.2,3.5c-0.1,0.2,0.3,0.4,0.3,0.1c0.4-1.2,0.8-2.3,1.2-3.5
				C314.3,79,313.9,78.9,313.8,79.1L313.8,79.1z"/>
		</g>
		<g>
			<path class="st4" d="M315.2,79.7c-0.4,1.2-0.8,2.3-1.2,3.5c-0.1,0.2,0.3,0.4,0.3,0.1c0.4-1.2,0.8-2.3,1.2-3.5
				C315.6,79.6,315.3,79.4,315.2,79.7L315.2,79.7z"/>
		</g>
		<g>
			<path class="st4" d="M316.5,80.2c-0.4,1.2-0.8,2.3-1.2,3.5c-0.1,0.2,0.3,0.4,0.3,0.1c0.4-1.2,0.8-2.3,1.2-3.5
				C317,80.1,316.6,80,316.5,80.2L316.5,80.2z"/>
		</g>
		<g>
			<path class="st4" d="M324.3,83.3c-0.4,1.2-0.8,2.3-1.2,3.5c-0.1,0.2,0.3,0.4,0.3,0.1c0.4-1.2,0.8-2.3,1.2-3.5
				C324.8,83.2,324.4,83,324.3,83.3L324.3,83.3z"/>
		</g>
		<g>
			<path class="st4" d="M319.6,79.7c-0.6,1.7-1.2,3.3-1.8,5c-0.1,0.2,0.3,0.4,0.3,0.1c0.6-1.7,1.2-3.3,1.8-5
				C320,79.6,319.7,79.4,319.6,79.7L319.6,79.7z"/>
		</g>
		<g>
			<path class="st4" d="M326.6,81c-0.7,2.1-1.5,4.2-2.2,6.3c-0.1,0.2,0.3,0.4,0.3,0.1c0.7-2.1,1.5-4.2,2.2-6.3
				C327,80.9,326.6,80.7,326.6,81L326.6,81z"/>
		</g>
		<g>
			<path class="st4" d="M317.7,80.6c-0.4,1.2-0.8,2.3-1.2,3.5c-0.1,0.2,0.3,0.4,0.3,0.1c0.4-1.2,0.8-2.3,1.2-3.5
				C318.1,80.5,317.8,80.4,317.7,80.6L317.7,80.6z"/>
		</g>
		<g>
			<path class="st4" d="M320.3,81.7c-0.4,1.2-0.8,2.3-1.2,3.5c-0.1,0.2,0.3,0.4,0.3,0.1c0.4-1.2,0.8-2.3,1.2-3.5
				C320.7,81.6,320.4,81.4,320.3,81.7L320.3,81.7z"/>
		</g>
		<g>
			<path class="st4" d="M321.6,82.2c-0.4,1.2-0.8,2.3-1.2,3.5c-0.1,0.2,0.3,0.4,0.3,0.1c0.4-1.2,0.8-2.3,1.2-3.5
				C322.1,82.1,321.7,82,321.6,82.2L321.6,82.2z"/>
		</g>
		<g>
			<path class="st4" d="M322.9,82.7c-0.4,1.2-0.8,2.3-1.2,3.5c-0.1,0.2,0.3,0.4,0.3,0.1c0.4-1.2,0.8-2.3,1.2-3.5
				C323.4,82.6,323,82.5,322.9,82.7L322.9,82.7z"/>
		</g>
		<g>
			<path class="st4" d="M326.6,81c-0.7,2.1-1.5,4.2-2.2,6.3c-0.1,0.2,0.3,0.4,0.3,0.1c0.7-2.1,1.5-4.2,2.2-6.3
				C327,80.9,326.6,80.7,326.6,81L326.6,81z"/>
		</g>
		<g>
			<path class="st4" d="M326.9,84.3c-0.4,1.2-0.8,2.3-1.2,3.5c-0.1,0.2,0.3,0.4,0.3,0.1c0.4-1.2,0.8-2.3,1.2-3.5
				C327.3,84.2,327,84.1,326.9,84.3L326.9,84.3z"/>
		</g>
		<g>
			<path class="st4" d="M328.3,84.8c-0.4,1.2-0.8,2.3-1.2,3.5c-0.1,0.2,0.3,0.4,0.3,0.1c0.4-1.2,0.8-2.3,1.2-3.5
				C328.7,84.7,328.4,84.6,328.3,84.8L328.3,84.8z"/>
		</g>
		<g>
			<path class="st4" d="M329.6,85.4c-0.4,1.2-0.8,2.3-1.2,3.5c-0.1,0.2,0.3,0.4,0.3,0.1c0.4-1.2,0.8-2.3,1.2-3.5
				C330.1,85.3,329.7,85.1,329.6,85.4L329.6,85.4z"/>
		</g>
		<g>
			<path class="st4" d="M332.7,84.9c-0.6,1.7-1.2,3.3-1.8,5c-0.1,0.2,0.3,0.4,0.3,0.1c0.6-1.7,1.2-3.3,1.8-5
				C333.1,84.8,332.8,84.6,332.7,84.9L332.7,84.9z"/>
		</g>
		<g>
			<path class="st4" d="M330.8,85.8c-0.4,1.2-0.8,2.3-1.2,3.5c-0.1,0.2,0.3,0.4,0.3,0.1c0.4-1.2,0.8-2.3,1.2-3.5
				C331.2,85.7,330.9,85.6,330.8,85.8L330.8,85.8z"/>
		</g>
	</g>
	<text transform="matrix(1 0 0 1 298.4874 61.2613)" class="st5 st6 st7">E</text>
	<text transform="matrix(1 0 0 1 164.5531 253.9045)" class="st5 st6 st7">F</text>
	<rect x="311.5" y="43.4" class="st8" width="62.4" height="25.5"/>
	<rect x="175.7" y="235.6" class="st9" width="62.4" height="25.5"/>
</g>
</svg>
