<?xml version="1.0" encoding="utf-8"?>
<!-- Generator: Adobe Illustrator 28.0.0, SVG Export Plug-In . SVG Version: 6.00 Build 0)  -->
<svg version="1.1" id="Layer_1" xmlns="http://www.w3.org/2000/svg" xmlns:xlink="http://www.w3.org/1999/xlink" x="0px" y="0px"
	 viewBox="0 0 410.5 484.8" style="enable-background:new 0 0 410.5 484.8;" xml:space="preserve">
<style type="text/css">
	.st0{fill:none;stroke:#000000;stroke-width:0.7637;stroke-miterlimit:10;}
	.st1{fill:#FFFFFF;stroke:#000000;stroke-width:0.7637;stroke-miterlimit:10;}
	.st2{fill:#FFF200;}
	.st3{fill:#BE1E2D;}
	.st4{fill:none;stroke:#ED1C24;stroke-width:0.3548;stroke-miterlimit:10;}
	.st5{fill:#E81E25;}
	.st6{font-family:'AmericanTypewriter-Semibold';}
	.st7{font-size:20.8223px;}
	.st8{fill:#FFFFFF;stroke:#F7941D;stroke-width:2.2133;stroke-miterlimit:10;}
	.st9{fill:none;stroke:#F7941D;stroke-width:2.3551;stroke-miterlimit:10;}
</style>
<path class="st0" d="M74.9,448.4C64,337.9,79.7,228.2,79.7,228.2c-13-52.6,2.3-115.8,23.6-145c0,0-28.2-12.8-41.1-15.8"/>
<path class="st1" d="M270.9,434.7c0,0,20.4-0.8,49.8-25.9c-13.1-22.9-36.1-102.6-217.4-325.6c0,0-42.2,60.6-23.6,145
	C155.9,300.9,270.9,434.7,270.9,434.7z"/>
<path class="st2" d="M172.8,170.9l-76.4,73.4l-7.2-7.5l77.3-74.3c1.1,1.4,2.2,2.8,3.2,4.2C170.7,168.2,171.8,169.6,172.8,170.9z"/>
<g>
	<g>
		<path class="st3" d="M90.4,237.9c2,2.1,4,4.1,6,6.2c0.2,0.2,0.6-0.1,0.4-0.4c-2-2.1-4-4.1-6-6.2C90.6,237.3,90.2,237.6,90.4,237.9
			L90.4,237.9z"/>
	</g>
	<g>
		<path class="st3" d="M94.5,239.3c1.1,1.1,2.2,2.3,3.3,3.4c0.2,0.2,0.6-0.1,0.4-0.4c-1.1-1.1-2.2-2.3-3.3-3.4
			C94.7,238.7,94.3,239,94.5,239.3L94.5,239.3z"/>
	</g>
	<g>
		<path class="st3" d="M96,237.9c1.1,1.1,2.2,2.3,3.3,3.4c0.2,0.2,0.6-0.1,0.4-0.4c-1.1-1.1-2.2-2.3-3.3-3.4
			C96.1,237.3,95.7,237.6,96,237.9L96,237.9z"/>
	</g>
	<g>
		<path class="st3" d="M97.4,236.5c1.1,1.1,2.2,2.3,3.3,3.4c0.2,0.2,0.6-0.1,0.4-0.4c-1.1-1.1-2.2-2.3-3.3-3.4
			C97.5,235.9,97.1,236.3,97.4,236.5L97.4,236.5z"/>
	</g>
	<g>
		<path class="st3" d="M105.5,228.6c1.1,1.1,2.2,2.3,3.3,3.4c0.2,0.2,0.6-0.1,0.4-0.4c-1.1-1.1-2.2-2.3-3.3-3.4
			C105.6,228,105.3,228.4,105.5,228.6L105.5,228.6z"/>
	</g>
	<g>
		<path class="st3" d="M98.5,232.5c1.6,1.6,3.2,3.3,4.8,4.9c0.2,0.2,0.6-0.1,0.4-0.4c-1.6-1.6-3.2-3.3-4.8-4.9
			C98.7,231.9,98.3,232.2,98.5,232.5L98.5,232.5z"/>
	</g>
	<g>
		<path class="st3" d="M104.1,224.6c2,2.1,4,4.1,6,6.2c0.2,0.2,0.6-0.1,0.4-0.4c-2-2.1-4-4.1-6-6.2
			C104.2,224,103.8,224.3,104.1,224.6L104.1,224.6z"/>
	</g>
	<g>
		<path class="st3" d="M98.6,235.4c1.1,1.1,2.2,2.3,3.3,3.4c0.2,0.2,0.6-0.1,0.4-0.4c-1.1-1.1-2.2-2.3-3.3-3.4
			C98.7,234.8,98.3,235.1,98.6,235.4L98.6,235.4z"/>
	</g>
	<g>
		<path class="st3" d="M101.3,232.7c1.1,1.1,2.2,2.3,3.3,3.4c0.2,0.2,0.6-0.1,0.4-0.4c-1.1-1.1-2.2-2.3-3.3-3.4
			C101.4,232.1,101.1,232.4,101.3,232.7L101.3,232.7z"/>
	</g>
	<g>
		<path class="st3" d="M102.7,231.3c1.1,1.1,2.2,2.3,3.3,3.4c0.2,0.2,0.6-0.1,0.4-0.4c-1.1-1.1-2.2-2.3-3.3-3.4
			C102.8,230.7,102.4,231.1,102.7,231.3L102.7,231.3z"/>
	</g>
	<g>
		<path class="st3" d="M104,230c1.1,1.1,2.2,2.3,3.3,3.4c0.2,0.2,0.6-0.1,0.4-0.4c-1.1-1.1-2.2-2.3-3.3-3.4
			C104.2,229.4,103.8,229.8,104,230L104,230z"/>
	</g>
	<g>
		<path class="st3" d="M104.1,224.6c2,2.1,4,4.1,6,6.2c0.2,0.2,0.6-0.1,0.4-0.4c-2-2.1-4-4.1-6-6.2
			C104.2,224,103.8,224.3,104.1,224.6L104.1,224.6z"/>
	</g>
	<g>
		<path class="st3" d="M108.2,226c1.1,1.1,2.2,2.3,3.3,3.4c0.2,0.2,0.6-0.1,0.4-0.4c-1.1-1.1-2.2-2.3-3.3-3.4
			C108.3,225.4,108,225.7,108.2,226L108.2,226z"/>
	</g>
	<g>
		<path class="st3" d="M109.6,224.6c1.1,1.1,2.2,2.3,3.3,3.4c0.2,0.2,0.6-0.1,0.4-0.4c-1.1-1.1-2.2-2.3-3.3-3.4
			C109.7,224,109.4,224.4,109.6,224.6L109.6,224.6z"/>
	</g>
	<g>
		<path class="st3" d="M111,223.2c1.1,1.1,2.2,2.3,3.3,3.4c0.2,0.2,0.6-0.1,0.4-0.4c-1.1-1.1-2.2-2.3-3.3-3.4
			C111.2,222.6,110.8,223,111,223.2L111,223.2z"/>
	</g>
	<g>
		<path class="st3" d="M119.1,215.3c1.1,1.1,2.2,2.3,3.3,3.4c0.2,0.2,0.6-0.1,0.4-0.4c-1.1-1.1-2.2-2.3-3.3-3.4
			C119.3,214.7,118.9,215.1,119.1,215.3L119.1,215.3z"/>
	</g>
	<g>
		<path class="st3" d="M112.2,219.2c1.6,1.6,3.2,3.3,4.8,4.9c0.2,0.2,0.6-0.1,0.4-0.4c-1.6-1.6-3.2-3.3-4.8-4.9
			C112.3,218.6,111.9,219,112.2,219.2L112.2,219.2z"/>
	</g>
	<g>
		<path class="st3" d="M117.7,211.3c2,2.1,4,4.1,6,6.2c0.2,0.2,0.6-0.1,0.4-0.4c-2-2.1-4-4.1-6-6.2
			C117.9,210.7,117.5,211.1,117.7,211.3L117.7,211.3z"/>
	</g>
	<g>
		<path class="st3" d="M112.2,222.1c1.1,1.1,2.2,2.3,3.3,3.4c0.2,0.2,0.6-0.1,0.4-0.4c-1.1-1.1-2.2-2.3-3.3-3.4
			C112.3,221.5,112,221.8,112.2,222.1L112.2,222.1z"/>
	</g>
	<g>
		<path class="st3" d="M115,219.4c1.1,1.1,2.2,2.3,3.3,3.4c0.2,0.2,0.6-0.1,0.4-0.4c-1.1-1.1-2.2-2.3-3.3-3.4
			C115.1,218.8,114.7,219.2,115,219.4L115,219.4z"/>
	</g>
	<g>
		<path class="st3" d="M116.3,218c1.1,1.1,2.2,2.3,3.3,3.4c0.2,0.2,0.6-0.1,0.4-0.4c-1.1-1.1-2.2-2.3-3.3-3.4
			C116.5,217.4,116.1,217.8,116.3,218L116.3,218z"/>
	</g>
	<g>
		<path class="st3" d="M117.7,216.7c1.1,1.1,2.2,2.3,3.3,3.4c0.2,0.2,0.6-0.1,0.4-0.4c-1.1-1.1-2.2-2.3-3.3-3.4
			C117.8,216.2,117.5,216.5,117.7,216.7L117.7,216.7z"/>
	</g>
	<g>
		<path class="st3" d="M117.7,211.3c2,2.1,4,4.1,6,6.2c0.2,0.2,0.6-0.1,0.4-0.4c-2-2.1-4-4.1-6-6.2
			C117.9,210.7,117.5,211.1,117.7,211.3L117.7,211.3z"/>
	</g>
	<g>
		<path class="st3" d="M121.8,212.7c1.1,1.1,2.2,2.3,3.3,3.4c0.2,0.2,0.6-0.1,0.4-0.4c-1.1-1.1-2.2-2.3-3.3-3.4
			C122,212.1,121.6,212.5,121.8,212.7L121.8,212.7z"/>
	</g>
	<g>
		<path class="st3" d="M123.3,211.3c1.1,1.1,2.2,2.3,3.3,3.4c0.2,0.2,0.6-0.1,0.4-0.4c-1.1-1.1-2.2-2.3-3.3-3.4
			C123.4,210.7,123,211.1,123.3,211.3L123.3,211.3z"/>
	</g>
	<g>
		<path class="st3" d="M124.7,209.9c1.1,1.1,2.2,2.3,3.3,3.4c0.2,0.2,0.6-0.1,0.4-0.4c-1.1-1.1-2.2-2.3-3.3-3.4
			C124.8,209.3,124.4,209.7,124.7,209.9L124.7,209.9z"/>
	</g>
	<g>
		<path class="st3" d="M132.8,202c1.1,1.1,2.2,2.3,3.3,3.4c0.2,0.2,0.6-0.1,0.4-0.4c-1.1-1.1-2.2-2.3-3.3-3.4
			C132.9,201.5,132.6,201.8,132.8,202L132.8,202z"/>
	</g>
	<g>
		<path class="st3" d="M125.8,205.9c1.6,1.6,3.2,3.3,4.8,4.9c0.2,0.2,0.6-0.1,0.4-0.4c-1.6-1.6-3.2-3.3-4.8-4.9
			C126,205.3,125.6,205.7,125.8,205.9L125.8,205.9z"/>
	</g>
	<g>
		<path class="st3" d="M131.4,198c2,2.1,4,4.1,6,6.2c0.2,0.2,0.6-0.1,0.4-0.4c-2-2.1-4-4.1-6-6.2C131.5,197.4,131.1,197.8,131.4,198
			L131.4,198z"/>
	</g>
	<g>
		<path class="st3" d="M125.9,208.8c1.1,1.1,2.2,2.3,3.3,3.4c0.2,0.2,0.6-0.1,0.4-0.4c-1.1-1.1-2.2-2.3-3.3-3.4
			C126,208.2,125.6,208.6,125.9,208.8L125.9,208.8z"/>
	</g>
	<g>
		<path class="st3" d="M128.6,206.1c1.1,1.1,2.2,2.3,3.3,3.4c0.2,0.2,0.6-0.1,0.4-0.4c-1.1-1.1-2.2-2.3-3.3-3.4
			C128.7,205.5,128.4,205.9,128.6,206.1L128.6,206.1z"/>
	</g>
	<g>
		<path class="st3" d="M130,204.7c1.1,1.1,2.2,2.3,3.3,3.4c0.2,0.2,0.6-0.1,0.4-0.4c-1.1-1.1-2.2-2.3-3.3-3.4
			C130.1,204.2,129.7,204.5,130,204.7L130,204.7z"/>
	</g>
	<g>
		<path class="st3" d="M131.3,203.5c1.1,1.1,2.2,2.3,3.3,3.4c0.2,0.2,0.6-0.1,0.4-0.4c-1.1-1.1-2.2-2.3-3.3-3.4
			C131.5,202.9,131.1,203.2,131.3,203.5L131.3,203.5z"/>
	</g>
	<g>
		<path class="st3" d="M131.4,198c2,2.1,4,4.1,6,6.2c0.2,0.2,0.6-0.1,0.4-0.4c-2-2.1-4-4.1-6-6.2C131.5,197.4,131.1,197.8,131.4,198
			L131.4,198z"/>
	</g>
	<g>
		<path class="st3" d="M135.5,199.4c1.1,1.1,2.2,2.3,3.3,3.4c0.2,0.2,0.6-0.1,0.4-0.4c-1.1-1.1-2.2-2.3-3.3-3.4
			C135.6,198.8,135.3,199.2,135.5,199.4L135.5,199.4z"/>
	</g>
	<g>
		<path class="st3" d="M136.9,198c1.1,1.1,2.2,2.3,3.3,3.4c0.2,0.2,0.6-0.1,0.4-0.4c-1.1-1.1-2.2-2.3-3.3-3.4
			C137,197.4,136.7,197.8,136.9,198L136.9,198z"/>
	</g>
	<g>
		<path class="st3" d="M138.3,196.7c1.1,1.1,2.2,2.3,3.3,3.4c0.2,0.2,0.6-0.1,0.4-0.4c-1.1-1.1-2.2-2.3-3.3-3.4
			C138.5,196.1,138.1,196.4,138.3,196.7L138.3,196.7z"/>
	</g>
	<g>
		<path class="st3" d="M146.4,188.8c1.1,1.1,2.2,2.3,3.3,3.4c0.2,0.2,0.6-0.1,0.4-0.4c-1.1-1.1-2.2-2.3-3.3-3.4
			C146.6,188.2,146.2,188.5,146.4,188.8L146.4,188.8z"/>
	</g>
	<g>
		<path class="st3" d="M139.5,192.6c1.6,1.6,3.2,3.3,4.8,4.9c0.2,0.2,0.6-0.1,0.4-0.4c-1.6-1.6-3.2-3.3-4.8-4.9
			C139.6,192,139.2,192.4,139.5,192.6L139.5,192.6z"/>
	</g>
	<g>
		<path class="st3" d="M145,184.7c2,2.1,4,4.1,6,6.2c0.2,0.2,0.6-0.1,0.4-0.4c-2-2.1-4-4.1-6-6.2C145.2,184.1,144.8,184.5,145,184.7
			L145,184.7z"/>
	</g>
	<g>
		<path class="st3" d="M139.5,195.5c1.1,1.1,2.2,2.3,3.3,3.4c0.2,0.2,0.6-0.1,0.4-0.4c-1.1-1.1-2.2-2.3-3.3-3.4
			C139.6,194.9,139.3,195.3,139.5,195.5L139.5,195.5z"/>
	</g>
	<g>
		<path class="st3" d="M142.3,192.8c1.1,1.1,2.2,2.3,3.3,3.4c0.2,0.2,0.6-0.1,0.4-0.4c-1.1-1.1-2.2-2.3-3.3-3.4
			C142.4,192.2,142,192.6,142.3,192.8L142.3,192.8z"/>
	</g>
	<g>
		<path class="st3" d="M143.6,191.5c1.1,1.1,2.2,2.3,3.3,3.4c0.2,0.2,0.6-0.1,0.4-0.4c-1.1-1.1-2.2-2.3-3.3-3.4
			C143.8,190.9,143.4,191.2,143.6,191.5L143.6,191.5z"/>
	</g>
	<g>
		<path class="st3" d="M145,190.2c1.1,1.1,2.2,2.3,3.3,3.4c0.2,0.2,0.6-0.1,0.4-0.4c-1.1-1.1-2.2-2.3-3.3-3.4
			C145.1,189.6,144.8,189.9,145,190.2L145,190.2z"/>
	</g>
	<g>
		<path class="st3" d="M145,184.7c2,2.1,4,4.1,6,6.2c0.2,0.2,0.6-0.1,0.4-0.4c-2-2.1-4-4.1-6-6.2C145.2,184.1,144.8,184.5,145,184.7
			L145,184.7z"/>
	</g>
	<g>
		<path class="st3" d="M149.1,186.1c1.1,1.1,2.2,2.3,3.3,3.4c0.2,0.2,0.6-0.1,0.4-0.4c-1.1-1.1-2.2-2.3-3.3-3.4
			C149.3,185.5,148.9,185.9,149.1,186.1L149.1,186.1z"/>
	</g>
	<g>
		<path class="st3" d="M150.6,184.7c1.1,1.1,2.2,2.3,3.3,3.4c0.2,0.2,0.6-0.1,0.4-0.4c-1.1-1.1-2.2-2.3-3.3-3.4
			C150.7,184.2,150.3,184.5,150.6,184.7L150.6,184.7z"/>
	</g>
	<g>
		<path class="st3" d="M152,183.4c1.1,1.1,2.2,2.3,3.3,3.4c0.2,0.2,0.6-0.1,0.4-0.4c-1.1-1.1-2.2-2.3-3.3-3.4
			C152.1,182.8,151.7,183.1,152,183.4L152,183.4z"/>
	</g>
	<g>
		<path class="st3" d="M160.1,175.5c1.1,1.1,2.2,2.3,3.3,3.4c0.2,0.2,0.6-0.1,0.4-0.4c-1.1-1.1-2.2-2.3-3.3-3.4
			C160.2,174.9,159.9,175.2,160.1,175.5L160.1,175.5z"/>
	</g>
	<g>
		<path class="st3" d="M153.1,179.3c1.6,1.6,3.2,3.3,4.8,4.9c0.2,0.2,0.6-0.1,0.4-0.4c-1.6-1.6-3.2-3.3-4.8-4.9
			C153.3,178.7,152.9,179.1,153.1,179.3L153.1,179.3z"/>
	</g>
	<g>
		<path class="st3" d="M158.7,171.4c2,2.1,4,4.1,6,6.2c0.2,0.2,0.6-0.1,0.4-0.4c-2-2.1-4-4.1-6-6.2
			C158.8,170.9,158.4,171.2,158.7,171.4L158.7,171.4z"/>
	</g>
	<g>
		<path class="st3" d="M153.2,182.2c1.1,1.1,2.2,2.3,3.3,3.4c0.2,0.2,0.6-0.1,0.4-0.4c-1.1-1.1-2.2-2.3-3.3-3.4
			C153.3,181.6,152.9,182,153.2,182.2L153.2,182.2z"/>
	</g>
	<g>
		<path class="st3" d="M155.9,179.5c1.1,1.1,2.2,2.3,3.3,3.4c0.2,0.2,0.6-0.1,0.4-0.4c-1.1-1.1-2.2-2.3-3.3-3.4
			C156,179,155.7,179.3,155.9,179.5L155.9,179.5z"/>
	</g>
	<g>
		<path class="st3" d="M157.3,178.2c1.1,1.1,2.2,2.3,3.3,3.4c0.2,0.2,0.6-0.1,0.4-0.4c-1.1-1.1-2.2-2.3-3.3-3.4
			C157.4,177.6,157,177.9,157.3,178.2L157.3,178.2z"/>
	</g>
	<g>
		<path class="st3" d="M158.6,176.9c1.1,1.1,2.2,2.3,3.3,3.4c0.2,0.2,0.6-0.1,0.4-0.4c-1.1-1.1-2.2-2.3-3.3-3.4
			C158.8,176.3,158.4,176.7,158.6,176.9L158.6,176.9z"/>
	</g>
	<g>
		<path class="st3" d="M158.7,171.4c2,2.1,4,4.1,6,6.2c0.2,0.2,0.6-0.1,0.4-0.4c-2-2.1-4-4.1-6-6.2
			C158.8,170.9,158.4,171.2,158.7,171.4L158.7,171.4z"/>
	</g>
	<g>
		<path class="st3" d="M162.8,172.8c1.1,1.1,2.2,2.3,3.3,3.4c0.2,0.2,0.6-0.1,0.4-0.4c-1.1-1.1-2.2-2.3-3.3-3.4
			C162.9,172.3,162.6,172.6,162.8,172.8L162.8,172.8z"/>
	</g>
	<g>
		<path class="st3" d="M164.2,171.5c1.1,1.1,2.2,2.3,3.3,3.4c0.2,0.2,0.6-0.1,0.4-0.4c-1.1-1.1-2.2-2.3-3.3-3.4
			C164.3,170.9,164,171.2,164.2,171.5L164.2,171.5z"/>
	</g>
	<g>
		<path class="st3" d="M165.6,170.1c1.1,1.1,2.2,2.3,3.3,3.4c0.2,0.2,0.6-0.1,0.4-0.4c-1.1-1.1-2.2-2.3-3.3-3.4
			C165.8,169.5,165.4,169.8,165.6,170.1L165.6,170.1z"/>
	</g>
	<g>
		<path class="st3" d="M166.8,166.1c1.6,1.6,3.2,3.3,4.8,4.9c0.2,0.2,0.6-0.1,0.4-0.4c-1.6-1.6-3.2-3.3-4.8-4.9
			C166.9,165.5,166.6,165.8,166.8,166.1L166.8,166.1z"/>
	</g>
	<g>
		<path class="st3" d="M166.8,168.9c1.1,1.1,2.2,2.3,3.3,3.4c0.2,0.2,0.6-0.1,0.4-0.4c-1.1-1.1-2.2-2.3-3.3-3.4
			C166.9,168.3,166.6,168.7,166.8,168.9L166.8,168.9z"/>
	</g>
</g>
<path class="st2" d="M79.2,230.1h2c-9.2-10.3-11.5-42.6-4.8-79.5c5.4-29.9,15.3-55,25.4-67.1l-2.4-2.2C89,93,78.7,118.7,73.2,149.4
	C66.2,187.9,69,221.4,79.2,230.1z"/>
<line class="st4" x1="101.7" y1="83.5" x2="99.3" y2="81.3"/>
<line class="st4" x1="100.8" y1="84.5" x2="98.4" y2="82.4"/>
<line class="st4" x1="100.1" y1="85.6" x2="97.5" y2="83.6"/>
<line class="st4" x1="99" y1="86.9" x2="96.6" y2="84.8"/>
<line class="st4" x1="98.3" y1="88" x2="95.8" y2="86"/>
<line class="st4" x1="97.4" y1="89.4" x2="94.8" y2="87.5"/>
<line class="st4" x1="96.6" y1="90.5" x2="94" y2="88.7"/>
<line class="st4" x1="96" y1="91.6" x2="93.3" y2="89.9"/>
<line class="st4" x1="95.1" y1="93.1" x2="92.5" y2="91.3"/>
<line class="st4" x1="94.5" y1="94.2" x2="91.8" y2="92.5"/>
<line class="st4" x1="93.7" y1="95.8" x2="91" y2="94.1"/>
<line class="st4" x1="93" y1="97" x2="90.3" y2="95.4"/>
<line class="st4" x1="92.5" y1="98.2" x2="89.6" y2="96.7"/>
<line class="st4" x1="91.7" y1="99.7" x2="88.9" y2="98.1"/>
<line class="st4" x1="91.2" y1="100.9" x2="88.3" y2="99.4"/>
<line class="st4" x1="90.5" y1="102.3" x2="87.6" y2="100.9"/>
<line class="st4" x1="89.9" y1="103.8" x2="87" y2="102.5"/>
<line class="st4" x1="89.3" y1="105.2" x2="86.3" y2="104"/>
<line class="st4" x1="88.6" y1="106.7" x2="85.7" y2="105.4"/>
<line class="st4" x1="88.1" y1="108.1" x2="85.1" y2="107"/>
<line class="st4" x1="87.6" y1="109.5" x2="84.6" y2="108.4"/>
<line class="st4" x1="87" y1="110.9" x2="84" y2="109.8"/>
<line class="st4" x1="86.4" y1="112.4" x2="83.5" y2="111.2"/>
<line class="st4" x1="85.9" y1="113.8" x2="82.9" y2="112.6"/>
<line class="st4" x1="85.4" y1="115.2" x2="82.3" y2="114.2"/>
<line class="st4" x1="84.9" y1="116.6" x2="81.8" y2="115.7"/>
<line class="st4" x1="84.3" y1="117.7" x2="81.3" y2="116.6"/>
<line class="st4" x1="84" y1="119" x2="80.9" y2="118"/>
<line class="st4" x1="83.5" y1="120.6" x2="80.5" y2="119.4"/>
<line class="st4" x1="83.1" y1="121.8" x2="80.1" y2="120.8"/>
<line class="st4" x1="82.7" y1="123.6" x2="79.7" y2="122.6"/>
<line class="st4" x1="82.3" y1="124.9" x2="79.2" y2="124"/>
<line class="st4" x1="81.9" y1="126.3" x2="78.8" y2="125.5"/>
<line class="st4" x1="81.4" y1="127.8" x2="78.4" y2="126.9"/>
<line class="st4" x1="81" y1="129.2" x2="77.9" y2="128.4"/>
<line class="st4" x1="80.7" y1="130.5" x2="77.6" y2="129.8"/>
<line class="st4" x1="80.4" y1="131.9" x2="77.3" y2="131.3"/>
<line class="st4" x1="79.9" y1="133.4" x2="76.7" y2="133"/>
<line class="st4" x1="79.6" y1="135.2" x2="76.4" y2="134.6"/>
<line class="st4" x1="79.2" y1="136.5" x2="76" y2="136.1"/>
<line class="st4" x1="78.8" y1="138.2" x2="75.7" y2="137.5"/>
<line class="st4" x1="78.4" y1="139.9" x2="75.3" y2="139.1"/>
<line class="st4" x1="78.1" y1="141.5" x2="74.9" y2="140.8"/>
<line class="st4" x1="77.7" y1="143" x2="74.6" y2="142.4"/>
<line class="st4" x1="77.4" y1="144.5" x2="74.2" y2="144"/>
<line class="st4" x1="77.1" y1="146.1" x2="73.9" y2="145.7"/>
<line class="st4" x1="76.8" y1="147.7" x2="73.6" y2="147.2"/>
<line class="st4" x1="76.5" y1="149.2" x2="73.3" y2="148.8"/>
<line class="st4" x1="76.3" y1="151.2" x2="73.2" y2="150.4"/>
<line class="st4" x1="76.1" y1="152.7" x2="72.9" y2="152.1"/>
<line class="st4" x1="75.8" y1="154.2" x2="72.6" y2="153.6"/>
<line class="st4" x1="75.5" y1="155.7" x2="72.4" y2="155.1"/>
<line class="st4" x1="75.3" y1="157.2" x2="72.1" y2="156.6"/>
<line class="st4" x1="75" y1="158.6" x2="71.8" y2="158.1"/>
<line class="st4" x1="74.7" y1="160.1" x2="71.5" y2="159.7"/>
<line class="st4" x1="74.5" y1="161.6" x2="71.3" y2="161.3"/>
<line class="st4" x1="74.2" y1="162.8" x2="71.1" y2="162.3"/>
<line class="st4" x1="74.1" y1="164.1" x2="70.9" y2="163.7"/>
<line class="st4" x1="73.9" y1="165.8" x2="70.7" y2="165.3"/>
<line class="st4" x1="73.8" y1="167.1" x2="70.6" y2="166.7"/>
<line class="st4" x1="73.8" y1="168.9" x2="70.6" y2="168.5"/>
<line class="st4" x1="73.6" y1="170.3" x2="70.4" y2="169.9"/>
<line class="st4" x1="73.5" y1="171.7" x2="70.3" y2="171.5"/>
<line class="st4" x1="73.3" y1="173.3" x2="70.1" y2="173"/>
<line class="st4" x1="73.1" y1="174.8" x2="69.9" y2="174.6"/>
<line class="st4" x1="73.1" y1="176.1" x2="69.9" y2="176"/>
<line class="st4" x1="73.1" y1="177.5" x2="69.9" y2="177.5"/>
<line class="st4" x1="72.9" y1="179.1" x2="69.7" y2="179.3"/>
<line class="st4" x1="72.9" y1="180.9" x2="69.7" y2="180.9"/>
<line class="st4" x1="72.8" y1="182.3" x2="69.6" y2="182.5"/>
<line class="st4" x1="72.8" y1="184" x2="69.6" y2="183.9"/>
<line class="st4" x1="72.7" y1="185.8" x2="69.5" y2="185.5"/>
<line class="st4" x1="72.7" y1="187.4" x2="69.5" y2="187.3"/>
<line class="st4" x1="72.6" y1="188.9" x2="69.4" y2="188.9"/>
<line class="st4" x1="72.6" y1="190.5" x2="69.3" y2="190.5"/>
<line class="st4" x1="72.6" y1="192" x2="69.4" y2="192.3"/>
<line class="st4" x1="72.6" y1="193.7" x2="69.4" y2="193.8"/>
<line class="st4" x1="72.6" y1="195.2" x2="69.4" y2="195.4"/>
<line class="st4" x1="72.7" y1="197" x2="69.5" y2="197.2"/>
<line class="st4" x1="73" y1="198.6" x2="69.8" y2="198.9"/>
<line class="st4" x1="73.1" y1="200.1" x2="69.9" y2="200.4"/>
<line class="st4" x1="73.3" y1="201.6" x2="70.1" y2="201.9"/>
<line class="st4" x1="73.5" y1="203.1" x2="70.3" y2="203.5"/>
<line class="st4" x1="73.6" y1="204.6" x2="70.4" y2="204.9"/>
<line class="st4" x1="73.8" y1="206.1" x2="70.6" y2="206.6"/>
<line class="st4" x1="74" y1="207.6" x2="70.9" y2="208.2"/>
<line class="st4" x1="74.1" y1="208.8" x2="70.9" y2="209.2"/>
<line class="st4" x1="74.3" y1="210.1" x2="71.2" y2="210.6"/>
<line class="st4" x1="74.6" y1="211.7" x2="71.4" y2="212.1"/>
<line class="st4" x1="74.9" y1="213" x2="71.7" y2="213.5"/>
<line class="st4" x1="75.4" y1="214.8" x2="72.2" y2="215.3"/>
<line class="st4" x1="75.6" y1="216.1" x2="72.5" y2="216.7"/>
<line class="st4" x1="75.9" y1="217.5" x2="72.8" y2="218.3"/>
<line class="st4" x1="76.2" y1="219.1" x2="73" y2="219.7"/>
<line class="st4" x1="76.4" y1="220.5" x2="73.3" y2="221.3"/>
<line class="st4" x1="76.8" y1="221.8" x2="73.7" y2="222.6"/>
<line class="st4" x1="77.2" y1="223.2" x2="74.1" y2="224.1"/>
<line class="st4" x1="78.1" y1="224.7" x2="75.1" y2="225.8"/>
<line class="st4" x1="78.9" y1="226.4" x2="75.8" y2="227.3"/>
<line class="st4" x1="79.7" y1="227.9" x2="76.7" y2="228.9"/>
<line class="st4" x1="80.7" y1="229.4" x2="77.6" y2="230.3"/>
<text transform="matrix(1 0 0 1 20.2383 151.4043)" class="st5 st6 st7">G</text>
<text transform="matrix(1 0 0 1 121.9361 236.6211)" class="st5 st6 st7">H</text>
<text transform="matrix(1 0 0 1 276.5894 231.6226)" class="st5 st6 st7">I</text>
<rect x="46.7" y="224.2" transform="matrix(-0.5691 -0.8223 0.8223 -0.5691 213.6276 575.1929)" class="st2" width="421.7" height="14.8"/>
<g>
	<g>
		<path class="st3" d="M340.3,431.6c11.9-8.2,23.8-16.5,35.7-24.7c1.3-0.9,0.9-1.5-0.4-0.6c-11.9,8.2-23.8,16.5-35.7,24.7
			C338.5,432,338.9,432.6,340.3,431.6L340.3,431.6z"/>
	</g>
	<g>
		<path class="st3" d="M284.3,274.5c1.9-1.3,3.8-2.6,5.7-4c0.4-0.3,0-0.9-0.4-0.6c-1.9,1.3-3.8,2.6-5.7,4
			C283.5,274.2,283.9,274.8,284.3,274.5L284.3,274.5z"/>
	</g>
	<g>
		<path class="st3" d="M282.7,272.2c1.9-1.3,3.8-2.6,5.7-4c0.4-0.3,0-0.9-0.4-0.6c-1.9,1.3-3.8,2.6-5.7,4
			C281.9,271.8,282.3,272.4,282.7,272.2L282.7,272.2z"/>
	</g>
	<g>
		<path class="st3" d="M281,269.8c1.9-1.3,3.8-2.6,5.7-4c0.4-0.3,0-0.9-0.4-0.6c-1.9,1.3-3.8,2.6-5.7,4
			C280.2,269.5,280.7,270.1,281,269.8L281,269.8z"/>
	</g>
	<g>
		<path class="st3" d="M271.7,256.3c1.9-1.3,3.8-2.6,5.7-4c0.4-0.3,0-0.9-0.4-0.6c-1.9,1.3-3.8,2.6-5.7,4
			C270.9,255.9,271.3,256.5,271.7,256.3L271.7,256.3z"/>
	</g>
	<g>
		<path class="st3" d="M275.5,267.2c2.7-1.9,5.5-3.8,8.2-5.7c0.4-0.3,0-0.9-0.4-0.6c-2.7,1.9-5.5,3.8-8.2,5.7
			C274.7,266.8,275.2,267.4,275.5,267.2L275.5,267.2z"/>
	</g>
	<g>
		<path class="st3" d="M265.6,257.3c3.4-2.4,6.9-4.8,10.3-7.2c0.4-0.3,0-0.9-0.4-0.6c-3.4,2.4-6.9,4.8-10.3,7.2
			C264.8,257,265.2,257.6,265.6,257.3L265.6,257.3z"/>
	</g>
	<g>
		<path class="st3" d="M279.7,267.8c1.9-1.3,3.8-2.6,5.7-4c0.4-0.3,0-0.9-0.4-0.6c-1.9,1.3-3.8,2.6-5.7,4
			C278.9,267.5,279.3,268.1,279.7,267.8L279.7,267.8z"/>
	</g>
	<g>
		<path class="st3" d="M276.5,263.2c1.9-1.3,3.8-2.6,5.7-4c0.4-0.3,0-0.9-0.4-0.6c-1.9,1.3-3.8,2.6-5.7,4
			C275.7,262.9,276.1,263.5,276.5,263.2L276.5,263.2z"/>
	</g>
	<g>
		<path class="st3" d="M274.9,261c1.9-1.3,3.8-2.6,5.7-4c0.4-0.3,0-0.9-0.4-0.6c-1.9,1.3-3.8,2.6-5.7,4
			C274.1,260.6,274.5,261.2,274.9,261L274.9,261z"/>
	</g>
	<g>
		<path class="st3" d="M273.4,258.7c1.9-1.3,3.8-2.6,5.7-4c0.4-0.3,0-0.9-0.4-0.6c-1.9,1.3-3.8,2.6-5.7,4
			C272.6,258.4,273,259,273.4,258.7L273.4,258.7z"/>
	</g>
	<g>
		<path class="st3" d="M265.6,257.3c3.4-2.4,6.9-4.8,10.3-7.2c0.4-0.3,0-0.9-0.4-0.6c-3.4,2.4-6.9,4.8-10.3,7.2
			C264.8,257,265.2,257.6,265.6,257.3L265.6,257.3z"/>
	</g>
	<g>
		<path class="st3" d="M268.6,251.8c1.9-1.3,3.8-2.6,5.7-4c0.4-0.3,0-0.9-0.4-0.6c-1.9,1.3-3.8,2.6-5.7,4
			C267.8,251.4,268.2,252,268.6,251.8L268.6,251.8z"/>
	</g>
	<g>
		<path class="st3" d="M266.9,249.4c1.9-1.3,3.8-2.6,5.7-4c0.4-0.3,0-0.9-0.4-0.6c-1.9,1.3-3.8,2.6-5.7,4
			C266.1,249.1,266.5,249.7,266.9,249.4L266.9,249.4z"/>
	</g>
	<g>
		<path class="st3" d="M265.3,247c1.9-1.3,3.8-2.6,5.7-4c0.4-0.3,0-0.9-0.4-0.6c-1.9,1.3-3.8,2.6-5.7,4
			C264.5,246.7,264.9,247.3,265.3,247L265.3,247z"/>
	</g>
	<g>
		<path class="st3" d="M255.9,233.5c1.9-1.3,3.8-2.6,5.7-4c0.4-0.3,0-0.9-0.4-0.6c-1.9,1.3-3.8,2.6-5.7,4
			C255.1,233.2,255.6,233.8,255.9,233.5L255.9,233.5z"/>
	</g>
	<g>
		<path class="st3" d="M259.8,244.4c2.7-1.9,5.5-3.8,8.2-5.7c0.4-0.3,0-0.9-0.4-0.6c-2.7,1.9-5.5,3.8-8.2,5.7
			C259,244.1,259.4,244.7,259.8,244.4L259.8,244.4z"/>
	</g>
	<g>
		<path class="st3" d="M249.8,234.6c3.4-2.4,6.9-4.8,10.3-7.2c0.4-0.3,0-0.9-0.4-0.6c-3.4,2.4-6.9,4.8-10.3,7.2
			C249,234.2,249.4,234.8,249.8,234.6L249.8,234.6z"/>
	</g>
	<g>
		<path class="st3" d="M263.9,245.1c1.9-1.3,3.8-2.6,5.7-4c0.4-0.3,0-0.9-0.4-0.6c-1.9,1.3-3.8,2.6-5.7,4
			C263.1,244.7,263.5,245.3,263.9,245.1L263.9,245.1z"/>
	</g>
	<g>
		<path class="st3" d="M260.8,240.5c1.9-1.3,3.8-2.6,5.7-4c0.4-0.3,0-0.9-0.4-0.6c-1.9,1.3-3.8,2.6-5.7,4
			C260,240.2,260.4,240.8,260.8,240.5L260.8,240.5z"/>
	</g>
	<g>
		<path class="st3" d="M259.1,238.2c1.9-1.3,3.8-2.6,5.7-4c0.4-0.3,0-0.9-0.4-0.6c-1.9,1.3-3.8,2.6-5.7,4
			C258.3,237.9,258.7,238.5,259.1,238.2L259.1,238.2z"/>
	</g>
	<g>
		<path class="st3" d="M257.6,235.9c1.9-1.3,3.8-2.6,5.7-4c0.4-0.3,0-0.9-0.4-0.6c-1.9,1.3-3.8,2.6-5.7,4
			C256.8,235.6,257.2,236.2,257.6,235.9L257.6,235.9z"/>
	</g>
	<g>
		<path class="st3" d="M249.8,234.6c3.4-2.4,6.9-4.8,10.3-7.2c0.4-0.3,0-0.9-0.4-0.6c-3.4,2.4-6.9,4.8-10.3,7.2
			C249,234.2,249.4,234.8,249.8,234.6L249.8,234.6z"/>
	</g>
	<g>
		<path class="st3" d="M252.8,229c1.9-1.3,3.8-2.6,5.7-4c0.4-0.3,0-0.9-0.4-0.6c-1.9,1.3-3.8,2.6-5.7,4
			C252,228.7,252.4,229.3,252.8,229L252.8,229z"/>
	</g>
	<g>
		<path class="st3" d="M251.2,226.6c1.9-1.3,3.8-2.6,5.7-4c0.4-0.3,0-0.9-0.4-0.6c-1.9,1.3-3.8,2.6-5.7,4
			C250.4,226.3,250.8,226.9,251.2,226.6L251.2,226.6z"/>
	</g>
	<g>
		<path class="st3" d="M249.6,224.3c1.9-1.3,3.8-2.6,5.7-4c0.4-0.3,0-0.9-0.4-0.6c-1.9,1.3-3.8,2.6-5.7,4
			C248.7,224,249.2,224.6,249.6,224.3L249.6,224.3z"/>
	</g>
	<g>
		<path class="st3" d="M240.2,210.8c1.9-1.3,3.8-2.6,5.7-4c0.4-0.3,0-0.9-0.4-0.6c-1.9,1.3-3.8,2.6-5.7,4
			C239.4,210.4,239.8,211,240.2,210.8L240.2,210.8z"/>
	</g>
	<g>
		<path class="st3" d="M244.1,221.7c2.7-1.9,5.5-3.8,8.2-5.7c0.4-0.3,0-0.9-0.4-0.6c-2.7,1.9-5.5,3.8-8.2,5.7
			C243.2,221.3,243.7,221.9,244.1,221.7L244.1,221.7z"/>
	</g>
	<g>
		<path class="st3" d="M234.1,211.8c3.4-2.4,6.9-4.8,10.3-7.2c0.4-0.3,0-0.9-0.4-0.6c-3.4,2.4-6.9,4.8-10.3,7.2
			C233.3,211.5,233.7,212.1,234.1,211.8L234.1,211.8z"/>
	</g>
	<g>
		<path class="st3" d="M248.2,222.3c1.9-1.3,3.8-2.6,5.7-4c0.4-0.3,0-0.9-0.4-0.6c-1.9,1.3-3.8,2.6-5.7,4
			C247.4,222,247.8,222.6,248.2,222.3L248.2,222.3z"/>
	</g>
	<g>
		<path class="st3" d="M245,217.7c1.9-1.3,3.8-2.6,5.7-4c0.4-0.3,0-0.9-0.4-0.6c-1.9,1.3-3.8,2.6-5.7,4
			C244.2,217.4,244.6,218,245,217.7L245,217.7z"/>
	</g>
	<g>
		<path class="st3" d="M243.4,215.4c1.9-1.3,3.8-2.6,5.7-4c0.4-0.3,0-0.9-0.4-0.6c-1.9,1.3-3.8,2.6-5.7,4
			C242.6,215.1,243,215.7,243.4,215.4L243.4,215.4z"/>
	</g>
	<g>
		<path class="st3" d="M241.9,213.2c1.9-1.3,3.8-2.6,5.7-4c0.4-0.3,0-0.9-0.4-0.6c-1.9,1.3-3.8,2.6-5.7,4
			C241.1,212.8,241.5,213.5,241.9,213.2L241.9,213.2z"/>
	</g>
	<g>
		<path class="st3" d="M234.1,211.8c3.4-2.4,6.9-4.8,10.3-7.2c0.4-0.3,0-0.9-0.4-0.6c-3.4,2.4-6.9,4.8-10.3,7.2
			C233.3,211.5,233.7,212.1,234.1,211.8L234.1,211.8z"/>
	</g>
	<g>
		<path class="st3" d="M237.1,206.3c1.9-1.3,3.8-2.6,5.7-4c0.4-0.3,0-0.9-0.4-0.6c-1.9,1.3-3.8,2.6-5.7,4
			C236.3,205.9,236.7,206.5,237.1,206.3L237.1,206.3z"/>
	</g>
	<g>
		<path class="st3" d="M235.4,203.9c1.9-1.3,3.8-2.6,5.7-4c0.4-0.3,0-0.9-0.4-0.6c-1.9,1.3-3.8,2.6-5.7,4
			C234.6,203.6,235,204.2,235.4,203.9L235.4,203.9z"/>
	</g>
	<g>
		<path class="st3" d="M233.8,201.5c1.9-1.3,3.8-2.6,5.7-4c0.4-0.3,0-0.9-0.4-0.6c-1.9,1.3-3.8,2.6-5.7,4
			C233,201.2,233.4,201.8,233.8,201.5L233.8,201.5z"/>
	</g>
	<g>
		<path class="st3" d="M224.4,188c1.9-1.3,3.8-2.6,5.7-4c0.4-0.3,0-0.9-0.4-0.6c-1.9,1.3-3.8,2.6-5.7,4
			C223.6,187.7,224.1,188.3,224.4,188L224.4,188z"/>
	</g>
	<g>
		<path class="st3" d="M228.3,198.9c2.7-1.9,5.5-3.8,8.2-5.7c0.4-0.3,0-0.9-0.4-0.6c-2.7,1.9-5.5,3.8-8.2,5.7
			C227.5,198.6,227.9,199.2,228.3,198.9L228.3,198.9z"/>
	</g>
	<g>
		<path class="st3" d="M218.3,189.1c3.4-2.4,6.9-4.8,10.3-7.2c0.4-0.3,0-0.9-0.4-0.6c-3.4,2.4-6.9,4.8-10.3,7.2
			C217.5,188.7,217.9,189.3,218.3,189.1L218.3,189.1z"/>
	</g>
	<g>
		<path class="st3" d="M232.4,199.6c1.9-1.3,3.8-2.6,5.7-4c0.4-0.3,0-0.9-0.4-0.6c-1.9,1.3-3.8,2.6-5.7,4
			C231.6,199.2,232.1,199.8,232.4,199.6L232.4,199.6z"/>
	</g>
	<g>
		<path class="st3" d="M229.3,195c1.9-1.3,3.8-2.6,5.7-4c0.4-0.3,0-0.9-0.4-0.6c-1.9,1.3-3.8,2.6-5.7,4
			C228.5,194.6,228.9,195.3,229.3,195L229.3,195z"/>
	</g>
	<g>
		<path class="st3" d="M227.6,192.7c1.9-1.3,3.8-2.6,5.7-4c0.4-0.3,0-0.9-0.4-0.6c-1.9,1.3-3.8,2.6-5.7,4
			C226.8,192.4,227.2,193,227.6,192.7L227.6,192.7z"/>
	</g>
	<g>
		<path class="st3" d="M226.1,190.4c1.9-1.3,3.8-2.6,5.7-4c0.4-0.3,0-0.9-0.4-0.6c-1.9,1.3-3.8,2.6-5.7,4
			C225.3,190.1,225.7,190.7,226.1,190.4L226.1,190.4z"/>
	</g>
	<g>
		<path class="st3" d="M218.3,189.1c3.4-2.4,6.9-4.8,10.3-7.2c0.4-0.3,0-0.9-0.4-0.6c-3.4,2.4-6.9,4.8-10.3,7.2
			C217.5,188.7,217.9,189.3,218.3,189.1L218.3,189.1z"/>
	</g>
	<g>
		<path class="st3" d="M221.3,183.5c1.9-1.3,3.8-2.6,5.7-4c0.4-0.3,0-0.9-0.4-0.6c-1.9,1.3-3.8,2.6-5.7,4
			C220.5,183.2,220.9,183.8,221.3,183.5L221.3,183.5z"/>
	</g>
	<g>
		<path class="st3" d="M219.7,181.1c1.9-1.3,3.8-2.6,5.7-4c0.4-0.3,0-0.9-0.4-0.6c-1.9,1.3-3.8,2.6-5.7,4
			C218.9,180.8,219.3,181.4,219.7,181.1L219.7,181.1z"/>
	</g>
	<g>
		<path class="st3" d="M218.1,178.8c1.9-1.3,3.8-2.6,5.7-4c0.4-0.3,0-0.9-0.4-0.6c-1.9,1.3-3.8,2.6-5.7,4
			C217.2,178.4,217.7,179,218.1,178.8L218.1,178.8z"/>
	</g>
	<g>
		<path class="st3" d="M208.7,165.3c1.9-1.3,3.8-2.6,5.7-4c0.4-0.3,0-0.9-0.4-0.6c-1.9,1.3-3.8,2.6-5.7,4
			C207.9,164.9,208.3,165.5,208.7,165.3L208.7,165.3z"/>
	</g>
	<g>
		<path class="st3" d="M212.6,176.2c2.7-1.9,5.5-3.8,8.2-5.7c0.4-0.3,0-0.9-0.4-0.6c-2.7,1.9-5.5,3.8-8.2,5.7
			C211.7,175.8,212.2,176.4,212.6,176.2L212.6,176.2z"/>
	</g>
	<g>
		<path class="st3" d="M202.6,166.3c3.4-2.4,6.9-4.8,10.3-7.2c0.4-0.3,0-0.9-0.4-0.6c-3.4,2.4-6.9,4.8-10.3,7.2
			C201.8,166,202.2,166.6,202.6,166.3L202.6,166.3z"/>
	</g>
	<g>
		<path class="st3" d="M216.7,176.8c1.9-1.3,3.8-2.6,5.7-4c0.4-0.3,0-0.9-0.4-0.6c-1.9,1.3-3.8,2.6-5.7,4
			C215.9,176.5,216.3,177.1,216.7,176.8L216.7,176.8z"/>
	</g>
	<g>
		<path class="st3" d="M213.5,172.2c1.9-1.3,3.8-2.6,5.7-4c0.4-0.3,0-0.9-0.4-0.6c-1.9,1.3-3.8,2.6-5.7,4
			C212.7,171.9,213.1,172.5,213.5,172.2L213.5,172.2z"/>
	</g>
	<g>
		<path class="st3" d="M211.9,169.9c1.9-1.3,3.8-2.6,5.7-4c0.4-0.3,0-0.9-0.4-0.6c-1.9,1.3-3.8,2.6-5.7,4
			C211.1,169.6,211.5,170.2,211.9,169.9L211.9,169.9z"/>
	</g>
	<g>
		<path class="st3" d="M210.4,167.7c1.9-1.3,3.8-2.6,5.7-4c0.4-0.3,0-0.9-0.4-0.6c-1.9,1.3-3.8,2.6-5.7,4
			C209.6,167.3,210,167.9,210.4,167.7L210.4,167.7z"/>
	</g>
	<g>
		<path class="st3" d="M202.6,166.3c3.4-2.4,6.9-4.8,10.3-7.2c0.4-0.3,0-0.9-0.4-0.6c-3.4,2.4-6.9,4.8-10.3,7.2
			C201.8,166,202.2,166.6,202.6,166.3L202.6,166.3z"/>
	</g>
	<g>
		<path class="st3" d="M205.6,160.7c1.9-1.3,3.8-2.6,5.7-4c0.4-0.3,0-0.9-0.4-0.6c-1.9,1.3-3.8,2.6-5.7,4
			C204.8,160.4,205.2,161,205.6,160.7L205.6,160.7z"/>
	</g>
	<g>
		<path class="st3" d="M203.9,158.4c1.9-1.3,3.8-2.6,5.7-4c0.4-0.3,0-0.9-0.4-0.6c-1.9,1.3-3.8,2.6-5.7,4
			C203.1,158.1,203.6,158.7,203.9,158.4L203.9,158.4z"/>
	</g>
	<g>
		<path class="st3" d="M202.3,156c1.9-1.3,3.8-2.6,5.7-4c0.4-0.3,0-0.9-0.4-0.6c-1.9,1.3-3.8,2.6-5.7,4
			C201.5,155.7,201.9,156.3,202.3,156L202.3,156z"/>
	</g>
	<g>
		<path class="st3" d="M193,142.5c1.9-1.3,3.8-2.6,5.7-4c0.4-0.3,0-0.9-0.4-0.6c-1.9,1.3-3.8,2.6-5.7,4
			C192.1,142.2,192.6,142.8,193,142.5L193,142.5z"/>
	</g>
	<g>
		<path class="st3" d="M196.8,153.4c2.7-1.9,5.5-3.8,8.2-5.7c0.4-0.3,0-0.9-0.4-0.6c-2.7,1.9-5.5,3.8-8.2,5.7
			C196,153.1,196.4,153.7,196.8,153.4L196.8,153.4z"/>
	</g>
	<g>
		<path class="st3" d="M186.8,143.6c3.4-2.4,6.9-4.8,10.3-7.2c0.4-0.3,0-0.9-0.4-0.6c-3.4,2.4-6.9,4.8-10.3,7.2
			C186,143.2,186.4,143.8,186.8,143.6L186.8,143.6z"/>
	</g>
	<g>
		<path class="st3" d="M200.9,154.1c1.9-1.3,3.8-2.6,5.7-4c0.4-0.3,0-0.9-0.4-0.6c-1.9,1.3-3.8,2.6-5.7,4
			C200.1,153.7,200.6,154.3,200.9,154.1L200.9,154.1z"/>
	</g>
	<g>
		<path class="st3" d="M197.8,149.5c1.9-1.3,3.8-2.6,5.7-4c0.4-0.3,0-0.9-0.4-0.6c-1.9,1.3-3.8,2.6-5.7,4
			C197,149.1,197.4,149.7,197.8,149.5L197.8,149.5z"/>
	</g>
	<g>
		<path class="st3" d="M196.1,147.2c1.9-1.3,3.8-2.6,5.7-4c0.4-0.3,0-0.9-0.4-0.6c-1.9,1.3-3.8,2.6-5.7,4
			C195.3,146.9,195.8,147.5,196.1,147.2L196.1,147.2z"/>
	</g>
	<g>
		<path class="st3" d="M194.6,144.9c1.9-1.3,3.8-2.6,5.7-4c0.4-0.3,0-0.9-0.4-0.6c-1.9,1.3-3.8,2.6-5.7,4
			C193.8,144.6,194.2,145.2,194.6,144.9L194.6,144.9z"/>
	</g>
	<g>
		<path class="st3" d="M186.8,143.6c3.4-2.4,6.9-4.8,10.3-7.2c0.4-0.3,0-0.9-0.4-0.6c-3.4,2.4-6.9,4.8-10.3,7.2
			C186,143.2,186.4,143.8,186.8,143.6L186.8,143.6z"/>
	</g>
	<g>
		<path class="st3" d="M189.8,138c1.9-1.3,3.8-2.6,5.7-4c0.4-0.3,0-0.9-0.4-0.6c-1.9,1.3-3.8,2.6-5.7,4
			C189,137.7,189.4,138.3,189.8,138L189.8,138z"/>
	</g>
	<g>
		<path class="st3" d="M188.2,135.6c1.9-1.3,3.8-2.6,5.7-4c0.4-0.3,0-0.9-0.4-0.6c-1.9,1.3-3.8,2.6-5.7,4
			C187.4,135.3,187.8,135.9,188.2,135.6L188.2,135.6z"/>
	</g>
	<g>
		<path class="st3" d="M186.6,133.3c1.9-1.3,3.8-2.6,5.7-4c0.4-0.3,0-0.9-0.4-0.6c-1.9,1.3-3.8,2.6-5.7,4
			C185.8,132.9,186.2,133.5,186.6,133.3L186.6,133.3z"/>
	</g>
	<g>
		<path class="st3" d="M352.1,372.6c1.9-1.3,3.8-2.6,5.7-4c0.4-0.3,0-0.9-0.4-0.6c-1.9,1.3-3.8,2.6-5.7,4
			C351.3,372.2,351.7,372.8,352.1,372.6L352.1,372.6z"/>
	</g>
	<g>
		<path class="st3" d="M345.9,373.6c3.4-2.4,6.9-4.8,10.3-7.2c0.4-0.3,0-0.9-0.4-0.6c-3.4,2.4-6.9,4.8-10.3,7.2
			C345.1,373.3,345.6,373.9,345.9,373.6L345.9,373.6z"/>
	</g>
	<g>
		<path class="st3" d="M345.9,373.6c3.4-2.4,6.9-4.8,10.3-7.2c0.4-0.3,0-0.9-0.4-0.6c-3.4,2.4-6.9,4.8-10.3,7.2
			C345.1,373.3,345.6,373.9,345.9,373.6L345.9,373.6z"/>
	</g>
	<g>
		<path class="st3" d="M348.9,368.1c1.9-1.3,3.8-2.6,5.7-4c0.4-0.3,0-0.9-0.4-0.6c-1.9,1.3-3.8,2.6-5.7,4
			C348.1,367.7,348.6,368.3,348.9,368.1L348.9,368.1z"/>
	</g>
	<g>
		<path class="st3" d="M347.3,365.7c1.9-1.3,3.8-2.6,5.7-4c0.4-0.3,0-0.9-0.4-0.6c-1.9,1.3-3.8,2.6-5.7,4
			C346.5,365.4,346.9,366,347.3,365.7L347.3,365.7z"/>
	</g>
	<g>
		<path class="st3" d="M345.7,363.3c1.9-1.3,3.8-2.6,5.7-4c0.4-0.3,0-0.9-0.4-0.6c-1.9,1.3-3.8,2.6-5.7,4
			C344.9,363,345.3,363.6,345.7,363.3L345.7,363.3z"/>
	</g>
	<g>
		<path class="st3" d="M336.3,349.8c1.9-1.3,3.8-2.6,5.7-4c0.4-0.3,0-0.9-0.4-0.6c-1.9,1.3-3.8,2.6-5.7,4
			C335.5,349.5,335.9,350.1,336.3,349.8L336.3,349.8z"/>
	</g>
	<g>
		<path class="st3" d="M340.2,360.7c2.7-1.9,5.5-3.8,8.2-5.7c0.4-0.3,0-0.9-0.4-0.6c-2.7,1.9-5.5,3.8-8.2,5.7
			C339.4,360.4,339.8,361,340.2,360.7L340.2,360.7z"/>
	</g>
	<g>
		<path class="st3" d="M330.2,350.9c3.4-2.4,6.9-4.8,10.3-7.2c0.4-0.3,0-0.9-0.4-0.6c-3.4,2.4-6.9,4.8-10.3,7.2
			C329.4,350.5,329.8,351.1,330.2,350.9L330.2,350.9z"/>
	</g>
	<g>
		<path class="st3" d="M344.3,361.4c1.9-1.3,3.8-2.6,5.7-4c0.4-0.3,0-0.9-0.4-0.6c-1.9,1.3-3.8,2.6-5.7,4
			C343.5,361,343.9,361.6,344.3,361.4L344.3,361.4z"/>
	</g>
	<g>
		<path class="st3" d="M341.1,356.8c1.9-1.3,3.8-2.6,5.7-4c0.4-0.3,0-0.9-0.4-0.6c-1.9,1.3-3.8,2.6-5.7,4
			C340.3,356.4,340.8,357.1,341.1,356.8L341.1,356.8z"/>
	</g>
	<g>
		<path class="st3" d="M339.5,354.5c1.9-1.3,3.8-2.6,5.7-4c0.4-0.3,0-0.9-0.4-0.6c-1.9,1.3-3.8,2.6-5.7,4
			C338.7,354.2,339.1,354.8,339.5,354.5L339.5,354.5z"/>
	</g>
	<g>
		<path class="st3" d="M338,352.2c1.9-1.3,3.8-2.6,5.7-4c0.4-0.3,0-0.9-0.4-0.6c-1.9,1.3-3.8,2.6-5.7,4
			C337.2,351.9,337.6,352.5,338,352.2L338,352.2z"/>
	</g>
	<g>
		<path class="st3" d="M330.2,350.9c3.4-2.4,6.9-4.8,10.3-7.2c0.4-0.3,0-0.9-0.4-0.6c-3.4,2.4-6.9,4.8-10.3,7.2
			C329.4,350.5,329.8,351.1,330.2,350.9L330.2,350.9z"/>
	</g>
	<g>
		<path class="st3" d="M333.2,345.3c1.9-1.3,3.8-2.6,5.7-4c0.4-0.3,0-0.9-0.4-0.6c-1.9,1.3-3.8,2.6-5.7,4
			C332.4,345,332.8,345.6,333.2,345.3L333.2,345.3z"/>
	</g>
	<g>
		<path class="st3" d="M331.6,342.9c1.9-1.3,3.8-2.6,5.7-4c0.4-0.3,0-0.9-0.4-0.6c-1.9,1.3-3.8,2.6-5.7,4
			C330.8,342.6,331.2,343.2,331.6,342.9L331.6,342.9z"/>
	</g>
	<g>
		<path class="st3" d="M329.9,340.6c1.9-1.3,3.8-2.6,5.7-4c0.4-0.3,0-0.9-0.4-0.6c-1.9,1.3-3.8,2.6-5.7,4
			C329.1,340.2,329.5,340.8,329.9,340.6L329.9,340.6z"/>
	</g>
	<g>
		<path class="st3" d="M320.6,327.1c1.9-1.3,3.8-2.6,5.7-4c0.4-0.3,0-0.9-0.4-0.6c-1.9,1.3-3.8,2.6-5.7,4
			C319.8,326.7,320.2,327.3,320.6,327.1L320.6,327.1z"/>
	</g>
	<g>
		<path class="st3" d="M324.4,338c2.7-1.9,5.5-3.8,8.2-5.7c0.4-0.3,0-0.9-0.4-0.6c-2.7,1.9-5.5,3.8-8.2,5.7
			C323.6,337.6,324,338.2,324.4,338L324.4,338z"/>
	</g>
	<g>
		<path class="st3" d="M314.5,328.1c3.4-2.4,6.9-4.8,10.3-7.2c0.4-0.3,0-0.9-0.4-0.6c-3.4,2.4-6.9,4.8-10.3,7.2
			C313.6,327.8,314.1,328.4,314.5,328.1L314.5,328.1z"/>
	</g>
	<g>
		<path class="st3" d="M328.6,338.6c1.9-1.3,3.8-2.6,5.7-4c0.4-0.3,0-0.9-0.4-0.6c-1.9,1.3-3.8,2.6-5.7,4
			C327.8,338.3,328.2,338.9,328.6,338.6L328.6,338.6z"/>
	</g>
	<g>
		<path class="st3" d="M325.4,334c1.9-1.3,3.8-2.6,5.7-4c0.4-0.3,0-0.9-0.4-0.6c-1.9,1.3-3.8,2.6-5.7,4
			C324.6,333.7,325,334.3,325.4,334L325.4,334z"/>
	</g>
	<g>
		<path class="st3" d="M323.8,331.7c1.9-1.3,3.8-2.6,5.7-4c0.4-0.3,0-0.9-0.4-0.6c-1.9,1.3-3.8,2.6-5.7,4
			C323,331.4,323.4,332,323.8,331.7L323.8,331.7z"/>
	</g>
	<g>
		<path class="st3" d="M322.2,329.5c1.9-1.3,3.8-2.6,5.7-4c0.4-0.3,0-0.9-0.4-0.6c-1.9,1.3-3.8,2.6-5.7,4
			C321.4,329.1,321.9,329.7,322.2,329.5L322.2,329.5z"/>
	</g>
	<g>
		<path class="st3" d="M314.5,328.1c3.4-2.4,6.9-4.8,10.3-7.2c0.4-0.3,0-0.9-0.4-0.6c-3.4,2.4-6.9,4.8-10.3,7.2
			C313.6,327.8,314.1,328.4,314.5,328.1L314.5,328.1z"/>
	</g>
	<g>
		<path class="st3" d="M317.4,322.5c1.9-1.3,3.8-2.6,5.7-4c0.4-0.3,0-0.9-0.4-0.6c-1.9,1.3-3.8,2.6-5.7,4
			C316.6,322.2,317.1,322.8,317.4,322.5L317.4,322.5z"/>
	</g>
	<g>
		<path class="st3" d="M315.8,320.2c1.9-1.3,3.8-2.6,5.7-4c0.4-0.3,0-0.9-0.4-0.6c-1.9,1.3-3.8,2.6-5.7,4
			C315,319.8,315.4,320.5,315.8,320.2L315.8,320.2z"/>
	</g>
	<g>
		<path class="st3" d="M314.2,317.8c1.9-1.3,3.8-2.6,5.7-4c0.4-0.3,0-0.9-0.4-0.6c-1.9,1.3-3.8,2.6-5.7,4
			C313.4,317.5,313.8,318.1,314.2,317.8L314.2,317.8z"/>
	</g>
	<g>
		<path class="st3" d="M304.8,304.3c1.9-1.3,3.8-2.6,5.7-4c0.4-0.3,0-0.9-0.4-0.6c-1.9,1.3-3.8,2.6-5.7,4
			C304,304,304.4,304.6,304.8,304.3L304.8,304.3z"/>
	</g>
	<g>
		<path class="st3" d="M308.7,315.2c2.7-1.9,5.5-3.8,8.2-5.7c0.4-0.3,0-0.9-0.4-0.6c-2.7,1.9-5.5,3.8-8.2,5.7
			C307.9,314.9,308.3,315.5,308.7,315.2L308.7,315.2z"/>
	</g>
	<g>
		<path class="st3" d="M298.7,305.4c3.4-2.4,6.9-4.8,10.3-7.2c0.4-0.3,0-0.9-0.4-0.6c-3.4,2.4-6.9,4.8-10.3,7.2
			C297.9,305,298.3,305.6,298.7,305.4L298.7,305.4z"/>
	</g>
	<g>
		<path class="st3" d="M312.8,315.9c1.9-1.3,3.8-2.6,5.7-4c0.4-0.3,0-0.9-0.4-0.6c-1.9,1.3-3.8,2.6-5.7,4
			C312,315.5,312.4,316.1,312.8,315.9L312.8,315.9z"/>
	</g>
	<g>
		<path class="st3" d="M309.6,311.3c1.9-1.3,3.8-2.6,5.7-4c0.4-0.3,0-0.9-0.4-0.6c-1.9,1.3-3.8,2.6-5.7,4
			C308.8,310.9,309.3,311.5,309.6,311.3L309.6,311.3z"/>
	</g>
	<g>
		<path class="st3" d="M308,309c1.9-1.3,3.8-2.6,5.7-4c0.4-0.3,0-0.9-0.4-0.6c-1.9,1.3-3.8,2.6-5.7,4
			C307.2,308.7,307.6,309.3,308,309L308,309z"/>
	</g>
	<g>
		<path class="st3" d="M306.5,306.7c1.9-1.3,3.8-2.6,5.7-4c0.4-0.3,0-0.9-0.4-0.6c-1.9,1.3-3.8,2.6-5.7,4
			C305.7,306.4,306.1,307,306.5,306.7L306.5,306.7z"/>
	</g>
	<g>
		<path class="st3" d="M298.7,305.4c3.4-2.4,6.9-4.8,10.3-7.2c0.4-0.3,0-0.9-0.4-0.6c-3.4,2.4-6.9,4.8-10.3,7.2
			C297.9,305,298.3,305.6,298.7,305.4L298.7,305.4z"/>
	</g>
	<g>
		<path class="st3" d="M301.7,299.8c1.9-1.3,3.8-2.6,5.7-4c0.4-0.3,0-0.9-0.4-0.6c-1.9,1.3-3.8,2.6-5.7,4
			C300.9,299.5,301.3,300.1,301.7,299.8L301.7,299.8z"/>
	</g>
	<g>
		<path class="st3" d="M300.1,297.4c1.9-1.3,3.8-2.6,5.7-4c0.4-0.3,0-0.9-0.4-0.6c-1.9,1.3-3.8,2.6-5.7,4
			C299.3,297.1,299.7,297.7,300.1,297.4L300.1,297.4z"/>
	</g>
	<g>
		<path class="st3" d="M298.4,295.1c1.9-1.3,3.8-2.6,5.7-4c0.4-0.3,0-0.9-0.4-0.6c-1.9,1.3-3.8,2.6-5.7,4
			C297.6,294.7,298,295.3,298.4,295.1L298.4,295.1z"/>
	</g>
	<g>
		<path class="st3" d="M289.1,281.5c1.9-1.3,3.8-2.6,5.7-4c0.4-0.3,0-0.9-0.4-0.6c-1.9,1.3-3.8,2.6-5.7,4
			C288.3,281.2,288.7,281.8,289.1,281.5L289.1,281.5z"/>
	</g>
	<g>
		<path class="st3" d="M292.9,292.4c2.7-1.9,5.5-3.8,8.2-5.7c0.4-0.3,0-0.9-0.4-0.6c-2.7,1.9-5.5,3.8-8.2,5.7
			C292.1,292.1,292.5,292.7,292.9,292.4L292.9,292.4z"/>
	</g>
	<g>
		<path class="st3" d="M283,282.6c3.4-2.4,6.9-4.8,10.3-7.2c0.4-0.3,0-0.9-0.4-0.6c-3.4,2.4-6.9,4.8-10.3,7.2
			C282.2,282.3,282.6,282.9,283,282.6L283,282.6z"/>
	</g>
	<g>
		<path class="st3" d="M297.1,293.1c1.9-1.3,3.8-2.6,5.7-4c0.4-0.3,0-0.9-0.4-0.6c-1.9,1.3-3.8,2.6-5.7,4
			C296.3,292.8,296.7,293.4,297.1,293.1L297.1,293.1z"/>
	</g>
	<g>
		<path class="st3" d="M293.9,288.5c1.9-1.3,3.8-2.6,5.7-4c0.4-0.3,0-0.9-0.4-0.6c-1.9,1.3-3.8,2.6-5.7,4
			C293.1,288.2,293.5,288.8,293.9,288.5L293.9,288.5z"/>
	</g>
	<g>
		<path class="st3" d="M292.3,286.2c1.9-1.3,3.8-2.6,5.7-4c0.4-0.3,0-0.9-0.4-0.6c-1.9,1.3-3.8,2.6-5.7,4
			C291.5,285.9,291.9,286.5,292.3,286.2L292.3,286.2z"/>
	</g>
	<g>
		<path class="st3" d="M290.7,284c1.9-1.3,3.8-2.6,5.7-4c0.4-0.3,0-0.9-0.4-0.6c-1.9,1.3-3.8,2.6-5.7,4
			C289.9,283.6,290.4,284.2,290.7,284L290.7,284z"/>
	</g>
	<g>
		<path class="st3" d="M283,282.6c3.4-2.4,6.9-4.8,10.3-7.2c0.4-0.3,0-0.9-0.4-0.6c-3.4,2.4-6.9,4.8-10.3,7.2
			C282.2,282.3,282.6,282.9,283,282.6L283,282.6z"/>
	</g>
	<g>
		<path class="st3" d="M285.9,277c1.9-1.3,3.8-2.6,5.7-4c0.4-0.3,0-0.9-0.4-0.6c-1.9,1.3-3.8,2.6-5.7,4
			C285.1,276.7,285.6,277.3,285.9,277L285.9,277z"/>
	</g>
	<g>
		<path class="st3" d="M284.3,274.7c1.9-1.3,3.8-2.6,5.7-4c0.4-0.3,0-0.9-0.4-0.6c-1.9,1.3-3.8,2.6-5.7,4
			C283.5,274.3,283.9,274.9,284.3,274.7L284.3,274.7z"/>
	</g>
	<g>
		<path class="st3" d="M282.7,272.3c1.9-1.3,3.8-2.6,5.7-4c0.4-0.3,0-0.9-0.4-0.6c-1.9,1.3-3.8,2.6-5.7,4
			C281.9,272,282.3,272.6,282.7,272.3L282.7,272.3z"/>
	</g>
	<g>
		<path class="st3" d="M364.7,390.7c1.9-1.3,3.8-2.6,5.7-4c0.4-0.3,0-0.9-0.4-0.6c-1.9,1.3-3.8,2.6-5.7,4
			C363.9,390.4,364.3,391,364.7,390.7L364.7,390.7z"/>
	</g>
	<g>
		<path class="st3" d="M363.1,388.4c1.9-1.3,3.8-2.6,5.7-4c0.4-0.3,0-0.9-0.4-0.6c-1.9,1.3-3.8,2.6-5.7,4
			C362.3,388,362.7,388.6,363.1,388.4L363.1,388.4z"/>
	</g>
	<g>
		<path class="st3" d="M361.4,386c1.9-1.3,3.8-2.6,5.7-4c0.4-0.3,0-0.9-0.4-0.6c-1.9,1.3-3.8,2.6-5.7,4
			C360.6,385.7,361,386.3,361.4,386L361.4,386z"/>
	</g>
	<g>
		<path class="st3" d="M355.9,383.4c2.7-1.9,5.5-3.8,8.2-5.7c0.4-0.3,0-0.9-0.4-0.6c-2.7,1.9-5.5,3.8-8.2,5.7
			C355.1,383,355.5,383.7,355.9,383.4L355.9,383.4z"/>
	</g>
	<g>
		<path class="st3" d="M360.1,384c1.9-1.3,3.8-2.6,5.7-4c0.4-0.3,0-0.9-0.4-0.6c-1.9,1.3-3.8,2.6-5.7,4
			C359.3,383.7,359.7,384.3,360.1,384L360.1,384z"/>
	</g>
	<g>
		<path class="st3" d="M356.9,379.5c1.9-1.3,3.8-2.6,5.7-4c0.4-0.3,0-0.9-0.4-0.6c-1.9,1.3-3.8,2.6-5.7,4
			C356.1,379.1,356.5,379.7,356.9,379.5L356.9,379.5z"/>
	</g>
	<g>
		<path class="st3" d="M355.3,377.2c1.9-1.3,3.8-2.6,5.7-4c0.4-0.3,0-0.9-0.4-0.6c-1.9,1.3-3.8,2.6-5.7,4
			C354.5,376.8,354.9,377.4,355.3,377.2L355.3,377.2z"/>
	</g>
	<g>
		<path class="st3" d="M353.7,374.9c1.9-1.3,3.8-2.6,5.7-4c0.4-0.3,0-0.9-0.4-0.6c-1.9,1.3-3.8,2.6-5.7,4
			C352.9,374.6,353.4,375.2,353.7,374.9L353.7,374.9z"/>
	</g>
	<g>
		<path class="st3" d="M369.4,397.8c1.9-1.3,3.8-2.6,5.7-4c0.4-0.3,0-0.9-0.4-0.6c-1.9,1.3-3.8,2.6-5.7,4
			C368.6,397.4,369.1,398,369.4,397.8L369.4,397.8z"/>
	</g>
	<g>
		<path class="st3" d="M373.3,408.7c2.7-1.9,5.5-3.8,8.2-5.7c0.4-0.3,0-0.9-0.4-0.6c-2.7,1.9-5.5,3.8-8.2,5.7
			C372.5,408.3,372.9,408.9,373.3,408.7L373.3,408.7z"/>
	</g>
	<g>
		<path class="st3" d="M363.3,398.8c3.4-2.4,6.9-4.8,10.3-7.2c0.4-0.3,0-0.9-0.4-0.6c-3.4,2.4-6.9,4.8-10.3,7.2
			C362.5,398.5,362.9,399.1,363.3,398.8L363.3,398.8z"/>
	</g>
	<g>
		<path class="st3" d="M374.3,404.7c1.9-1.3,3.8-2.6,5.7-4c0.4-0.3,0-0.9-0.4-0.6c-1.9,1.3-3.8,2.6-5.7,4
			C373.5,404.4,373.9,405,374.3,404.7L374.3,404.7z"/>
	</g>
	<g>
		<path class="st3" d="M372.6,402.4c1.9-1.3,3.8-2.6,5.7-4c0.4-0.3,0-0.9-0.4-0.6c-1.9,1.3-3.8,2.6-5.7,4
			C371.8,402.1,372.3,402.7,372.6,402.4L372.6,402.4z"/>
	</g>
	<g>
		<path class="st3" d="M371.1,400.2c1.9-1.3,3.8-2.6,5.7-4c0.4-0.3,0-0.9-0.4-0.6c-1.9,1.3-3.8,2.6-5.7,4
			C370.3,399.8,370.7,400.5,371.1,400.2L371.1,400.2z"/>
	</g>
	<g>
		<path class="st3" d="M363.3,398.8c3.4-2.4,6.9-4.8,10.3-7.2c0.4-0.3,0-0.9-0.4-0.6c-3.4,2.4-6.9,4.8-10.3,7.2
			C362.5,398.5,362.9,399.1,363.3,398.8L363.3,398.8z"/>
	</g>
	<g>
		<path class="st3" d="M366.3,393.3c1.9-1.3,3.8-2.6,5.7-4c0.4-0.3,0-0.9-0.4-0.6c-1.9,1.3-3.8,2.6-5.7,4
			C365.5,392.9,365.9,393.5,366.3,393.3L366.3,393.3z"/>
	</g>
	<g>
		<path class="st3" d="M364.7,390.9c1.9-1.3,3.8-2.6,5.7-4c0.4-0.3,0-0.9-0.4-0.6c-1.9,1.3-3.8,2.6-5.7,4
			C363.9,390.6,364.3,391.2,364.7,390.9L364.7,390.9z"/>
	</g>
	<g>
		<path class="st3" d="M363.1,388.5c1.9-1.3,3.8-2.6,5.7-4c0.4-0.3,0-0.9-0.4-0.6c-1.9,1.3-3.8,2.6-5.7,4
			C362.3,388.2,362.7,388.8,363.1,388.5L363.1,388.5z"/>
	</g>
</g>
<g>
	<g>
		<path class="st3" d="M218.3,189c3.4-2.4,6.9-4.8,10.3-7.2c0.4-0.3,0-0.9-0.4-0.6c-3.4,2.4-6.9,4.8-10.3,7.2
			C217.5,188.7,217.9,189.3,218.3,189L218.3,189z"/>
	</g>
	<g>
		<path class="st3" d="M221.3,183.5c1.9-1.3,3.8-2.6,5.7-4c0.4-0.3,0-0.9-0.4-0.6c-1.9,1.3-3.8,2.6-5.7,4
			C220.5,183.1,220.9,183.7,221.3,183.5L221.3,183.5z"/>
	</g>
	<g>
		<path class="st3" d="M219.7,181.1c1.9-1.3,3.8-2.6,5.7-4c0.4-0.3,0-0.9-0.4-0.6c-1.9,1.3-3.8,2.6-5.7,4
			C218.9,180.8,219.3,181.4,219.7,181.1L219.7,181.1z"/>
	</g>
	<g>
		<path class="st3" d="M218,178.7c1.9-1.3,3.8-2.6,5.7-4c0.4-0.3,0-0.9-0.4-0.6c-1.9,1.3-3.8,2.6-5.7,4
			C217.2,178.4,217.6,179,218,178.7L218,178.7z"/>
	</g>
	<g>
		<path class="st3" d="M208.7,165.2c1.9-1.3,3.8-2.6,5.7-4c0.4-0.3,0-0.9-0.4-0.6c-1.9,1.3-3.8,2.6-5.7,4
			C207.9,164.9,208.3,165.5,208.7,165.2L208.7,165.2z"/>
	</g>
	<g>
		<path class="st3" d="M212.5,176.1c2.7-1.9,5.5-3.8,8.2-5.7c0.4-0.3,0-0.9-0.4-0.6c-2.7,1.9-5.5,3.8-8.2,5.7
			C211.7,175.8,212.1,176.4,212.5,176.1L212.5,176.1z"/>
	</g>
	<g>
		<path class="st3" d="M202.6,166.3c3.4-2.4,6.9-4.8,10.3-7.2c0.4-0.3,0-0.9-0.4-0.6c-3.4,2.4-6.9,4.8-10.3,7.2
			C201.8,165.9,202.2,166.5,202.6,166.3L202.6,166.3z"/>
	</g>
	<g>
		<path class="st3" d="M216.7,176.8c1.9-1.3,3.8-2.6,5.7-4c0.4-0.3,0-0.9-0.4-0.6c-1.9,1.3-3.8,2.6-5.7,4
			C215.9,176.4,216.3,177,216.7,176.8L216.7,176.8z"/>
	</g>
	<g>
		<path class="st3" d="M213.5,172.2c1.9-1.3,3.8-2.6,5.7-4c0.4-0.3,0-0.9-0.4-0.6c-1.9,1.3-3.8,2.6-5.7,4
			C212.7,171.9,213.1,172.5,213.5,172.2L213.5,172.2z"/>
	</g>
	<g>
		<path class="st3" d="M211.9,169.9c1.9-1.3,3.8-2.6,5.7-4c0.4-0.3,0-0.9-0.4-0.6c-1.9,1.3-3.8,2.6-5.7,4
			C211.1,169.6,211.5,170.2,211.9,169.9L211.9,169.9z"/>
	</g>
	<g>
		<path class="st3" d="M210.3,167.6c1.9-1.3,3.8-2.6,5.7-4c0.4-0.3,0-0.9-0.4-0.6c-1.9,1.3-3.8,2.6-5.7,4
			C209.5,167.3,210,167.9,210.3,167.6L210.3,167.6z"/>
	</g>
	<g>
		<path class="st3" d="M202.6,166.3c3.4-2.4,6.9-4.8,10.3-7.2c0.4-0.3,0-0.9-0.4-0.6c-3.4,2.4-6.9,4.8-10.3,7.2
			C201.8,165.9,202.2,166.5,202.6,166.3L202.6,166.3z"/>
	</g>
	<g>
		<path class="st3" d="M205.6,160.7c1.9-1.3,3.8-2.6,5.7-4c0.4-0.3,0-0.9-0.4-0.6c-1.9,1.3-3.8,2.6-5.7,4
			C204.7,160.4,205.2,161,205.6,160.7L205.6,160.7z"/>
	</g>
	<g>
		<path class="st3" d="M203.9,158.4c1.9-1.3,3.8-2.6,5.7-4c0.4-0.3,0-0.9-0.4-0.6c-1.9,1.3-3.8,2.6-5.7,4
			C203.1,158,203.5,158.6,203.9,158.4L203.9,158.4z"/>
	</g>
	<g>
		<path class="st3" d="M202.3,156c1.9-1.3,3.8-2.6,5.7-4c0.4-0.3,0-0.9-0.4-0.6c-1.9,1.3-3.8,2.6-5.7,4
			C201.5,155.7,201.9,156.3,202.3,156L202.3,156z"/>
	</g>
	<g>
		<path class="st3" d="M192.9,142.5c1.9-1.3,3.8-2.6,5.7-4c0.4-0.3,0-0.9-0.4-0.6c-1.9,1.3-3.8,2.6-5.7,4
			C192.1,142.1,192.5,142.7,192.9,142.5L192.9,142.5z"/>
	</g>
	<g>
		<path class="st3" d="M196.8,153.4c2.7-1.9,5.5-3.8,8.2-5.7c0.4-0.3,0-0.9-0.4-0.6c-2.7,1.9-5.5,3.8-8.2,5.7
			C196,153,196.4,153.6,196.8,153.4L196.8,153.4z"/>
	</g>
	<g>
		<path class="st3" d="M186.8,143.5c3.4-2.4,6.9-4.8,10.3-7.2c0.4-0.3,0-0.9-0.4-0.6c-3.4,2.4-6.9,4.8-10.3,7.2
			C186,143.2,186.4,143.8,186.8,143.5L186.8,143.5z"/>
	</g>
	<g>
		<path class="st3" d="M200.9,154c1.9-1.3,3.8-2.6,5.7-4c0.4-0.3,0-0.9-0.4-0.6c-1.9,1.3-3.8,2.6-5.7,4
			C200.1,153.7,200.5,154.3,200.9,154L200.9,154z"/>
	</g>
	<g>
		<path class="st3" d="M197.8,149.4c1.9-1.3,3.8-2.6,5.7-4c0.4-0.3,0-0.9-0.4-0.6c-1.9,1.3-3.8,2.6-5.7,4
			C196.9,149.1,197.4,149.7,197.8,149.4L197.8,149.4z"/>
	</g>
	<g>
		<path class="st3" d="M196.1,147.2c1.9-1.3,3.8-2.6,5.7-4c0.4-0.3,0-0.9-0.4-0.6c-1.9,1.3-3.8,2.6-5.7,4
			C195.3,146.8,195.7,147.4,196.1,147.2L196.1,147.2z"/>
	</g>
	<g>
		<path class="st3" d="M194.6,144.9c1.9-1.3,3.8-2.6,5.7-4c0.4-0.3,0-0.9-0.4-0.6c-1.9,1.3-3.8,2.6-5.7,4
			C193.8,144.6,194.2,145.2,194.6,144.9L194.6,144.9z"/>
	</g>
	<g>
		<path class="st3" d="M186.8,143.5c3.4-2.4,6.9-4.8,10.3-7.2c0.4-0.3,0-0.9-0.4-0.6c-3.4,2.4-6.9,4.8-10.3,7.2
			C186,143.2,186.4,143.8,186.8,143.5L186.8,143.5z"/>
	</g>
	<g>
		<path class="st3" d="M189.8,138c1.9-1.3,3.8-2.6,5.7-4c0.4-0.3,0-0.9-0.4-0.6c-1.9,1.3-3.8,2.6-5.7,4
			C189,137.6,189.4,138.2,189.8,138L189.8,138z"/>
	</g>
	<g>
		<path class="st3" d="M188.2,135.6c1.9-1.3,3.8-2.6,5.7-4c0.4-0.3,0-0.9-0.4-0.6c-1.9,1.3-3.8,2.6-5.7,4
			C187.4,135.3,187.8,135.9,188.2,135.6L188.2,135.6z"/>
	</g>
	<g>
		<path class="st3" d="M186.5,133.2c1.9-1.3,3.8-2.6,5.7-4c0.4-0.3,0-0.9-0.4-0.6c-1.9,1.3-3.8,2.6-5.7,4
			C185.7,132.9,186.1,133.5,186.5,133.2L186.5,133.2z"/>
	</g>
	<g>
		<path class="st3" d="M177.2,119.7c1.9-1.3,3.8-2.6,5.7-4c0.4-0.3,0-0.9-0.4-0.6c-1.9,1.3-3.8,2.6-5.7,4
			C176.4,119.4,176.8,120,177.2,119.7L177.2,119.7z"/>
	</g>
	<g>
		<path class="st3" d="M181,130.6c2.7-1.9,5.5-3.8,8.2-5.7c0.4-0.3,0-0.9-0.4-0.6c-2.7,1.9-5.5,3.8-8.2,5.7
			C180.2,130.3,180.6,130.9,181,130.6L181,130.6z"/>
	</g>
	<g>
		<path class="st3" d="M171.1,120.8c3.4-2.4,6.9-4.8,10.3-7.2c0.4-0.3,0-0.9-0.4-0.6c-3.4,2.4-6.9,4.8-10.3,7.2
			C170.3,120.4,170.7,121,171.1,120.8L171.1,120.8z"/>
	</g>
	<g>
		<path class="st3" d="M185.2,131.3c1.9-1.3,3.8-2.6,5.7-4c0.4-0.3,0-0.9-0.4-0.6c-1.9,1.3-3.8,2.6-5.7,4
			C184.4,130.9,184.8,131.5,185.2,131.3L185.2,131.3z"/>
	</g>
	<g>
		<path class="st3" d="M182,126.7c1.9-1.3,3.8-2.6,5.7-4c0.4-0.3,0-0.9-0.4-0.6c-1.9,1.3-3.8,2.6-5.7,4
			C181.2,126.4,181.6,127,182,126.7L182,126.7z"/>
	</g>
	<g>
		<path class="st3" d="M180.4,124.4c1.9-1.3,3.8-2.6,5.7-4c0.4-0.3,0-0.9-0.4-0.6c-1.9,1.3-3.8,2.6-5.7,4
			C179.6,124.1,180,124.7,180.4,124.4L180.4,124.4z"/>
	</g>
	<g>
		<path class="st3" d="M178.9,122.1c1.9-1.3,3.8-2.6,5.7-4c0.4-0.3,0-0.9-0.4-0.6c-1.9,1.3-3.8,2.6-5.7,4
			C178,121.8,178.5,122.4,178.9,122.1L178.9,122.1z"/>
	</g>
	<g>
		<path class="st3" d="M171.1,120.8c3.4-2.4,6.9-4.8,10.3-7.2c0.4-0.3,0-0.9-0.4-0.6c-3.4,2.4-6.9,4.8-10.3,7.2
			C170.3,120.4,170.7,121,171.1,120.8L171.1,120.8z"/>
	</g>
	<g>
		<path class="st3" d="M174.1,115.2c1.9-1.3,3.8-2.6,5.7-4c0.4-0.3,0-0.9-0.4-0.6c-1.9,1.3-3.8,2.6-5.7,4
			C173.2,114.9,173.7,115.5,174.1,115.2L174.1,115.2z"/>
	</g>
	<g>
		<path class="st3" d="M172.4,112.8c1.9-1.3,3.8-2.6,5.7-4c0.4-0.3,0-0.9-0.4-0.6c-1.9,1.3-3.8,2.6-5.7,4
			C171.6,112.5,172,113.1,172.4,112.8L172.4,112.8z"/>
	</g>
	<g>
		<path class="st3" d="M170.8,110.5c1.9-1.3,3.8-2.6,5.7-4c0.4-0.3,0-0.9-0.4-0.6c-1.9,1.3-3.8,2.6-5.7,4
			C170,110.1,170.4,110.8,170.8,110.5L170.8,110.5z"/>
	</g>
	<g>
		<path class="st3" d="M161.4,97c1.9-1.3,3.8-2.6,5.7-4c0.4-0.3,0-0.9-0.4-0.6c-1.9,1.3-3.8,2.6-5.7,4C160.6,96.6,161,97.2,161.4,97
			L161.4,97z"/>
	</g>
	<g>
		<path class="st3" d="M165.3,107.9c2.7-1.9,5.5-3.8,8.2-5.7c0.4-0.3,0-0.9-0.4-0.6c-2.7,1.9-5.5,3.8-8.2,5.7
			C164.5,107.5,164.9,108.1,165.3,107.9L165.3,107.9z"/>
	</g>
	<g>
		<path class="st3" d="M155.3,98c3.4-2.4,6.9-4.8,10.3-7.2c0.4-0.3,0-0.9-0.4-0.6c-3.4,2.4-6.9,4.8-10.3,7.2
			C154.5,97.7,154.9,98.3,155.3,98L155.3,98z"/>
	</g>
	<g>
		<path class="st3" d="M169.4,108.5c1.9-1.3,3.8-2.6,5.7-4c0.4-0.3,0-0.9-0.4-0.6c-1.9,1.3-3.8,2.6-5.7,4
			C168.6,108.2,169,108.8,169.4,108.5L169.4,108.5z"/>
	</g>
	<g>
		<path class="st3" d="M166.3,103.9c1.9-1.3,3.8-2.6,5.7-4c0.4-0.3,0-0.9-0.4-0.6c-1.9,1.3-3.8,2.6-5.7,4
			C165.4,103.6,165.9,104.2,166.3,103.9L166.3,103.9z"/>
	</g>
	<g>
		<path class="st3" d="M164.6,101.6c1.9-1.3,3.8-2.6,5.7-4c0.4-0.3,0-0.9-0.4-0.6c-1.9,1.3-3.8,2.6-5.7,4
			C163.8,101.3,164.2,101.9,164.6,101.6L164.6,101.6z"/>
	</g>
	<g>
		<path class="st3" d="M163.1,99.4c1.9-1.3,3.8-2.6,5.7-4c0.4-0.3,0-0.9-0.4-0.6c-1.9,1.3-3.8,2.6-5.7,4
			C162.3,99,162.7,99.7,163.1,99.4L163.1,99.4z"/>
	</g>
	<g>
		<path class="st3" d="M155.3,98c3.4-2.4,6.9-4.8,10.3-7.2c0.4-0.3,0-0.9-0.4-0.6c-3.4,2.4-6.9,4.8-10.3,7.2
			C154.5,97.7,154.9,98.3,155.3,98L155.3,98z"/>
	</g>
	<g>
		<path class="st3" d="M158.3,92.5c1.9-1.3,3.8-2.6,5.7-4c0.4-0.3,0-0.9-0.4-0.6c-1.9,1.3-3.8,2.6-5.7,4
			C157.5,92.1,157.9,92.7,158.3,92.5L158.3,92.5z"/>
	</g>
	<g>
		<path class="st3" d="M156.7,90.1c1.9-1.3,3.8-2.6,5.7-4c0.4-0.3,0-0.9-0.4-0.6c-1.9,1.3-3.8,2.6-5.7,4
			C155.9,89.8,156.3,90.4,156.7,90.1L156.7,90.1z"/>
	</g>
	<g>
		<path class="st3" d="M155,87.7c1.9-1.3,3.8-2.6,5.7-4c0.4-0.3,0-0.9-0.4-0.6c-1.9,1.3-3.8,2.6-5.7,4C154.2,87.4,154.7,88,155,87.7
			L155,87.7z"/>
	</g>
	<g>
		<path class="st3" d="M145.7,74.2c1.9-1.3,3.8-2.6,5.7-4c0.4-0.3,0-0.9-0.4-0.6c-1.9,1.3-3.8,2.6-5.7,4
			C144.9,73.9,145.3,74.5,145.7,74.2L145.7,74.2z"/>
	</g>
	<g>
		<path class="st3" d="M149.5,85.1c2.7-1.9,5.5-3.8,8.2-5.7c0.4-0.3,0-0.9-0.4-0.6c-2.7,1.9-5.5,3.8-8.2,5.7
			C148.7,84.8,149.2,85.4,149.5,85.1L149.5,85.1z"/>
	</g>
	<g>
		<path class="st3" d="M139.6,75.3c3.4-2.4,6.9-4.8,10.3-7.2c0.4-0.3,0-0.9-0.4-0.6c-3.4,2.4-6.9,4.8-10.3,7.2
			C138.8,74.9,139.2,75.5,139.6,75.3L139.6,75.3z"/>
	</g>
	<g>
		<path class="st3" d="M153.7,85.8c1.9-1.3,3.8-2.6,5.7-4c0.4-0.3,0-0.9-0.4-0.6c-1.9,1.3-3.8,2.6-5.7,4
			C152.9,85.4,153.3,86,153.7,85.8L153.7,85.8z"/>
	</g>
	<g>
		<path class="st3" d="M150.5,81.2c1.9-1.3,3.8-2.6,5.7-4c0.4-0.3,0-0.9-0.4-0.6c-1.9,1.3-3.8,2.6-5.7,4
			C149.7,80.8,150.1,81.5,150.5,81.2L150.5,81.2z"/>
	</g>
	<g>
		<path class="st3" d="M148.9,78.9c1.9-1.3,3.8-2.6,5.7-4c0.4-0.3,0-0.9-0.4-0.6c-1.9,1.3-3.8,2.6-5.7,4
			C148.1,78.6,148.5,79.2,148.9,78.9L148.9,78.9z"/>
	</g>
	<g>
		<path class="st3" d="M147.4,76.6c1.9-1.3,3.8-2.6,5.7-4c0.4-0.3,0-0.9-0.4-0.6c-1.9,1.3-3.8,2.6-5.7,4
			C146.6,76.3,147,76.9,147.4,76.6L147.4,76.6z"/>
	</g>
	<g>
		<path class="st3" d="M139.6,75.3c3.4-2.4,6.9-4.8,10.3-7.2c0.4-0.3,0-0.9-0.4-0.6c-3.4,2.4-6.9,4.8-10.3,7.2
			C138.8,74.9,139.2,75.5,139.6,75.3L139.6,75.3z"/>
	</g>
	<g>
		<path class="st3" d="M142.6,69.7c1.9-1.3,3.8-2.6,5.7-4c0.4-0.3,0-0.9-0.4-0.6c-1.9,1.3-3.8,2.6-5.7,4
			C141.8,69.4,142.2,70,142.6,69.7L142.6,69.7z"/>
	</g>
	<g>
		<path class="st3" d="M140.9,67.3c1.9-1.3,3.8-2.6,5.7-4c0.4-0.3,0-0.9-0.4-0.6c-1.9,1.3-3.8,2.6-5.7,4
			C140.1,67,140.5,67.6,140.9,67.3L140.9,67.3z"/>
	</g>
	<g>
		<path class="st3" d="M139.3,65c1.9-1.3,3.8-2.6,5.7-4c0.4-0.3,0-0.9-0.4-0.6c-1.9,1.3-3.8,2.6-5.7,4
			C138.5,64.6,138.9,65.2,139.3,65L139.3,65z"/>
	</g>
	<g>
		<path class="st3" d="M101.8,85.8c13.2-9.2,26.5-18.3,39.7-27.5c1.9-1.3,1.5-1.9-0.4-0.6c-13.2,9.2-26.5,18.3-39.7,27.5
			C99.5,86.5,99.9,87.1,101.8,85.8L101.8,85.8z"/>
	</g>
	<g>
		<path class="st3" d="M137.9,63c1.9-1.3,3.8-2.6,5.7-4c0.4-0.3,0-0.9-0.4-0.6c-1.9,1.3-3.8,2.6-5.7,4
			C137.1,62.7,137.5,63.3,137.9,63L137.9,63z"/>
	</g>
</g>
<rect x="39.2" y="126.9" class="st8" width="88.5" height="36.2"/>
<rect x="291.7" y="207.5" class="st9" width="100.2" height="36.2"/>
<rect x="142.8" y="210.3" class="st8" width="88.5" height="36.2"/>
</svg>
