<?xml version="1.0" encoding="utf-8"?>
<!-- Generator: Adobe Illustrator 28.0.0, SVG Export Plug-In . SVG Version: 6.00 Build 0)  -->
<svg version="1.1" id="Layer_1" xmlns="http://www.w3.org/2000/svg" xmlns:xlink="http://www.w3.org/1999/xlink" x="0px" y="0px"
	 viewBox="0 0 410.5 484.8" style="enable-background:new 0 0 410.5 484.8;" xml:space="preserve">
<style type="text/css">
	.st0{fill:none;stroke:#010101;stroke-width:0.4792;stroke-miterlimit:10;}
	.st1{fill:#FFFFFF;stroke:#010101;stroke-width:0.756;stroke-miterlimit:10;}
	.st2{fill:none;stroke:#010101;stroke-width:0.756;stroke-miterlimit:10;}
	.st3{fill:#FFFFFF;stroke:#010101;stroke-width:0.9261;stroke-miterlimit:10;}
	.st4{fill:#FFF200;}
	.st5{fill:#BE1E2D;}
	.st6{fill:#E81E25;}
	.st7{font-family:'AmericanTypewriter-Semibold';}
	.st8{font-size:22.1863px;}
	.st9{fill:none;stroke:#F7941D;stroke-width:2.3583;stroke-miterlimit:10;}
	.st10{fill:#FFFFFF;stroke:#F7941D;stroke-width:2.3583;stroke-miterlimit:10;}
</style>
<path class="st0" d="M253.9,317.2"/>
<path class="st1" d="M271.1,289.1H32.5v-73.4c0-3.1,2.5-5.7,5.7-5.7h227.7c2.9,0,5.2,2.3,5.2,5.2V289.1z"/>
<line class="st2" x1="258" y1="310.5" x2="258" y2="331.9"/>
<polygon class="st1" points="271.1,289.1 32.5,289.1 46.9,310.7 258.4,310.7 "/>
<ellipse class="st3" cx="249.6" cy="251" rx="9.9" ry="1.4"/>
<rect x="52" y="182.5" transform="matrix(-1 -1.224647e-16 1.224647e-16 -1 304.6182 380.7825)" class="st4" width="200.7" height="15.7"/>
<g>
	<g>
		<path class="st5" d="M250.5,198.9c0-4.5,0-8.9,0-13.4c0-0.5-1-0.5-1,0c0,4.5,0,8.9,0,13.4C249.5,199.4,250.5,199.4,250.5,198.9
			L250.5,198.9z"/>
	</g>
	<g>
		<path class="st5" d="M246.8,192.9c0-2.5,0-4.9,0-7.4c0-0.5-1-0.5-1,0c0,2.5,0,4.9,0,7.4C245.8,193.4,246.8,193.4,246.8,192.9
			L246.8,192.9z"/>
	</g>
	<g>
		<path class="st5" d="M243.1,192.9c0-2.5,0-4.9,0-7.4c0-0.5-1-0.5-1,0c0,2.5,0,4.9,0,7.4C242.1,193.4,243.1,193.4,243.1,192.9
			L243.1,192.9z"/>
	</g>
	<g>
		<path class="st5" d="M239.3,192.9c0-2.5,0-4.9,0-7.4c0-0.5-1-0.5-1,0c0,2.5,0,4.9,0,7.4C238.4,193.4,239.3,193.4,239.3,192.9
			L239.3,192.9z"/>
	</g>
	<g>
		<path class="st5" d="M218.1,192.9c0-2.5,0-4.9,0-7.4c0-0.5-1-0.5-1,0c0,2.5,0,4.9,0,7.4C217.1,193.4,218.1,193.4,218.1,192.9
			L218.1,192.9z"/>
	</g>
	<g>
		<path class="st5" d="M232.5,196.2c0-3.5,0-7.1,0-10.6c0-0.5-1-0.5-1,0c0,3.5,0,7.1,0,10.6C231.6,196.7,232.5,196.7,232.5,196.2
			L232.5,196.2z"/>
	</g>
	<g>
		<path class="st5" d="M214.7,198.9c0-4.5,0-8.9,0-13.4c0-0.5-1-0.5-1,0c0,4.5,0,8.9,0,13.4C213.7,199.4,214.7,199.4,214.7,198.9
			L214.7,198.9z"/>
	</g>
	<g>
		<path class="st5" d="M236.2,192.9c0-2.5,0-4.9,0-7.4c0-0.5-1-0.5-1,0c0,2.5,0,4.9,0,7.4C235.3,193.4,236.2,193.4,236.2,192.9
			L236.2,192.9z"/>
	</g>
	<g>
		<path class="st5" d="M229,192.9c0-2.5,0-4.9,0-7.4c0-0.5-1-0.5-1,0c0,2.5,0,4.9,0,7.4C228.1,193.4,229,193.4,229,192.9L229,192.9z
			"/>
	</g>
	<g>
		<path class="st5" d="M225.4,193c0-2.5,0-4.9,0-7.4c0-0.5-1-0.5-1,0c0,2.5,0,4.9,0,7.4C224.4,193.5,225.4,193.5,225.4,193
			L225.4,193z"/>
	</g>
	<g>
		<path class="st5" d="M221.9,192.9c0-2.5,0-4.9,0-7.4c0-0.5-1-0.5-1,0c0,2.5,0,4.9,0,7.4C220.9,193.4,221.9,193.4,221.9,192.9
			L221.9,192.9z"/>
	</g>
	<g>
		<path class="st5" d="M214.7,198.9c0-4.5,0-8.9,0-13.4c0-0.5-1-0.5-1,0c0,4.5,0,8.9,0,13.4C213.7,199.4,214.7,199.4,214.7,198.9
			L214.7,198.9z"/>
	</g>
	<g>
		<path class="st5" d="M211,192.9c0-2.5,0-4.9,0-7.4c0-0.5-1-0.5-1,0c0,2.5,0,4.9,0,7.4C210,193.4,211,193.4,211,192.9L211,192.9z"
			/>
	</g>
	<g>
		<path class="st5" d="M207.3,192.9c0-2.5,0-4.9,0-7.4c0-0.5-1-0.5-1,0c0,2.5,0,4.9,0,7.4C206.3,193.4,207.3,193.4,207.3,192.9
			L207.3,192.9z"/>
	</g>
	<g>
		<path class="st5" d="M203.5,192.9c0-2.5,0-4.9,0-7.4c0-0.5-1-0.5-1,0c0,2.5,0,4.9,0,7.4C202.6,193.4,203.5,193.4,203.5,192.9
			L203.5,192.9z"/>
	</g>
	<g>
		<path class="st5" d="M182.3,192.9c0-2.5,0-4.9,0-7.4c0-0.5-1-0.5-1,0c0,2.5,0,4.9,0,7.4C181.3,193.4,182.3,193.4,182.3,192.9
			L182.3,192.9z"/>
	</g>
	<g>
		<path class="st5" d="M196.7,196.2c0-3.5,0-7.1,0-10.6c0-0.5-1-0.5-1,0c0,3.5,0,7.1,0,10.6C195.8,196.7,196.7,196.7,196.7,196.2
			L196.7,196.2z"/>
	</g>
	<g>
		<path class="st5" d="M178.9,198.9c0-4.5,0-8.9,0-13.4c0-0.5-1-0.5-1,0c0,4.5,0,8.9,0,13.4C178,199.4,178.9,199.4,178.9,198.9
			L178.9,198.9z"/>
	</g>
	<g>
		<path class="st5" d="M200.5,192.9c0-2.5,0-4.9,0-7.4c0-0.5-1-0.5-1,0c0,2.5,0,4.9,0,7.4C199.5,193.4,200.5,193.4,200.5,192.9
			L200.5,192.9z"/>
	</g>
	<g>
		<path class="st5" d="M193.2,192.9c0-2.5,0-4.9,0-7.4c0-0.5-1-0.5-1,0c0,2.5,0,4.9,0,7.4C192.3,193.4,193.2,193.4,193.2,192.9
			L193.2,192.9z"/>
	</g>
	<g>
		<path class="st5" d="M189.6,193c0-2.5,0-4.9,0-7.4c0-0.5-1-0.5-1,0c0,2.5,0,4.9,0,7.4C188.7,193.5,189.6,193.5,189.6,193
			L189.6,193z"/>
	</g>
	<g>
		<path class="st5" d="M186.1,192.9c0-2.5,0-4.9,0-7.4c0-0.5-1-0.5-1,0c0,2.5,0,4.9,0,7.4C185.1,193.4,186.1,193.4,186.1,192.9
			L186.1,192.9z"/>
	</g>
	<g>
		<path class="st5" d="M178.9,198.9c0-4.5,0-8.9,0-13.4c0-0.5-1-0.5-1,0c0,4.5,0,8.9,0,13.4C178,199.4,178.9,199.4,178.9,198.9
			L178.9,198.9z"/>
	</g>
	<g>
		<path class="st5" d="M175.2,192.9c0-2.5,0-4.9,0-7.4c0-0.5-1-0.5-1,0c0,2.5,0,4.9,0,7.4C174.2,193.4,175.2,193.4,175.2,192.9
			L175.2,192.9z"/>
	</g>
	<g>
		<path class="st5" d="M171.5,192.9c0-2.5,0-4.9,0-7.4c0-0.5-1-0.5-1,0c0,2.5,0,4.9,0,7.4C170.5,193.4,171.5,193.4,171.5,192.9
			L171.5,192.9z"/>
	</g>
	<g>
		<path class="st5" d="M167.8,192.9c0-2.5,0-4.9,0-7.4c0-0.5-1-0.5-1,0c0,2.5,0,4.9,0,7.4C166.8,193.4,167.8,193.4,167.8,192.9
			L167.8,192.9z"/>
	</g>
	<g>
		<path class="st5" d="M146.5,192.9c0-2.5,0-4.9,0-7.4c0-0.5-1-0.5-1,0c0,2.5,0,4.9,0,7.4C145.5,193.4,146.5,193.4,146.5,192.9
			L146.5,192.9z"/>
	</g>
	<g>
		<path class="st5" d="M160.9,196.2c0-3.5,0-7.1,0-10.6c0-0.5-1-0.5-1,0c0,3.5,0,7.1,0,10.6C160,196.7,160.9,196.7,160.9,196.2
			L160.9,196.2z"/>
	</g>
	<g>
		<path class="st5" d="M143.1,198.9c0-4.5,0-8.9,0-13.4c0-0.5-1-0.5-1,0c0,4.5,0,8.9,0,13.4C142.2,199.4,143.1,199.4,143.1,198.9
			L143.1,198.9z"/>
	</g>
	<g>
		<path class="st5" d="M164.7,192.9c0-2.5,0-4.9,0-7.4c0-0.5-1-0.5-1,0c0,2.5,0,4.9,0,7.4C163.7,193.4,164.7,193.4,164.7,192.9
			L164.7,192.9z"/>
	</g>
	<g>
		<path class="st5" d="M157.5,192.9c0-2.5,0-4.9,0-7.4c0-0.5-1-0.5-1,0c0,2.5,0,4.9,0,7.4C156.5,193.4,157.5,193.4,157.5,192.9
			L157.5,192.9z"/>
	</g>
	<g>
		<path class="st5" d="M153.8,193c0-2.5,0-4.9,0-7.4c0-0.5-1-0.5-1,0c0,2.5,0,4.9,0,7.4C152.9,193.5,153.8,193.5,153.8,193
			L153.8,193z"/>
	</g>
	<g>
		<path class="st5" d="M150.3,192.9c0-2.5,0-4.9,0-7.4c0-0.5-1-0.5-1,0c0,2.5,0,4.9,0,7.4C149.3,193.4,150.3,193.4,150.3,192.9
			L150.3,192.9z"/>
	</g>
	<g>
		<path class="st5" d="M143.1,198.9c0-4.5,0-8.9,0-13.4c0-0.5-1-0.5-1,0c0,4.5,0,8.9,0,13.4C142.2,199.4,143.1,199.4,143.1,198.9
			L143.1,198.9z"/>
	</g>
	<g>
		<path class="st5" d="M139.4,192.9c0-2.5,0-4.9,0-7.4c0-0.5-1-0.5-1,0c0,2.5,0,4.9,0,7.4C138.4,193.4,139.4,193.4,139.4,192.9
			L139.4,192.9z"/>
	</g>
	<g>
		<path class="st5" d="M135.7,192.9c0-2.5,0-4.9,0-7.4c0-0.5-1-0.5-1,0c0,2.5,0,4.9,0,7.4C134.7,193.4,135.7,193.4,135.7,192.9
			L135.7,192.9z"/>
	</g>
	<g>
		<path class="st5" d="M132,192.9c0-2.5,0-4.9,0-7.4c0-0.5-1-0.5-1,0c0,2.5,0,4.9,0,7.4C131,193.4,132,193.4,132,192.9L132,192.9z"
			/>
	</g>
	<g>
		<path class="st5" d="M110.7,192.9c0-2.5,0-4.9,0-7.4c0-0.5-1-0.5-1,0c0,2.5,0,4.9,0,7.4C109.7,193.4,110.7,193.4,110.7,192.9
			L110.7,192.9z"/>
	</g>
	<g>
		<path class="st5" d="M125.1,196.2c0-3.5,0-7.1,0-10.6c0-0.5-1-0.5-1,0c0,3.5,0,7.1,0,10.6C124.2,196.7,125.1,196.7,125.1,196.2
			L125.1,196.2z"/>
	</g>
	<g>
		<path class="st5" d="M107.3,198.9c0-4.5,0-8.9,0-13.4c0-0.5-1-0.5-1,0c0,4.5,0,8.9,0,13.4C106.4,199.4,107.3,199.4,107.3,198.9
			L107.3,198.9z"/>
	</g>
	<g>
		<path class="st5" d="M128.9,192.9c0-2.5,0-4.9,0-7.4c0-0.5-1-0.5-1,0c0,2.5,0,4.9,0,7.4C127.9,193.4,128.9,193.4,128.9,192.9
			L128.9,192.9z"/>
	</g>
	<g>
		<path class="st5" d="M121.7,192.9c0-2.5,0-4.9,0-7.4c0-0.5-1-0.5-1,0c0,2.5,0,4.9,0,7.4C120.7,193.4,121.7,193.4,121.7,192.9
			L121.7,192.9z"/>
	</g>
	<g>
		<path class="st5" d="M118,193c0-2.5,0-4.9,0-7.4c0-0.5-1-0.5-1,0c0,2.5,0,4.9,0,7.4C117.1,193.5,118,193.5,118,193L118,193z"/>
	</g>
	<g>
		<path class="st5" d="M114.5,192.9c0-2.5,0-4.9,0-7.4c0-0.5-1-0.5-1,0c0,2.5,0,4.9,0,7.4C113.6,193.4,114.5,193.4,114.5,192.9
			L114.5,192.9z"/>
	</g>
	<g>
		<path class="st5" d="M107.3,198.9c0-4.5,0-8.9,0-13.4c0-0.5-1-0.5-1,0c0,4.5,0,8.9,0,13.4C106.4,199.4,107.3,199.4,107.3,198.9
			L107.3,198.9z"/>
	</g>
	<g>
		<path class="st5" d="M103.6,192.9c0-2.5,0-4.9,0-7.4c0-0.5-1-0.5-1,0c0,2.5,0,4.9,0,7.4C102.7,193.4,103.6,193.4,103.6,192.9
			L103.6,192.9z"/>
	</g>
	<g>
		<path class="st5" d="M99.9,192.9c0-2.5,0-4.9,0-7.4c0-0.5-1-0.5-1,0c0,2.5,0,4.9,0,7.4C98.9,193.4,99.9,193.4,99.9,192.9
			L99.9,192.9z"/>
	</g>
	<g>
		<path class="st5" d="M96.2,192.9c0-2.5,0-4.9,0-7.4c0-0.5-1-0.5-1,0c0,2.5,0,4.9,0,7.4C95.2,193.4,96.2,193.4,96.2,192.9
			L96.2,192.9z"/>
	</g>
	<g>
		<path class="st5" d="M74.9,192.9c0-2.5,0-4.9,0-7.4c0-0.5-1-0.5-1,0c0,2.5,0,4.9,0,7.4C74,193.4,74.9,193.4,74.9,192.9L74.9,192.9
			z"/>
	</g>
	<g>
		<path class="st5" d="M89.3,196.2c0-3.5,0-7.1,0-10.6c0-0.5-1-0.5-1,0c0,3.5,0,7.1,0,10.6C88.4,196.7,89.3,196.7,89.3,196.2
			L89.3,196.2z"/>
	</g>
	<g>
		<path class="st5" d="M71.5,198.9c0-4.5,0-8.9,0-13.4c0-0.5-1-0.5-1,0c0,4.5,0,8.9,0,13.4C70.6,199.4,71.5,199.4,71.5,198.9
			L71.5,198.9z"/>
	</g>
	<g>
		<path class="st5" d="M93.1,192.9c0-2.5,0-4.9,0-7.4c0-0.5-1-0.5-1,0c0,2.5,0,4.9,0,7.4C92.1,193.4,93.1,193.4,93.1,192.9
			L93.1,192.9z"/>
	</g>
	<g>
		<path class="st5" d="M85.9,192.9c0-2.5,0-4.9,0-7.4c0-0.5-1-0.5-1,0c0,2.5,0,4.9,0,7.4C84.9,193.4,85.9,193.4,85.9,192.9
			L85.9,192.9z"/>
	</g>
	<g>
		<path class="st5" d="M82.2,193c0-2.5,0-4.9,0-7.4c0-0.5-1-0.5-1,0c0,2.5,0,4.9,0,7.4C81.3,193.5,82.2,193.5,82.2,193L82.2,193z"/>
	</g>
	<g>
		<path class="st5" d="M78.7,192.9c0-2.5,0-4.9,0-7.4c0-0.5-1-0.5-1,0c0,2.5,0,4.9,0,7.4C77.8,193.4,78.7,193.4,78.7,192.9
			L78.7,192.9z"/>
	</g>
	<g>
		<path class="st5" d="M71.5,198.9c0-4.5,0-8.9,0-13.4c0-0.5-1-0.5-1,0c0,4.5,0,8.9,0,13.4C70.6,199.4,71.5,199.4,71.5,198.9
			L71.5,198.9z"/>
	</g>
	<g>
		<path class="st5" d="M67.8,192.9c0-2.5,0-4.9,0-7.4c0-0.5-1-0.5-1,0c0,2.5,0,4.9,0,7.4C66.9,193.4,67.8,193.4,67.8,192.9
			L67.8,192.9z"/>
	</g>
	<g>
		<path class="st5" d="M64.1,192.9c0-2.5,0-4.9,0-7.4c0-0.5-1-0.5-1,0c0,2.5,0,4.9,0,7.4C63.2,193.4,64.1,193.4,64.1,192.9
			L64.1,192.9z"/>
	</g>
	<g>
		<path class="st5" d="M60.4,192.9c0-2.5,0-4.9,0-7.4c0-0.5-1-0.5-1,0c0,2.5,0,4.9,0,7.4C59.4,193.4,60.4,193.4,60.4,192.9
			L60.4,192.9z"/>
	</g>
	<g>
		<path class="st5" d="M55,238.4c0-17.1,0-34.3,0-51.4c0-2.4-1-2.4-1,0c0,17.1,0,34.3,0,51.4C54,240.8,55,240.8,55,238.4L55,238.4z"
			/>
	</g>
	<g>
		<path class="st5" d="M57.3,192.9c0-2.5,0-4.9,0-7.4c0-0.5-1-0.5-1,0c0,2.5,0,4.9,0,7.4C56.3,193.4,57.3,193.4,57.3,192.9
			L57.3,192.9z"/>
	</g>
	<g>
		<path class="st5" d="M250.5,238.4c0-17.1,0-34.3,0-51.4c0-2.4-1-2.4-1,0c0,17.1,0,34.3,0,51.4
			C249.5,240.8,250.5,240.8,250.5,238.4L250.5,238.4z"/>
	</g>
</g>
<rect x="278.1" y="242.2" transform="matrix(8.168143e-07 -1 1 8.168143e-07 70.5817 570.7239)" class="st4" width="85.1" height="15.7"/>
<g>
	<g>
		<path class="st5" d="M318.1,291.2c2.5,0,4.9,0,7.4,0c0.5,0,0.5-1,0-1c-2.5,0-4.9,0-7.4,0C317.6,290.3,317.6,291.2,318.1,291.2
			L318.1,291.2z"/>
	</g>
	<g>
		<path class="st5" d="M318.1,287.5c2.5,0,4.9,0,7.4,0c0.5,0,0.5-1,0-1c-2.5,0-4.9,0-7.4,0C317.6,286.6,317.6,287.5,318.1,287.5
			L318.1,287.5z"/>
	</g>
	<g>
		<path class="st5" d="M318.1,266.3c2.5,0,4.9,0,7.4,0c0.5,0,0.5-1,0-1c-2.5,0-4.9,0-7.4,0C317.6,265.3,317.6,266.3,318.1,266.3
			L318.1,266.3z"/>
	</g>
	<g>
		<path class="st5" d="M314.9,280.7c3.5,0,7.1,0,10.6,0c0.5,0,0.5-1,0-1c-3.5,0-7.1,0-10.6,0C314.4,279.7,314.4,280.7,314.9,280.7
			L314.9,280.7z"/>
	</g>
	<g>
		<path class="st5" d="M312.1,262.9c4.5,0,8.9,0,13.4,0c0.5,0,0.5-1,0-1c-4.5,0-8.9,0-13.4,0C311.6,261.9,311.6,262.9,312.1,262.9
			L312.1,262.9z"/>
	</g>
	<g>
		<path class="st5" d="M318.1,284.4c2.5,0,4.9,0,7.4,0c0.5,0,0.5-1,0-1c-2.5,0-4.9,0-7.4,0C317.6,283.5,317.6,284.4,318.1,284.4
			L318.1,284.4z"/>
	</g>
	<g>
		<path class="st5" d="M318.1,277.2c2.5,0,4.9,0,7.4,0c0.5,0,0.5-1,0-1c-2.5,0-4.9,0-7.4,0C317.6,276.3,317.6,277.2,318.1,277.2
			L318.1,277.2z"/>
	</g>
	<g>
		<path class="st5" d="M318.1,273.6c2.5,0,4.9,0,7.4,0c0.5,0,0.5-1,0-1c-2.5,0-4.9,0-7.4,0C317.6,272.6,317.6,273.6,318.1,273.6
			L318.1,273.6z"/>
	</g>
	<g>
		<path class="st5" d="M318.1,270.1c2.5,0,4.9,0,7.4,0c0.5,0,0.5-1,0-1c-2.5,0-4.9,0-7.4,0C317.6,269.1,317.6,270.1,318.1,270.1
			L318.1,270.1z"/>
	</g>
	<g>
		<path class="st5" d="M312.1,262.9c4.5,0,8.9,0,13.4,0c0.5,0,0.5-1,0-1c-4.5,0-8.9,0-13.4,0C311.6,261.9,311.6,262.9,312.1,262.9
			L312.1,262.9z"/>
	</g>
	<g>
		<path class="st5" d="M318.1,259.2c2.5,0,4.9,0,7.4,0c0.5,0,0.5-1,0-1c-2.5,0-4.9,0-7.4,0C317.6,258.2,317.6,259.2,318.1,259.2
			L318.1,259.2z"/>
	</g>
	<g>
		<path class="st5" d="M318.1,255.4c2.5,0,4.9,0,7.4,0c0.5,0,0.5-1,0-1c-2.5,0-4.9,0-7.4,0C317.6,254.5,317.6,255.4,318.1,255.4
			L318.1,255.4z"/>
	</g>
	<g>
		<path class="st5" d="M318.1,251.7c2.5,0,4.9,0,7.4,0c0.5,0,0.5-1,0-1c-2.5,0-4.9,0-7.4,0C317.6,250.8,317.6,251.7,318.1,251.7
			L318.1,251.7z"/>
	</g>
	<g>
		<path class="st5" d="M318.1,230.5c2.5,0,4.9,0,7.4,0c0.5,0,0.5-1,0-1c-2.5,0-4.9,0-7.4,0C317.6,229.5,317.6,230.5,318.1,230.5
			L318.1,230.5z"/>
	</g>
	<g>
		<path class="st5" d="M314.9,244.9c3.5,0,7.1,0,10.6,0c0.5,0,0.5-1,0-1c-3.5,0-7.1,0-10.6,0C314.4,243.9,314.4,244.9,314.9,244.9
			L314.9,244.9z"/>
	</g>
	<g>
		<path class="st5" d="M312.1,227.1c4.5,0,8.9,0,13.4,0c0.5,0,0.5-1,0-1c-4.5,0-8.9,0-13.4,0C311.6,226.1,311.6,227.1,312.1,227.1
			L312.1,227.1z"/>
	</g>
	<g>
		<path class="st5" d="M318.1,248.6c2.5,0,4.9,0,7.4,0c0.5,0,0.5-1,0-1c-2.5,0-4.9,0-7.4,0C317.6,247.7,317.6,248.6,318.1,248.6
			L318.1,248.6z"/>
	</g>
	<g>
		<path class="st5" d="M318.1,241.4c2.5,0,4.9,0,7.4,0c0.5,0,0.5-1,0-1c-2.5,0-4.9,0-7.4,0C317.6,240.5,317.6,241.4,318.1,241.4
			L318.1,241.4z"/>
	</g>
	<g>
		<path class="st5" d="M318.1,237.8c2.5,0,4.9,0,7.4,0c0.5,0,0.5-1,0-1c-2.5,0-4.9,0-7.4,0C317.6,236.8,317.6,237.8,318.1,237.8
			L318.1,237.8z"/>
	</g>
	<g>
		<path class="st5" d="M318.1,234.3c2.5,0,4.9,0,7.4,0c0.5,0,0.5-1,0-1c-2.5,0-4.9,0-7.4,0C317.6,233.3,317.6,234.3,318.1,234.3
			L318.1,234.3z"/>
	</g>
	<g>
		<path class="st5" d="M312.1,227.1c4.5,0,8.9,0,13.4,0c0.5,0,0.5-1,0-1c-4.5,0-8.9,0-13.4,0C311.6,226.1,311.6,227.1,312.1,227.1
			L312.1,227.1z"/>
	</g>
	<g>
		<path class="st5" d="M318.1,223.4c2.5,0,4.9,0,7.4,0c0.5,0,0.5-1,0-1c-2.5,0-4.9,0-7.4,0C317.6,222.4,317.6,223.4,318.1,223.4
			L318.1,223.4z"/>
	</g>
	<g>
		<path class="st5" d="M318.1,219.7c2.5,0,4.9,0,7.4,0c0.5,0,0.5-1,0-1c-2.5,0-4.9,0-7.4,0C317.6,218.7,317.6,219.7,318.1,219.7
			L318.1,219.7z"/>
	</g>
	<g>
		<path class="st5" d="M318.1,215.9c2.5,0,4.9,0,7.4,0c0.5,0,0.5-1,0-1c-2.5,0-4.9,0-7.4,0C317.6,215,317.6,215.9,318.1,215.9
			L318.1,215.9z"/>
	</g>
	<g>
		<path class="st5" d="M272.6,210.5c17.1,0,34.3,0,51.4,0c2.4,0,2.4-1,0-1c-17.1,0-34.3,0-51.4,0
			C270.2,209.6,270.2,210.5,272.6,210.5L272.6,210.5z"/>
	</g>
	<g>
		<path class="st5" d="M318.1,212.8c2.5,0,4.9,0,7.4,0c0.5,0,0.5-1,0-1c-2.5,0-4.9,0-7.4,0C317.6,211.9,317.6,212.8,318.1,212.8
			L318.1,212.8z"/>
	</g>
	<g>
		<path class="st5" d="M272.9,291.2c17.1,0,34.3,0,51.4,0c2.4,0,2.4-1,0-1c-17.1,0-34.3,0-51.4,0
			C270.5,290.3,270.5,291.2,272.9,291.2L272.9,291.2z"/>
	</g>
</g>
<text transform="matrix(1 0 0 1 82.0252 164.4537)" class="st6 st7 st8">J</text>
<text transform="matrix(1 0 0 1 279.9715 258.21)" class="st6 st7 st8">K</text>
<rect x="101.7" y="138.3" class="st9" width="94.3" height="38.6"/>
<rect x="302.1" y="232.2" class="st10" width="94.3" height="38.6"/>
</svg>
