<?xml version="1.0" encoding="utf-8"?>
<!-- Generator: Adobe Illustrator 28.0.0, SVG Export Plug-In . SVG Version: 6.00 Build 0)  -->
<svg version="1.1" id="Layer_1" xmlns="http://www.w3.org/2000/svg" xmlns:xlink="http://www.w3.org/1999/xlink" x="0px" y="0px"
	 viewBox="0 0 410.5 484.8" style="enable-background:new 0 0 410.5 484.8;" xml:space="preserve">
<style type="text/css">
	.st0{fill:#FFF200;}
	.st1{fill:#FFFFFF;stroke:#000000;stroke-width:1.4254;stroke-miterlimit:10;}
	.st2{fill:#FFFFFF;stroke:#000000;stroke-width:0.7127;stroke-miterlimit:10;}
	.st3{fill:#BE1E2D;}
	.st4{fill:#E81E25;}
	.st5{font-family:'AmericanTypewriter-Semibold';}
	.st6{font-size:27.3309px;}
	.st7{fill:#FFFFFF;stroke:#F7941D;stroke-width:2.9051;stroke-miterlimit:10;}
</style>
<rect x="34" y="322.1" class="st0" width="348.4" height="19.4"/>
<path class="st1" d="M33.9,292.6c0,0,138.2-8.4,343.2-0.6c25.5-13.6,51.3-41-17.1-41l-309.9,0h-1.9C48.2,251-38,250.3,33.9,292.6z"
	/>
<path class="st1" d="M19.8,187c23.2,33.2,28.3,64,28.3,64l311.9,0c0,0,1.9-27.9,29.3-59.6C144.3,216.5,19.8,187,19.8,187z"/>
<ellipse transform="matrix(0.8109 -0.5852 0.5852 0.8109 -86.8723 272.8307)" class="st2" cx="378.7" cy="270.8" rx="0.9" ry="6.8"/>
<g>
	<g>
		<path class="st3" d="M35.6,279.7c0,19,0,38,0,56.9c0,2.1,1,2.1,1,0c0-19,0-38,0-56.9C36.5,277.5,35.6,277.5,35.6,279.7L35.6,279.7
			z"/>
	</g>
	<g>
		<path class="st3" d="M39.3,328.6c0,3,0,6.1,0,9.1c0,0.6,1,0.6,1,0c0-3,0-6.1,0-9.1C40.3,328,39.3,328,39.3,328.6L39.3,328.6z"/>
	</g>
	<g>
		<path class="st3" d="M43.1,328.6c0,3,0,6.1,0,9.1c0,0.6,1,0.6,1,0c0-3,0-6.1,0-9.1C44.1,328,43.1,328,43.1,328.6L43.1,328.6z"/>
	</g>
	<g>
		<path class="st3" d="M46.9,328.6c0,3,0,6.1,0,9.1c0,0.6,1,0.6,1,0c0-3,0-6.1,0-9.1C47.8,328,46.9,328,46.9,328.6L46.9,328.6z"/>
	</g>
	<g>
		<path class="st3" d="M68.4,328.6c0,3,0,6.1,0,9.1c0,0.6,1,0.6,1,0c0-3,0-6.1,0-9.1C69.4,328,68.4,328,68.4,328.6L68.4,328.6z"/>
	</g>
	<g>
		<path class="st3" d="M53.8,324.7c0,4.4,0,8.7,0,13.1c0,0.6,1,0.6,1,0c0-4.4,0-8.7,0-13.1C54.8,324,53.8,324,53.8,324.7L53.8,324.7
			z"/>
	</g>
	<g>
		<path class="st3" d="M71.9,321.3c0,5.5,0,11,0,16.5c0,0.6,1,0.6,1,0c0-5.5,0-11,0-16.5C72.8,320.6,71.9,320.6,71.9,321.3
			L71.9,321.3z"/>
	</g>
	<g>
		<path class="st3" d="M50,328.6c0,3,0,6.1,0,9.1c0,0.6,1,0.6,1,0c0-3,0-6.1,0-9.1C51,328,50,328,50,328.6L50,328.6z"/>
	</g>
	<g>
		<path class="st3" d="M57.3,328.6c0,3,0,6.1,0,9.1c0,0.6,1,0.6,1,0c0-3,0-6.1,0-9.1C58.3,328,57.3,328,57.3,328.6L57.3,328.6z"/>
	</g>
	<g>
		<path class="st3" d="M61,328.6c0,3,0,6.1,0,9.1c0,0.6,1,0.6,1,0c0-3,0-6.1,0-9.1C62,328,61,328,61,328.6L61,328.6z"/>
	</g>
	<g>
		<path class="st3" d="M64.6,328.6c0,3,0,6.1,0,9.1c0,0.6,1,0.6,1,0c0-3,0-6.1,0-9.1C65.5,328,64.6,328,64.6,328.6L64.6,328.6z"/>
	</g>
	<g>
		<path class="st3" d="M71.9,321.3c0,5.5,0,11,0,16.5c0,0.6,1,0.6,1,0c0-5.5,0-11,0-16.5C72.8,320.6,71.9,320.6,71.9,321.3
			L71.9,321.3z"/>
	</g>
	<g>
		<path class="st3" d="M75.6,328.6c0,3,0,6.1,0,9.1c0,0.6,1,0.6,1,0c0-3,0-6.1,0-9.1C76.6,328,75.6,328,75.6,328.6L75.6,328.6z"/>
	</g>
	<g>
		<path class="st3" d="M79.4,328.6c0,3,0,6.1,0,9.1c0,0.6,1,0.6,1,0c0-3,0-6.1,0-9.1C80.4,328,79.4,328,79.4,328.6L79.4,328.6z"/>
	</g>
	<g>
		<path class="st3" d="M83.2,328.6c0,3,0,6.1,0,9.1c0,0.6,1,0.6,1,0c0-3,0-6.1,0-9.1C84.1,328,83.2,328,83.2,328.6L83.2,328.6z"/>
	</g>
	<g>
		<path class="st3" d="M104.8,328.6c0,3,0,6.1,0,9.1c0,0.6,1,0.6,1,0c0-3,0-6.1,0-9.1C105.7,328,104.8,328,104.8,328.6L104.8,328.6z
			"/>
	</g>
	<g>
		<path class="st3" d="M90.1,324.7c0,4.4,0,8.7,0,13.1c0,0.6,1,0.6,1,0c0-4.4,0-8.7,0-13.1C91.1,324,90.1,324,90.1,324.7L90.1,324.7
			z"/>
	</g>
	<g>
		<path class="st3" d="M108.2,321.3c0,5.5,0,11,0,16.5c0,0.6,1,0.6,1,0c0-5.5,0-11,0-16.5C109.2,320.6,108.2,320.6,108.2,321.3
			L108.2,321.3z"/>
	</g>
	<g>
		<path class="st3" d="M86.3,328.6c0,3,0,6.1,0,9.1c0,0.6,1,0.6,1,0c0-3,0-6.1,0-9.1C87.3,328,86.3,328,86.3,328.6L86.3,328.6z"/>
	</g>
	<g>
		<path class="st3" d="M93.6,328.6c0,3,0,6.1,0,9.1c0,0.6,1,0.6,1,0c0-3,0-6.1,0-9.1C94.6,328,93.6,328,93.6,328.6L93.6,328.6z"/>
	</g>
	<g>
		<path class="st3" d="M97.3,328.6c0,3,0,6.1,0,9.1c0,0.6,1,0.6,1,0c0-3,0-6.1,0-9.1C98.3,328,97.3,328,97.3,328.6L97.3,328.6z"/>
	</g>
	<g>
		<path class="st3" d="M100.9,328.6c0,3,0,6.1,0,9.1c0,0.6,1,0.6,1,0c0-3,0-6.1,0-9.1C101.9,328,100.9,328,100.9,328.6L100.9,328.6z
			"/>
	</g>
	<g>
		<path class="st3" d="M108.2,321.3c0,5.5,0,11,0,16.5c0,0.6,1,0.6,1,0c0-5.5,0-11,0-16.5C109.2,320.6,108.2,320.6,108.2,321.3
			L108.2,321.3z"/>
	</g>
	<g>
		<path class="st3" d="M112,328.6c0,3,0,6.1,0,9.1c0,0.6,1,0.6,1,0c0-3,0-6.1,0-9.1C112.9,328,112,328,112,328.6L112,328.6z"/>
	</g>
	<g>
		<path class="st3" d="M115.7,328.6c0,3,0,6.1,0,9.1c0,0.6,1,0.6,1,0c0-3,0-6.1,0-9.1C116.7,328,115.7,328,115.7,328.6L115.7,328.6z
			"/>
	</g>
	<g>
		<path class="st3" d="M119.5,328.6c0,3,0,6.1,0,9.1c0,0.6,1,0.6,1,0c0-3,0-6.1,0-9.1C120.5,328,119.5,328,119.5,328.6L119.5,328.6z
			"/>
	</g>
	<g>
		<path class="st3" d="M141.1,328.6c0,3,0,6.1,0,9.1c0,0.6,1,0.6,1,0c0-3,0-6.1,0-9.1C142,328,141.1,328,141.1,328.6L141.1,328.6z"
			/>
	</g>
	<g>
		<path class="st3" d="M126.4,324.7c0,4.4,0,8.7,0,13.1c0,0.6,1,0.6,1,0c0-4.4,0-8.7,0-13.1C127.4,324,126.4,324,126.4,324.7
			L126.4,324.7z"/>
	</g>
	<g>
		<path class="st3" d="M144.5,321.3c0,5.5,0,11,0,16.5c0,0.6,1,0.6,1,0c0-5.5,0-11,0-16.5C145.5,320.6,144.5,320.6,144.5,321.3
			L144.5,321.3z"/>
	</g>
	<g>
		<path class="st3" d="M122.6,328.6c0,3,0,6.1,0,9.1c0,0.6,1,0.6,1,0c0-3,0-6.1,0-9.1C123.6,328,122.6,328,122.6,328.6L122.6,328.6z
			"/>
	</g>
	<g>
		<path class="st3" d="M130,328.6c0,3,0,6.1,0,9.1c0,0.6,1,0.6,1,0c0-3,0-6.1,0-9.1C130.9,328,130,328,130,328.6L130,328.6z"/>
	</g>
	<g>
		<path class="st3" d="M133.6,328.6c0,3,0,6.1,0,9.1c0,0.6,1,0.6,1,0c0-3,0-6.1,0-9.1C134.6,328,133.6,328,133.6,328.6L133.6,328.6z
			"/>
	</g>
	<g>
		<path class="st3" d="M137.2,328.6c0,3,0,6.1,0,9.1c0,0.6,1,0.6,1,0c0-3,0-6.1,0-9.1C138.2,328,137.2,328,137.2,328.6L137.2,328.6z
			"/>
	</g>
	<g>
		<path class="st3" d="M144.5,321.3c0,5.5,0,11,0,16.5c0,0.6,1,0.6,1,0c0-5.5,0-11,0-16.5C145.5,320.6,144.5,320.6,144.5,321.3
			L144.5,321.3z"/>
	</g>
	<g>
		<path class="st3" d="M148.3,328.6c0,3,0,6.1,0,9.1c0,0.6,1,0.6,1,0c0-3,0-6.1,0-9.1C149.2,328,148.3,328,148.3,328.6L148.3,328.6z
			"/>
	</g>
	<g>
		<path class="st3" d="M152,328.6c0,3,0,6.1,0,9.1c0,0.6,1,0.6,1,0c0-3,0-6.1,0-9.1C153,328,152,328,152,328.6L152,328.6z"/>
	</g>
	<g>
		<path class="st3" d="M155.8,328.6c0,3,0,6.1,0,9.1c0,0.6,1,0.6,1,0c0-3,0-6.1,0-9.1C156.8,328,155.8,328,155.8,328.6L155.8,328.6z
			"/>
	</g>
	<g>
		<path class="st3" d="M177.4,328.6c0,3,0,6.1,0,9.1c0,0.6,1,0.6,1,0c0-3,0-6.1,0-9.1C178.4,328,177.4,328,177.4,328.6L177.4,328.6z
			"/>
	</g>
	<g>
		<path class="st3" d="M162.8,324.7c0,4.4,0,8.7,0,13.1c0,0.6,1,0.6,1,0c0-4.4,0-8.7,0-13.1C163.7,324,162.8,324,162.8,324.7
			L162.8,324.7z"/>
	</g>
	<g>
		<path class="st3" d="M180.8,321.3c0,5.5,0,11,0,16.5c0,0.6,1,0.6,1,0c0-5.5,0-11,0-16.5C181.8,320.6,180.8,320.6,180.8,321.3
			L180.8,321.3z"/>
	</g>
	<g>
		<path class="st3" d="M159,328.6c0,3,0,6.1,0,9.1c0,0.6,1,0.6,1,0c0-3,0-6.1,0-9.1C159.9,328,159,328,159,328.6L159,328.6z"/>
	</g>
	<g>
		<path class="st3" d="M166.3,328.6c0,3,0,6.1,0,9.1c0,0.6,1,0.6,1,0c0-3,0-6.1,0-9.1C167.2,328,166.3,328,166.3,328.6L166.3,328.6z
			"/>
	</g>
	<g>
		<path class="st3" d="M170,328.6c0,3,0,6.1,0,9.1c0,0.6,1,0.6,1,0c0-3,0-6.1,0-9.1C170.9,328,170,328,170,328.6L170,328.6z"/>
	</g>
	<g>
		<path class="st3" d="M173.5,328.6c0,3,0,6.1,0,9.1c0,0.6,1,0.6,1,0c0-3,0-6.1,0-9.1C174.5,328,173.5,328,173.5,328.6L173.5,328.6z
			"/>
	</g>
	<g>
		<path class="st3" d="M180.8,321.3c0,5.5,0,11,0,16.5c0,0.6,1,0.6,1,0c0-5.5,0-11,0-16.5C181.8,320.6,180.8,320.6,180.8,321.3
			L180.8,321.3z"/>
	</g>
	<g>
		<path class="st3" d="M184.6,328.6c0,3,0,6.1,0,9.1c0,0.6,1,0.6,1,0c0-3,0-6.1,0-9.1C185.6,328,184.6,328,184.6,328.6L184.6,328.6z
			"/>
	</g>
	<g>
		<path class="st3" d="M188.4,328.6c0,3,0,6.1,0,9.1c0,0.6,1,0.6,1,0c0-3,0-6.1,0-9.1C189.3,328,188.4,328,188.4,328.6L188.4,328.6z
			"/>
	</g>
	<g>
		<path class="st3" d="M192.1,328.6c0,3,0,6.1,0,9.1c0,0.6,1,0.6,1,0c0-3,0-6.1,0-9.1C193.1,328,192.1,328,192.1,328.6L192.1,328.6z
			"/>
	</g>
	<g>
		<path class="st3" d="M213.7,328.6c0,3,0,6.1,0,9.1c0,0.6,1,0.6,1,0c0-3,0-6.1,0-9.1C214.7,328,213.7,328,213.7,328.6L213.7,328.6z
			"/>
	</g>
	<g>
		<path class="st3" d="M199.1,324.7c0,4.4,0,8.7,0,13.1c0,0.6,1,0.6,1,0c0-4.4,0-8.7,0-13.1C200,324,199.1,324,199.1,324.7
			L199.1,324.7z"/>
	</g>
	<g>
		<path class="st3" d="M217.2,321.3c0,5.5,0,11,0,16.5c0,0.6,1,0.6,1,0c0-5.5,0-11,0-16.5C218.1,320.6,217.2,320.6,217.2,321.3
			L217.2,321.3z"/>
	</g>
	<g>
		<path class="st3" d="M195.3,328.6c0,3,0,6.1,0,9.1c0,0.6,1,0.6,1,0c0-3,0-6.1,0-9.1C196.2,328,195.3,328,195.3,328.6L195.3,328.6z
			"/>
	</g>
	<g>
		<path class="st3" d="M202.6,328.6c0,3,0,6.1,0,9.1c0,0.6,1,0.6,1,0c0-3,0-6.1,0-9.1C203.6,328,202.6,328,202.6,328.6L202.6,328.6z
			"/>
	</g>
	<g>
		<path class="st3" d="M206.3,328.6c0,3,0,6.1,0,9.1c0,0.6,1,0.6,1,0c0-3,0-6.1,0-9.1C207.2,328,206.3,328,206.3,328.6L206.3,328.6z
			"/>
	</g>
	<g>
		<path class="st3" d="M209.9,328.6c0,3,0,6.1,0,9.1c0,0.6,1,0.6,1,0c0-3,0-6.1,0-9.1C210.8,328,209.9,328,209.9,328.6L209.9,328.6z
			"/>
	</g>
	<g>
		<path class="st3" d="M217.2,321.3c0,5.5,0,11,0,16.5c0,0.6,1,0.6,1,0c0-5.5,0-11,0-16.5C218.1,320.6,217.2,320.6,217.2,321.3
			L217.2,321.3z"/>
	</g>
	<g>
		<path class="st3" d="M220.9,328.6c0,3,0,6.1,0,9.1c0,0.6,1,0.6,1,0c0-3,0-6.1,0-9.1C221.9,328,220.9,328,220.9,328.6L220.9,328.6z
			"/>
	</g>
	<g>
		<path class="st3" d="M224.7,328.6c0,3,0,6.1,0,9.1c0,0.6,1,0.6,1,0c0-3,0-6.1,0-9.1C225.7,328,224.7,328,224.7,328.6L224.7,328.6z
			"/>
	</g>
	<g>
		<path class="st3" d="M228.5,328.6c0,3,0,6.1,0,9.1c0,0.6,1,0.6,1,0c0-3,0-6.1,0-9.1C229.4,328,228.5,328,228.5,328.6L228.5,328.6z
			"/>
	</g>
	<g>
		<path class="st3" d="M250,328.6c0,3,0,6.1,0,9.1c0,0.6,1,0.6,1,0c0-3,0-6.1,0-9.1C251,328,250,328,250,328.6L250,328.6z"/>
	</g>
	<g>
		<path class="st3" d="M235.4,324.7c0,4.4,0,8.7,0,13.1c0,0.6,1,0.6,1,0c0-4.4,0-8.7,0-13.1C236.4,324,235.4,324,235.4,324.7
			L235.4,324.7z"/>
	</g>
	<g>
		<path class="st3" d="M253.5,321.3c0,5.5,0,11,0,16.5c0,0.6,1,0.6,1,0c0-5.5,0-11,0-16.5C254.4,320.6,253.5,320.6,253.5,321.3
			L253.5,321.3z"/>
	</g>
	<g>
		<path class="st3" d="M231.6,328.6c0,3,0,6.1,0,9.1c0,0.6,1,0.6,1,0c0-3,0-6.1,0-9.1C232.6,328,231.6,328,231.6,328.6L231.6,328.6z
			"/>
	</g>
	<g>
		<path class="st3" d="M238.9,328.6c0,3,0,6.1,0,9.1c0,0.6,1,0.6,1,0c0-3,0-6.1,0-9.1C239.9,328,238.9,328,238.9,328.6L238.9,328.6z
			"/>
	</g>
	<g>
		<path class="st3" d="M242.6,328.6c0,3,0,6.1,0,9.1c0,0.6,1,0.6,1,0c0-3,0-6.1,0-9.1C243.6,328,242.6,328,242.6,328.6L242.6,328.6z
			"/>
	</g>
	<g>
		<path class="st3" d="M246.2,328.6c0,3,0,6.1,0,9.1c0,0.6,1,0.6,1,0c0-3,0-6.1,0-9.1C247.1,328,246.2,328,246.2,328.6L246.2,328.6z
			"/>
	</g>
	<g>
		<path class="st3" d="M253.5,321.3c0,5.5,0,11,0,16.5c0,0.6,1,0.6,1,0c0-5.5,0-11,0-16.5C254.4,320.6,253.5,320.6,253.5,321.3
			L253.5,321.3z"/>
	</g>
	<g>
		<path class="st3" d="M257.2,328.6c0,3,0,6.1,0,9.1c0,0.6,1,0.6,1,0c0-3,0-6.1,0-9.1C258.2,328,257.2,328,257.2,328.6L257.2,328.6z
			"/>
	</g>
	<g>
		<path class="st3" d="M261,328.6c0,3,0,6.1,0,9.1c0,0.6,1,0.6,1,0c0-3,0-6.1,0-9.1C262,328,261,328,261,328.6L261,328.6z"/>
	</g>
	<g>
		<path class="st3" d="M264.8,328.6c0,3,0,6.1,0,9.1c0,0.6,1,0.6,1,0c0-3,0-6.1,0-9.1C265.7,328,264.8,328,264.8,328.6L264.8,328.6z
			"/>
	</g>
</g>
<g>
	<g>
		<path class="st3" d="M180.9,321.3c0,5.5,0,11,0,16.5c0,0.6,1,0.6,1,0c0-5.5,0-11,0-16.5C181.9,320.6,180.9,320.6,180.9,321.3
			L180.9,321.3z"/>
	</g>
	<g>
		<path class="st3" d="M184.7,328.6c0,3,0,6.1,0,9.1c0,0.6,1,0.6,1,0c0-3,0-6.1,0-9.1C185.6,328,184.7,328,184.7,328.6L184.7,328.6z
			"/>
	</g>
	<g>
		<path class="st3" d="M188.4,328.6c0,3,0,6.1,0,9.1c0,0.6,1,0.6,1,0c0-3,0-6.1,0-9.1C189.4,328,188.4,328,188.4,328.6L188.4,328.6z
			"/>
	</g>
	<g>
		<path class="st3" d="M192.2,328.6c0,3,0,6.1,0,9.1c0,0.6,1,0.6,1,0c0-3,0-6.1,0-9.1C193.2,328,192.2,328,192.2,328.6L192.2,328.6z
			"/>
	</g>
	<g>
		<path class="st3" d="M213.8,328.6c0,3,0,6.1,0,9.1c0,0.6,1,0.6,1,0c0-3,0-6.1,0-9.1C214.7,328,213.8,328,213.8,328.6L213.8,328.6z
			"/>
	</g>
	<g>
		<path class="st3" d="M199.1,324.7c0,4.4,0,8.7,0,13.1c0,0.6,1,0.6,1,0c0-4.4,0-8.7,0-13.1C200.1,324,199.1,324,199.1,324.7
			L199.1,324.7z"/>
	</g>
	<g>
		<path class="st3" d="M217.2,321.3c0,5.5,0,11,0,16.5c0,0.6,1,0.6,1,0c0-5.5,0-11,0-16.5C218.2,320.6,217.2,320.6,217.2,321.3
			L217.2,321.3z"/>
	</g>
	<g>
		<path class="st3" d="M195.3,328.6c0,3,0,6.1,0,9.1c0,0.6,1,0.6,1,0c0-3,0-6.1,0-9.1C196.3,328,195.3,328,195.3,328.6L195.3,328.6z
			"/>
	</g>
	<g>
		<path class="st3" d="M202.7,328.6c0,3,0,6.1,0,9.1c0,0.6,1,0.6,1,0c0-3,0-6.1,0-9.1C203.6,328,202.7,328,202.7,328.6L202.7,328.6z
			"/>
	</g>
	<g>
		<path class="st3" d="M206.3,328.6c0,3,0,6.1,0,9.1c0,0.6,1,0.6,1,0c0-3,0-6.1,0-9.1C207.3,328,206.3,328,206.3,328.6L206.3,328.6z
			"/>
	</g>
	<g>
		<path class="st3" d="M209.9,328.6c0,3,0,6.1,0,9.1c0,0.6,1,0.6,1,0c0-3,0-6.1,0-9.1C210.9,328,209.9,328,209.9,328.6L209.9,328.6z
			"/>
	</g>
	<g>
		<path class="st3" d="M217.2,321.3c0,5.5,0,11,0,16.5c0,0.6,1,0.6,1,0c0-5.5,0-11,0-16.5C218.2,320.6,217.2,320.6,217.2,321.3
			L217.2,321.3z"/>
	</g>
	<g>
		<path class="st3" d="M221,328.6c0,3,0,6.1,0,9.1c0,0.6,1,0.6,1,0c0-3,0-6.1,0-9.1C221.9,328,221,328,221,328.6L221,328.6z"/>
	</g>
	<g>
		<path class="st3" d="M224.7,328.6c0,3,0,6.1,0,9.1c0,0.6,1,0.6,1,0c0-3,0-6.1,0-9.1C225.7,328,224.7,328,224.7,328.6L224.7,328.6z
			"/>
	</g>
	<g>
		<path class="st3" d="M228.5,328.6c0,3,0,6.1,0,9.1c0,0.6,1,0.6,1,0c0-3,0-6.1,0-9.1C229.5,328,228.5,328,228.5,328.6L228.5,328.6z
			"/>
	</g>
	<g>
		<path class="st3" d="M250.1,328.6c0,3,0,6.1,0,9.1c0,0.6,1,0.6,1,0c0-3,0-6.1,0-9.1C251.1,328,250.1,328,250.1,328.6L250.1,328.6z
			"/>
	</g>
	<g>
		<path class="st3" d="M235.5,324.7c0,4.4,0,8.7,0,13.1c0,0.6,1,0.6,1,0c0-4.4,0-8.7,0-13.1C236.4,324,235.5,324,235.5,324.7
			L235.5,324.7z"/>
	</g>
	<g>
		<path class="st3" d="M253.5,321.3c0,5.5,0,11,0,16.5c0,0.6,1,0.6,1,0c0-5.5,0-11,0-16.5C254.5,320.6,253.5,320.6,253.5,321.3
			L253.5,321.3z"/>
	</g>
	<g>
		<path class="st3" d="M231.7,328.6c0,3,0,6.1,0,9.1c0,0.6,1,0.6,1,0c0-3,0-6.1,0-9.1C232.6,328,231.7,328,231.7,328.6L231.7,328.6z
			"/>
	</g>
	<g>
		<path class="st3" d="M239,328.6c0,3,0,6.1,0,9.1c0,0.6,1,0.6,1,0c0-3,0-6.1,0-9.1C239.9,328,239,328,239,328.6L239,328.6z"/>
	</g>
	<g>
		<path class="st3" d="M242.7,328.6c0,3,0,6.1,0,9.1c0,0.6,1,0.6,1,0c0-3,0-6.1,0-9.1C243.6,328,242.7,328,242.7,328.6L242.7,328.6z
			"/>
	</g>
	<g>
		<path class="st3" d="M246.2,328.6c0,3,0,6.1,0,9.1c0,0.6,1,0.6,1,0c0-3,0-6.1,0-9.1C247.2,328,246.2,328,246.2,328.6L246.2,328.6z
			"/>
	</g>
	<g>
		<path class="st3" d="M253.5,321.3c0,5.5,0,11,0,16.5c0,0.6,1,0.6,1,0c0-5.5,0-11,0-16.5C254.5,320.6,253.5,320.6,253.5,321.3
			L253.5,321.3z"/>
	</g>
	<g>
		<path class="st3" d="M257.3,328.6c0,3,0,6.1,0,9.1c0,0.6,1,0.6,1,0c0-3,0-6.1,0-9.1C258.3,328,257.3,328,257.3,328.6L257.3,328.6z
			"/>
	</g>
	<g>
		<path class="st3" d="M261.1,328.6c0,3,0,6.1,0,9.1c0,0.6,1,0.6,1,0c0-3,0-6.1,0-9.1C262,328,261.1,328,261.1,328.6L261.1,328.6z"
			/>
	</g>
	<g>
		<path class="st3" d="M264.8,328.6c0,3,0,6.1,0,9.1c0,0.6,1,0.6,1,0c0-3,0-6.1,0-9.1C265.8,328,264.8,328,264.8,328.6L264.8,328.6z
			"/>
	</g>
	<g>
		<path class="st3" d="M286.4,328.6c0,3,0,6.1,0,9.1c0,0.6,1,0.6,1,0c0-3,0-6.1,0-9.1C287.4,328,286.4,328,286.4,328.6L286.4,328.6z
			"/>
	</g>
	<g>
		<path class="st3" d="M271.8,324.7c0,4.4,0,8.7,0,13.1c0,0.6,1,0.6,1,0c0-4.4,0-8.7,0-13.1C272.7,324,271.8,324,271.8,324.7
			L271.8,324.7z"/>
	</g>
	<g>
		<path class="st3" d="M289.9,321.3c0,5.5,0,11,0,16.5c0,0.6,1,0.6,1,0c0-5.5,0-11,0-16.5C290.8,320.6,289.9,320.6,289.9,321.3
			L289.9,321.3z"/>
	</g>
	<g>
		<path class="st3" d="M268,328.6c0,3,0,6.1,0,9.1c0,0.6,1,0.6,1,0c0-3,0-6.1,0-9.1C268.9,328,268,328,268,328.6L268,328.6z"/>
	</g>
	<g>
		<path class="st3" d="M275.3,328.6c0,3,0,6.1,0,9.1c0,0.6,1,0.6,1,0c0-3,0-6.1,0-9.1C276.3,328,275.3,328,275.3,328.6L275.3,328.6z
			"/>
	</g>
	<g>
		<path class="st3" d="M279,328.6c0,3,0,6.1,0,9.1c0,0.6,1,0.6,1,0c0-3,0-6.1,0-9.1C279.9,328,279,328,279,328.6L279,328.6z"/>
	</g>
	<g>
		<path class="st3" d="M282.6,328.6c0,3,0,6.1,0,9.1c0,0.6,1,0.6,1,0c0-3,0-6.1,0-9.1C283.5,328,282.6,328,282.6,328.6L282.6,328.6z
			"/>
	</g>
	<g>
		<path class="st3" d="M289.9,321.3c0,5.5,0,11,0,16.5c0,0.6,1,0.6,1,0c0-5.5,0-11,0-16.5C290.8,320.6,289.9,320.6,289.9,321.3
			L289.9,321.3z"/>
	</g>
	<g>
		<path class="st3" d="M293.6,328.6c0,3,0,6.1,0,9.1c0,0.6,1,0.6,1,0c0-3,0-6.1,0-9.1C294.6,328,293.6,328,293.6,328.6L293.6,328.6z
			"/>
	</g>
	<g>
		<path class="st3" d="M297.4,328.6c0,3,0,6.1,0,9.1c0,0.6,1,0.6,1,0c0-3,0-6.1,0-9.1C298.4,328,297.4,328,297.4,328.6L297.4,328.6z
			"/>
	</g>
	<g>
		<path class="st3" d="M301.2,328.6c0,3,0,6.1,0,9.1c0,0.6,1,0.6,1,0c0-3,0-6.1,0-9.1C302.1,328,301.2,328,301.2,328.6L301.2,328.6z
			"/>
	</g>
	<g>
		<path class="st3" d="M322.7,328.6c0,3,0,6.1,0,9.1c0,0.6,1,0.6,1,0c0-3,0-6.1,0-9.1C323.7,328,322.7,328,322.7,328.6L322.7,328.6z
			"/>
	</g>
	<g>
		<path class="st3" d="M308.1,324.7c0,4.4,0,8.7,0,13.1c0,0.6,1,0.6,1,0c0-4.4,0-8.7,0-13.1C309.1,324,308.1,324,308.1,324.7
			L308.1,324.7z"/>
	</g>
	<g>
		<path class="st3" d="M326.2,321.3c0,5.5,0,11,0,16.5c0,0.6,1,0.6,1,0c0-5.5,0-11,0-16.5C327.1,320.6,326.2,320.6,326.2,321.3
			L326.2,321.3z"/>
	</g>
	<g>
		<path class="st3" d="M304.3,328.6c0,3,0,6.1,0,9.1c0,0.6,1,0.6,1,0c0-3,0-6.1,0-9.1C305.3,328,304.3,328,304.3,328.6L304.3,328.6z
			"/>
	</g>
	<g>
		<path class="st3" d="M311.6,328.6c0,3,0,6.1,0,9.1c0,0.6,1,0.6,1,0c0-3,0-6.1,0-9.1C312.6,328,311.6,328,311.6,328.6L311.6,328.6z
			"/>
	</g>
	<g>
		<path class="st3" d="M315.3,328.6c0,3,0,6.1,0,9.1c0,0.6,1,0.6,1,0c0-3,0-6.1,0-9.1C316.3,328,315.3,328,315.3,328.6L315.3,328.6z
			"/>
	</g>
	<g>
		<path class="st3" d="M318.9,328.6c0,3,0,6.1,0,9.1c0,0.6,1,0.6,1,0c0-3,0-6.1,0-9.1C319.8,328,318.9,328,318.9,328.6L318.9,328.6z
			"/>
	</g>
	<g>
		<path class="st3" d="M326.2,321.3c0,5.5,0,11,0,16.5c0,0.6,1,0.6,1,0c0-5.5,0-11,0-16.5C327.1,320.6,326.2,320.6,326.2,321.3
			L326.2,321.3z"/>
	</g>
	<g>
		<path class="st3" d="M329.9,328.6c0,3,0,6.1,0,9.1c0,0.6,1,0.6,1,0c0-3,0-6.1,0-9.1C330.9,328,329.9,328,329.9,328.6L329.9,328.6z
			"/>
	</g>
	<g>
		<path class="st3" d="M333.7,328.6c0,3,0,6.1,0,9.1c0,0.6,1,0.6,1,0c0-3,0-6.1,0-9.1C334.7,328,333.7,328,333.7,328.6L333.7,328.6z
			"/>
	</g>
	<g>
		<path class="st3" d="M337.5,328.6c0,3,0,6.1,0,9.1c0,0.6,1,0.6,1,0c0-3,0-6.1,0-9.1C338.4,328,337.5,328,337.5,328.6L337.5,328.6z
			"/>
	</g>
	<g>
		<path class="st3" d="M359.1,328.6c0,3,0,6.1,0,9.1c0,0.6,1,0.6,1,0c0-3,0-6.1,0-9.1C360,328,359.1,328,359.1,328.6L359.1,328.6z"
			/>
	</g>
	<g>
		<path class="st3" d="M344.4,324.7c0,4.4,0,8.7,0,13.1c0,0.6,1,0.6,1,0c0-4.4,0-8.7,0-13.1C345.4,324,344.4,324,344.4,324.7
			L344.4,324.7z"/>
	</g>
	<g>
		<path class="st3" d="M362.5,321.3c0,5.5,0,11,0,16.5c0,0.6,1,0.6,1,0c0-5.5,0-11,0-16.5C363.5,320.6,362.5,320.6,362.5,321.3
			L362.5,321.3z"/>
	</g>
	<g>
		<path class="st3" d="M340.6,328.6c0,3,0,6.1,0,9.1c0,0.6,1,0.6,1,0c0-3,0-6.1,0-9.1C341.6,328,340.6,328,340.6,328.6L340.6,328.6z
			"/>
	</g>
	<g>
		<path class="st3" d="M347.9,328.6c0,3,0,6.1,0,9.1c0,0.6,1,0.6,1,0c0-3,0-6.1,0-9.1C348.9,328,347.9,328,347.9,328.6L347.9,328.6z
			"/>
	</g>
	<g>
		<path class="st3" d="M351.6,328.6c0,3,0,6.1,0,9.1c0,0.6,1,0.6,1,0c0-3,0-6.1,0-9.1C352.6,328,351.6,328,351.6,328.6L351.6,328.6z
			"/>
	</g>
	<g>
		<path class="st3" d="M355.2,328.6c0,3,0,6.1,0,9.1c0,0.6,1,0.6,1,0c0-3,0-6.1,0-9.1C356.2,328,355.2,328,355.2,328.6L355.2,328.6z
			"/>
	</g>
	<g>
		<path class="st3" d="M362.5,321.3c0,5.5,0,11,0,16.5c0,0.6,1,0.6,1,0c0-5.5,0-11,0-16.5C363.5,320.6,362.5,320.6,362.5,321.3
			L362.5,321.3z"/>
	</g>
	<g>
		<path class="st3" d="M366.3,328.6c0,3,0,6.1,0,9.1c0,0.6,1,0.6,1,0c0-3,0-6.1,0-9.1C367.2,328,366.3,328,366.3,328.6L366.3,328.6z
			"/>
	</g>
	<g>
		<path class="st3" d="M370,328.6c0,3,0,6.1,0,9.1c0,0.6,1,0.6,1,0c0-3,0-6.1,0-9.1C371,328,370,328,370,328.6L370,328.6z"/>
	</g>
	<g>
		<path class="st3" d="M373.8,328.6c0,3,0,6.1,0,9.1c0,0.6,1,0.6,1,0c0-3,0-6.1,0-9.1C374.8,328,373.8,328,373.8,328.6L373.8,328.6z
			"/>
	</g>
	<g>
		<path class="st3" d="M379.3,272.6c0,21.1,0,42.2,0,63.3c0,3,1,3,1,0c0-21.1,0-42.2,0-63.3C380.2,269.6,379.3,269.6,379.3,272.6
			L379.3,272.6z"/>
	</g>
	<g>
		<path class="st3" d="M376.9,328.6c0,3,0,6.1,0,9.1c0,0.6,1,0.6,1,0c0-3,0-6.1,0-9.1C377.9,328,376.9,328,376.9,328.6L376.9,328.6z
			"/>
	</g>
</g>
<text transform="matrix(1 0 0 1 139.7037 376.9678)" class="st4 st5 st6">L</text>
<rect x="166.5" y="346" class="st7" width="116.2" height="47.5"/>
</svg>
