<?xml version="1.0" encoding="utf-8"?>
<!-- Generator: Adobe Illustrator 28.0.0, SVG Export Plug-In . SVG Version: 6.00 Build 0)  -->
<svg version="1.1" id="Layer_1" xmlns="http://www.w3.org/2000/svg" xmlns:xlink="http://www.w3.org/1999/xlink" x="0px" y="0px"
	 viewBox="0 0 410.5 484.8" style="enable-background:new 0 0 410.5 484.8;" xml:space="preserve">
<style type="text/css">
	.st0{fill:none;stroke:#000000;stroke-width:0.8541;stroke-miterlimit:10;}
	.st1{fill:#FFFFFF;stroke:#000000;stroke-width:0.8541;stroke-miterlimit:10;}
	.st2{fill:#FFFFFF;stroke:#000000;stroke-width:1.2811;stroke-miterlimit:10;}
	.st3{fill:#FFF200;}
	.st4{fill:#BE1E2D;}
	.st5{fill:#E81E25;}
	.st6{font-family:'AmericanTypewriter-Semibold';}
	.st7{font-size:20.4325px;}
	.st8{fill:none;stroke:#F7941D;stroke-width:2.1719;stroke-miterlimit:10;}
</style>
<g>
	<defs>
		<polygon id="SVGID_1_" points="27.3,510.8 396.8,510.8 396.8,60.1 188.5,60.1 27.3,60.1 		"/>
	</defs>
	<clipPath id="SVGID_00000080195305943404207190000015453527577943968901_">
		<use xlink:href="#SVGID_1_"  style="overflow:visible;"/>
	</clipPath>
</g>
<path class="st0" d="M210,109.7"/>
<path class="st1" d="M167.1,83.7l-82,31.6c9.5,25.1,20.1,58.4,27.5,98.5c8.4,45.2,9.3,80.2,9.5,90.8c0.5,31.8-1.7,76.9-14.3,129.9
	l0.5,4.7l3.9,3.9l4.4,6.5l6.1,7.5l6.1,6.3c0,0,15,11.1,24.4,8.9l48.5,4.6c0,0,8.8,2,19.6,0l47.5-4.3c0,0,15.9,2.8,28.9-12.3
	c1.3-1.1,15.9-19.4,15.9-19.4l3-3.3c-12.8-47.6-16-88.7-16.3-118c-0.5-47.6,6.4-83.7,10.7-105.7c7.9-40.3,18.9-73.6,28.6-98.5
	c-11.9-6.1-82.2-32.1-82.2-32.1l0,0"/>
<path class="st1" d="M114.7,223.6L103,302c2.2,75.1-8,138.3-8,138.3H49.3l-4.5-143.4c16.2-135.6,40.9-181.7,40.9-181.7
	S108.9,125.3,114.7,223.6z"/>
<path class="st1" d="M338.3,115.1c20.8,44,30.8,115.4,30.8,115.4l9.9,69.4l-5.3,140.3c0,0-33.6,0-44.3-1.5
	c-7.5-15-8.6-141.9-8.6-141.9l-11.1-73.3c3.7-22.7,5.7-35.4,7.3-45.4c3.2-19.9,4.7-29.6,10-42.3
	C330.9,126.6,335.2,119.6,338.3,115.1z"/>
<path class="st1" d="M167.3,81.8c12.1-2.1,26.6-3.8,42.8-4c17.8-0.2,33.5,1.3,46.5,3.5l81.6,33.7l-252.6,0.1L167.3,81.8z"/>
<path class="st2" d="M266.1,85.3c-2.4-5.2-5.8-11.3-10.8-17.7c-2.9-3.6-5.8-6.8-8.5-9.4c-10.4-0.9-21.8-1.5-34.2-1.5
	c-11.5,0-22.2,0.6-32,1.5c-2.3,2.7-4.6,5.5-6.8,8.5c-4.6,6-8.6,11.8-12,17.4c15-2,32.6-3.4,52.3-3.1C233.7,81.2,251.2,83,266.1,85.3
	z"/>
<rect x="85.4" y="56.7" transform="matrix(-1 -1.224647e-16 1.224647e-16 -1 423.5721 129.1069)" class="st3" width="252.9" height="15.6"/>
<g>
	<g>
		<path class="st4" d="M337.1,106.5c0-15.3,0-30.6,0-45.8c0-1.7-0.7-1.7-0.7,0c0,15.3,0,30.6,0,45.8
			C336.4,108.2,337.1,108.2,337.1,106.5L337.1,106.5z"/>
	</g>
	<g>
		<path class="st4" d="M334.4,67.1c0-2.4,0-4.9,0-7.3c0-0.5-0.7-0.5-0.7,0c0,2.4,0,4.9,0,7.3C333.7,67.6,334.4,67.6,334.4,67.1
			L334.4,67.1z"/>
	</g>
	<g>
		<path class="st4" d="M331.6,67.1c0-2.4,0-4.9,0-7.3c0-0.5-0.7-0.5-0.7,0c0,2.4,0,4.9,0,7.3C330.9,67.6,331.6,67.6,331.6,67.1
			L331.6,67.1z"/>
	</g>
	<g>
		<path class="st4" d="M328.9,67.1c0-2.4,0-4.9,0-7.3c0-0.5-0.7-0.5-0.7,0c0,2.4,0,4.9,0,7.3C328.2,67.6,328.9,67.6,328.9,67.1
			L328.9,67.1z"/>
	</g>
	<g>
		<path class="st4" d="M313.2,67.1c0-2.4,0-4.9,0-7.3c0-0.5-0.7-0.5-0.7,0c0,2.4,0,4.9,0,7.3C312.5,67.6,313.2,67.6,313.2,67.1
			L313.2,67.1z"/>
	</g>
	<g>
		<path class="st4" d="M323.8,70.3c0-3.5,0-7,0-10.5c0-0.5-0.7-0.5-0.7,0c0,3.5,0,7,0,10.5C323.1,70.8,323.8,70.8,323.8,70.3
			L323.8,70.3z"/>
	</g>
	<g>
		<path class="st4" d="M310.7,73c0-4.4,0-8.9,0-13.3c0-0.5-0.7-0.5-0.7,0c0,4.4,0,8.9,0,13.3C310,73.5,310.7,73.5,310.7,73L310.7,73
			z"/>
	</g>
	<g>
		<path class="st4" d="M326.6,67.1c0-2.4,0-4.9,0-7.3c0-0.5-0.7-0.5-0.7,0c0,2.4,0,4.9,0,7.3C325.9,67.6,326.6,67.6,326.6,67.1
			L326.6,67.1z"/>
	</g>
	<g>
		<path class="st4" d="M321.3,67.1c0-2.4,0-4.9,0-7.3c0-0.5-0.7-0.5-0.7,0c0,2.4,0,4.9,0,7.3C320.6,67.6,321.3,67.6,321.3,67.1
			L321.3,67.1z"/>
	</g>
	<g>
		<path class="st4" d="M318.6,67.1c0-2.4,0-4.9,0-7.3c0-0.5-0.7-0.5-0.7,0c0,2.4,0,4.9,0,7.3C317.9,67.6,318.6,67.6,318.6,67.1
			L318.6,67.1z"/>
	</g>
	<g>
		<path class="st4" d="M316,67.1c0-2.4,0-4.9,0-7.3c0-0.5-0.7-0.5-0.7,0c0,2.4,0,4.9,0,7.3C315.3,67.6,316,67.6,316,67.1L316,67.1z"
			/>
	</g>
	<g>
		<path class="st4" d="M310.7,73c0-4.4,0-8.9,0-13.3c0-0.5-0.7-0.5-0.7,0c0,4.4,0,8.9,0,13.3C310,73.5,310.7,73.5,310.7,73L310.7,73
			z"/>
	</g>
	<g>
		<path class="st4" d="M308,67.1c0-2.4,0-4.9,0-7.3c0-0.5-0.7-0.5-0.7,0c0,2.4,0,4.9,0,7.3C307.3,67.6,308,67.6,308,67.1L308,67.1z"
			/>
	</g>
	<g>
		<path class="st4" d="M305.3,67.1c0-2.4,0-4.9,0-7.3c0-0.5-0.7-0.5-0.7,0c0,2.4,0,4.9,0,7.3C304.6,67.6,305.3,67.6,305.3,67.1
			L305.3,67.1z"/>
	</g>
	<g>
		<path class="st4" d="M302.5,67.1c0-2.4,0-4.9,0-7.3c0-0.5-0.7-0.5-0.7,0c0,2.4,0,4.9,0,7.3C301.8,67.6,302.5,67.6,302.5,67.1
			L302.5,67.1z"/>
	</g>
	<g>
		<path class="st4" d="M286.9,67.1c0-2.4,0-4.9,0-7.3c0-0.5-0.7-0.5-0.7,0c0,2.4,0,4.9,0,7.3C286.2,67.6,286.9,67.6,286.9,67.1
			L286.9,67.1z"/>
	</g>
	<g>
		<path class="st4" d="M297.5,70.3c0-3.5,0-7,0-10.5c0-0.5-0.7-0.5-0.7,0c0,3.5,0,7,0,10.5C296.8,70.8,297.5,70.8,297.5,70.3
			L297.5,70.3z"/>
	</g>
	<g>
		<path class="st4" d="M284.4,73c0-4.4,0-8.9,0-13.3c0-0.5-0.7-0.5-0.7,0c0,4.4,0,8.9,0,13.3C283.7,73.5,284.4,73.5,284.4,73
			L284.4,73z"/>
	</g>
	<g>
		<path class="st4" d="M300.2,67.1c0-2.4,0-4.9,0-7.3c0-0.5-0.7-0.5-0.7,0c0,2.4,0,4.9,0,7.3C299.5,67.6,300.2,67.6,300.2,67.1
			L300.2,67.1z"/>
	</g>
	<g>
		<path class="st4" d="M294.9,67.1c0-2.4,0-4.9,0-7.3c0-0.5-0.7-0.5-0.7,0c0,2.4,0,4.9,0,7.3C294.2,67.6,294.9,67.6,294.9,67.1
			L294.9,67.1z"/>
	</g>
	<g>
		<path class="st4" d="M292.3,67.1c0-2.4,0-4.9,0-7.3c0-0.5-0.7-0.5-0.7,0c0,2.4,0,4.9,0,7.3C291.6,67.6,292.3,67.6,292.3,67.1
			L292.3,67.1z"/>
	</g>
	<g>
		<path class="st4" d="M289.7,67.1c0-2.4,0-4.9,0-7.3c0-0.5-0.7-0.5-0.7,0c0,2.4,0,4.9,0,7.3C289,67.6,289.7,67.6,289.7,67.1
			L289.7,67.1z"/>
	</g>
	<g>
		<path class="st4" d="M284.4,73c0-4.4,0-8.9,0-13.3c0-0.5-0.7-0.5-0.7,0c0,4.4,0,8.9,0,13.3C283.7,73.5,284.4,73.5,284.4,73
			L284.4,73z"/>
	</g>
	<g>
		<path class="st4" d="M281.6,67.1c0-2.4,0-4.9,0-7.3c0-0.5-0.7-0.5-0.7,0c0,2.4,0,4.9,0,7.3C280.9,67.6,281.6,67.6,281.6,67.1
			L281.6,67.1z"/>
	</g>
	<g>
		<path class="st4" d="M278.9,67.1c0-2.4,0-4.9,0-7.3c0-0.5-0.7-0.5-0.7,0c0,2.4,0,4.9,0,7.3C278.2,67.6,278.9,67.6,278.9,67.1
			L278.9,67.1z"/>
	</g>
	<g>
		<path class="st4" d="M276.2,67.1c0-2.4,0-4.9,0-7.3c0-0.5-0.7-0.5-0.7,0c0,2.4,0,4.9,0,7.3C275.5,67.6,276.2,67.6,276.2,67.1
			L276.2,67.1z"/>
	</g>
	<g>
		<path class="st4" d="M260.5,67.1c0-2.4,0-4.9,0-7.3c0-0.5-0.7-0.5-0.7,0c0,2.4,0,4.9,0,7.3C259.8,67.6,260.5,67.6,260.5,67.1
			L260.5,67.1z"/>
	</g>
	<g>
		<path class="st4" d="M271.1,70.3c0-3.5,0-7,0-10.5c0-0.5-0.7-0.5-0.7,0c0,3.5,0,7,0,10.5C270.4,70.8,271.1,70.8,271.1,70.3
			L271.1,70.3z"/>
	</g>
	<g>
		<path class="st4" d="M258,73c0-4.4,0-8.9,0-13.3c0-0.5-0.7-0.5-0.7,0c0,4.4,0,8.9,0,13.3C257.3,73.5,258,73.5,258,73L258,73z"/>
	</g>
	<g>
		<path class="st4" d="M273.9,67.1c0-2.4,0-4.9,0-7.3c0-0.5-0.7-0.5-0.7,0c0,2.4,0,4.9,0,7.3C273.2,67.6,273.9,67.6,273.9,67.1
			L273.9,67.1z"/>
	</g>
	<g>
		<path class="st4" d="M268.6,67.1c0-2.4,0-4.9,0-7.3c0-0.5-0.7-0.5-0.7,0c0,2.4,0,4.9,0,7.3C267.9,67.6,268.6,67.6,268.6,67.1
			L268.6,67.1z"/>
	</g>
	<g>
		<path class="st4" d="M265.9,67.1c0-2.4,0-4.9,0-7.3c0-0.5-0.7-0.5-0.7,0c0,2.4,0,4.9,0,7.3C265.2,67.6,265.9,67.6,265.9,67.1
			L265.9,67.1z"/>
	</g>
	<g>
		<path class="st4" d="M263.3,67.1c0-2.4,0-4.9,0-7.3c0-0.5-0.7-0.5-0.7,0c0,2.4,0,4.9,0,7.3C262.6,67.6,263.3,67.6,263.3,67.1
			L263.3,67.1z"/>
	</g>
	<g>
		<path class="st4" d="M258,73c0-4.4,0-8.9,0-13.3c0-0.5-0.7-0.5-0.7,0c0,4.4,0,8.9,0,13.3C257.3,73.5,258,73.5,258,73L258,73z"/>
	</g>
	<g>
		<path class="st4" d="M255.3,67.1c0-2.4,0-4.9,0-7.3c0-0.5-0.7-0.5-0.7,0c0,2.4,0,4.9,0,7.3C254.6,67.6,255.3,67.6,255.3,67.1
			L255.3,67.1z"/>
	</g>
	<g>
		<path class="st4" d="M252.5,67.1c0-2.4,0-4.9,0-7.3c0-0.5-0.7-0.5-0.7,0c0,2.4,0,4.9,0,7.3C251.8,67.6,252.5,67.6,252.5,67.1
			L252.5,67.1z"/>
	</g>
	<g>
		<path class="st4" d="M249.8,67.1c0-2.4,0-4.9,0-7.3c0-0.5-0.7-0.5-0.7,0c0,2.4,0,4.9,0,7.3C249.1,67.6,249.8,67.6,249.8,67.1
			L249.8,67.1z"/>
	</g>
	<g>
		<path class="st4" d="M234.1,67.1c0-2.4,0-4.9,0-7.3c0-0.5-0.7-0.5-0.7,0c0,2.4,0,4.9,0,7.3C233.4,67.6,234.1,67.6,234.1,67.1
			L234.1,67.1z"/>
	</g>
	<g>
		<path class="st4" d="M244.8,70.3c0-3.5,0-7,0-10.5c0-0.5-0.7-0.5-0.7,0c0,3.5,0,7,0,10.5C244.1,70.8,244.8,70.8,244.8,70.3
			L244.8,70.3z"/>
	</g>
	<g>
		<path class="st4" d="M231.6,73c0-4.4,0-8.9,0-13.3c0-0.5-0.7-0.5-0.7,0c0,4.4,0,8.9,0,13.3C230.9,73.5,231.6,73.5,231.6,73
			L231.6,73z"/>
	</g>
	<g>
		<path class="st4" d="M247.5,67.1c0-2.4,0-4.9,0-7.3c0-0.5-0.7-0.5-0.7,0c0,2.4,0,4.9,0,7.3C246.8,67.6,247.5,67.6,247.5,67.1
			L247.5,67.1z"/>
	</g>
	<g>
		<path class="st4" d="M242.2,67.1c0-2.4,0-4.9,0-7.3c0-0.5-0.7-0.5-0.7,0c0,2.4,0,4.9,0,7.3C241.5,67.6,242.2,67.6,242.2,67.1
			L242.2,67.1z"/>
	</g>
	<g>
		<path class="st4" d="M239.5,67.1c0-2.4,0-4.9,0-7.3c0-0.5-0.7-0.5-0.7,0c0,2.4,0,4.9,0,7.3C238.8,67.6,239.5,67.6,239.5,67.1
			L239.5,67.1z"/>
	</g>
	<g>
		<path class="st4" d="M236.9,67.1c0-2.4,0-4.9,0-7.3c0-0.5-0.7-0.5-0.7,0c0,2.4,0,4.9,0,7.3C236.2,67.6,236.9,67.6,236.9,67.1
			L236.9,67.1z"/>
	</g>
	<g>
		<path class="st4" d="M231.6,73c0-4.4,0-8.9,0-13.3c0-0.5-0.7-0.5-0.7,0c0,4.4,0,8.9,0,13.3C230.9,73.5,231.6,73.5,231.6,73
			L231.6,73z"/>
	</g>
	<g>
		<path class="st4" d="M228.9,67.1c0-2.4,0-4.9,0-7.3c0-0.5-0.7-0.5-0.7,0c0,2.4,0,4.9,0,7.3C228.2,67.6,228.9,67.6,228.9,67.1
			L228.9,67.1z"/>
	</g>
	<g>
		<path class="st4" d="M226.2,67.1c0-2.4,0-4.9,0-7.3c0-0.5-0.7-0.5-0.7,0c0,2.4,0,4.9,0,7.3C225.5,67.6,226.2,67.6,226.2,67.1
			L226.2,67.1z"/>
	</g>
	<g>
		<path class="st4" d="M223.4,67.1c0-2.4,0-4.9,0-7.3c0-0.5-0.7-0.5-0.7,0c0,2.4,0,4.9,0,7.3C222.7,67.6,223.4,67.6,223.4,67.1
			L223.4,67.1z"/>
	</g>
	<g>
		<path class="st4" d="M207.8,67.1c0-2.4,0-4.9,0-7.3c0-0.5-0.7-0.5-0.7,0c0,2.4,0,4.9,0,7.3C207.1,67.6,207.8,67.6,207.8,67.1
			L207.8,67.1z"/>
	</g>
	<g>
		<path class="st4" d="M218.4,70.3c0-3.5,0-7,0-10.5c0-0.5-0.7-0.5-0.7,0c0,3.5,0,7,0,10.5C217.7,70.8,218.4,70.8,218.4,70.3
			L218.4,70.3z"/>
	</g>
	<g>
		<path class="st4" d="M205.3,73c0-4.4,0-8.9,0-13.3c0-0.5-0.7-0.5-0.7,0c0,4.4,0,8.9,0,13.3C204.6,73.5,205.3,73.5,205.3,73
			L205.3,73z"/>
	</g>
	<g>
		<path class="st4" d="M221.1,67.1c0-2.4,0-4.9,0-7.3c0-0.5-0.7-0.5-0.7,0c0,2.4,0,4.9,0,7.3C220.4,67.6,221.1,67.6,221.1,67.1
			L221.1,67.1z"/>
	</g>
	<g>
		<path class="st4" d="M215.8,67.1c0-2.4,0-4.9,0-7.3c0-0.5-0.7-0.5-0.7,0c0,2.4,0,4.9,0,7.3C215.1,67.6,215.8,67.6,215.8,67.1
			L215.8,67.1z"/>
	</g>
	<g>
		<path class="st4" d="M213.2,67.1c0-2.4,0-4.9,0-7.3c0-0.5-0.7-0.5-0.7,0c0,2.4,0,4.9,0,7.3C212.5,67.6,213.2,67.6,213.2,67.1
			L213.2,67.1z"/>
	</g>
	<g>
		<path class="st4" d="M210.6,67.1c0-2.4,0-4.9,0-7.3c0-0.5-0.7-0.5-0.7,0c0,2.4,0,4.9,0,7.3C209.9,67.6,210.6,67.6,210.6,67.1
			L210.6,67.1z"/>
	</g>
	<g>
		<path class="st4" d="M205.3,73c0-4.4,0-8.9,0-13.3c0-0.5-0.7-0.5-0.7,0c0,4.4,0,8.9,0,13.3C204.6,73.5,205.3,73.5,205.3,73
			L205.3,73z"/>
	</g>
	<g>
		<path class="st4" d="M202.5,67.1c0-2.4,0-4.9,0-7.3c0-0.5-0.7-0.5-0.7,0c0,2.4,0,4.9,0,7.3C201.8,67.6,202.5,67.6,202.5,67.1
			L202.5,67.1z"/>
	</g>
	<g>
		<path class="st4" d="M199.8,67.1c0-2.4,0-4.9,0-7.3c0-0.5-0.7-0.5-0.7,0c0,2.4,0,4.9,0,7.3C199.1,67.6,199.8,67.6,199.8,67.1
			L199.8,67.1z"/>
	</g>
	<g>
		<path class="st4" d="M197.1,67.1c0-2.4,0-4.9,0-7.3c0-0.5-0.7-0.5-0.7,0c0,2.4,0,4.9,0,7.3C196.4,67.6,197.1,67.6,197.1,67.1
			L197.1,67.1z"/>
	</g>
	<g>
		<path class="st4" d="M181.4,67.1c0-2.4,0-4.9,0-7.3c0-0.5-0.7-0.5-0.7,0c0,2.4,0,4.9,0,7.3C180.7,67.6,181.4,67.6,181.4,67.1
			L181.4,67.1z"/>
	</g>
	<g>
		<path class="st4" d="M192,70.3c0-3.5,0-7,0-10.5c0-0.5-0.7-0.5-0.7,0c0,3.5,0,7,0,10.5C191.3,70.8,192,70.8,192,70.3L192,70.3z"/>
	</g>
	<g>
		<path class="st4" d="M178.9,73c0-4.4,0-8.9,0-13.3c0-0.5-0.7-0.5-0.7,0c0,4.4,0,8.9,0,13.3C178.2,73.5,178.9,73.5,178.9,73
			L178.9,73z"/>
	</g>
	<g>
		<path class="st4" d="M194.8,67.1c0-2.4,0-4.9,0-7.3c0-0.5-0.7-0.5-0.7,0c0,2.4,0,4.9,0,7.3C194.1,67.6,194.8,67.6,194.8,67.1
			L194.8,67.1z"/>
	</g>
	<g>
		<path class="st4" d="M189.5,67.1c0-2.4,0-4.9,0-7.3c0-0.5-0.7-0.5-0.7,0c0,2.4,0,4.9,0,7.3C188.8,67.6,189.5,67.6,189.5,67.1
			L189.5,67.1z"/>
	</g>
	<g>
		<path class="st4" d="M186.8,67.1c0-2.4,0-4.9,0-7.3c0-0.5-0.7-0.5-0.7,0c0,2.4,0,4.9,0,7.3C186.1,67.6,186.8,67.6,186.8,67.1
			L186.8,67.1z"/>
	</g>
	<g>
		<path class="st4" d="M184.2,67.1c0-2.4,0-4.9,0-7.3c0-0.5-0.7-0.5-0.7,0c0,2.4,0,4.9,0,7.3C183.5,67.6,184.2,67.6,184.2,67.1
			L184.2,67.1z"/>
	</g>
	<g>
		<path class="st4" d="M178.9,73c0-4.4,0-8.9,0-13.3c0-0.5-0.7-0.5-0.7,0c0,4.4,0,8.9,0,13.3C178.2,73.5,178.9,73.5,178.9,73
			L178.9,73z"/>
	</g>
	<g>
		<path class="st4" d="M176.2,67.1c0-2.4,0-4.9,0-7.3c0-0.5-0.7-0.5-0.7,0c0,2.4,0,4.9,0,7.3C175.5,67.6,176.2,67.6,176.2,67.1
			L176.2,67.1z"/>
	</g>
	<g>
		<path class="st4" d="M173.4,67.1c0-2.4,0-4.9,0-7.3c0-0.5-0.7-0.5-0.7,0c0,2.4,0,4.9,0,7.3C172.7,67.6,173.4,67.6,173.4,67.1
			L173.4,67.1z"/>
	</g>
	<g>
		<path class="st4" d="M170.7,67.1c0-2.4,0-4.9,0-7.3c0-0.5-0.7-0.5-0.7,0c0,2.4,0,4.9,0,7.3C170,67.6,170.7,67.6,170.7,67.1
			L170.7,67.1z"/>
	</g>
</g>
<g>
	<g>
		<path class="st4" d="M231.6,73c0-4.4,0-8.9,0-13.3c0-0.5-0.7-0.5-0.7,0c0,4.4,0,8.9,0,13.3C230.9,73.5,231.6,73.5,231.6,73
			L231.6,73z"/>
	</g>
	<g>
		<path class="st4" d="M228.9,67.1c0-2.4,0-4.9,0-7.3c0-0.5-0.7-0.5-0.7,0c0,2.4,0,4.9,0,7.3C228.2,67.6,228.9,67.6,228.9,67.1
			L228.9,67.1z"/>
	</g>
	<g>
		<path class="st4" d="M226.1,67.1c0-2.4,0-4.9,0-7.3c0-0.5-0.7-0.5-0.7,0c0,2.4,0,4.9,0,7.3C225.4,67.6,226.1,67.6,226.1,67.1
			L226.1,67.1z"/>
	</g>
	<g>
		<path class="st4" d="M223.4,67.1c0-2.4,0-4.9,0-7.3c0-0.5-0.7-0.5-0.7,0c0,2.4,0,4.9,0,7.3C222.7,67.6,223.4,67.6,223.4,67.1
			L223.4,67.1z"/>
	</g>
	<g>
		<path class="st4" d="M207.7,67.1c0-2.4,0-4.9,0-7.3c0-0.5-0.7-0.5-0.7,0c0,2.4,0,4.9,0,7.3C207,67.6,207.7,67.6,207.7,67.1
			L207.7,67.1z"/>
	</g>
	<g>
		<path class="st4" d="M218.3,70.3c0-3.5,0-7,0-10.5c0-0.5-0.7-0.5-0.7,0c0,3.5,0,7,0,10.5C217.6,70.8,218.3,70.8,218.3,70.3
			L218.3,70.3z"/>
	</g>
	<g>
		<path class="st4" d="M205.2,73c0-4.4,0-8.9,0-13.3c0-0.5-0.7-0.5-0.7,0c0,4.4,0,8.9,0,13.3C204.5,73.5,205.2,73.5,205.2,73
			L205.2,73z"/>
	</g>
	<g>
		<path class="st4" d="M221.1,67.1c0-2.4,0-4.9,0-7.3c0-0.5-0.7-0.5-0.7,0c0,2.4,0,4.9,0,7.3C220.4,67.6,221.1,67.6,221.1,67.1
			L221.1,67.1z"/>
	</g>
	<g>
		<path class="st4" d="M215.8,67.1c0-2.4,0-4.9,0-7.3c0-0.5-0.7-0.5-0.7,0c0,2.4,0,4.9,0,7.3C215.1,67.6,215.8,67.6,215.8,67.1
			L215.8,67.1z"/>
	</g>
	<g>
		<path class="st4" d="M213.1,67.1c0-2.4,0-4.9,0-7.3c0-0.5-0.7-0.5-0.7,0c0,2.4,0,4.9,0,7.3C212.4,67.6,213.1,67.6,213.1,67.1
			L213.1,67.1z"/>
	</g>
	<g>
		<path class="st4" d="M210.5,67.1c0-2.4,0-4.9,0-7.3c0-0.5-0.7-0.5-0.7,0c0,2.4,0,4.9,0,7.3C209.8,67.6,210.5,67.6,210.5,67.1
			L210.5,67.1z"/>
	</g>
	<g>
		<path class="st4" d="M205.2,73c0-4.4,0-8.9,0-13.3c0-0.5-0.7-0.5-0.7,0c0,4.4,0,8.9,0,13.3C204.5,73.5,205.2,73.5,205.2,73
			L205.2,73z"/>
	</g>
	<g>
		<path class="st4" d="M202.5,67.1c0-2.4,0-4.9,0-7.3c0-0.5-0.7-0.5-0.7,0c0,2.4,0,4.9,0,7.3C201.8,67.6,202.5,67.6,202.5,67.1
			L202.5,67.1z"/>
	</g>
	<g>
		<path class="st4" d="M199.8,67.1c0-2.4,0-4.9,0-7.3c0-0.5-0.7-0.5-0.7,0c0,2.4,0,4.9,0,7.3C199.1,67.6,199.8,67.6,199.8,67.1
			L199.8,67.1z"/>
	</g>
	<g>
		<path class="st4" d="M197,67.1c0-2.4,0-4.9,0-7.3c0-0.5-0.7-0.5-0.7,0c0,2.4,0,4.9,0,7.3C196.3,67.6,197,67.6,197,67.1L197,67.1z"
			/>
	</g>
	<g>
		<path class="st4" d="M181.3,67.1c0-2.4,0-4.9,0-7.3c0-0.5-0.7-0.5-0.7,0c0,2.4,0,4.9,0,7.3C180.6,67.6,181.3,67.6,181.3,67.1
			L181.3,67.1z"/>
	</g>
	<g>
		<path class="st4" d="M192,70.3c0-3.5,0-7,0-10.5c0-0.5-0.7-0.5-0.7,0c0,3.5,0,7,0,10.5C191.3,70.8,192,70.8,192,70.3L192,70.3z"/>
	</g>
	<g>
		<path class="st4" d="M178.9,73c0-4.4,0-8.9,0-13.3c0-0.5-0.7-0.5-0.7,0c0,4.4,0,8.9,0,13.3C178.2,73.5,178.9,73.5,178.9,73
			L178.9,73z"/>
	</g>
	<g>
		<path class="st4" d="M194.7,67.1c0-2.4,0-4.9,0-7.3c0-0.5-0.7-0.5-0.7,0c0,2.4,0,4.9,0,7.3C194,67.6,194.7,67.6,194.7,67.1
			L194.7,67.1z"/>
	</g>
	<g>
		<path class="st4" d="M189.4,67.1c0-2.4,0-4.9,0-7.3c0-0.5-0.7-0.5-0.7,0c0,2.4,0,4.9,0,7.3C188.7,67.6,189.4,67.6,189.4,67.1
			L189.4,67.1z"/>
	</g>
	<g>
		<path class="st4" d="M186.8,67.1c0-2.4,0-4.9,0-7.3c0-0.5-0.7-0.5-0.7,0c0,2.4,0,4.9,0,7.3C186.1,67.6,186.8,67.6,186.8,67.1
			L186.8,67.1z"/>
	</g>
	<g>
		<path class="st4" d="M184.2,67.1c0-2.4,0-4.9,0-7.3c0-0.5-0.7-0.5-0.7,0c0,2.4,0,4.9,0,7.3C183.5,67.6,184.2,67.6,184.2,67.1
			L184.2,67.1z"/>
	</g>
	<g>
		<path class="st4" d="M178.9,73c0-4.4,0-8.9,0-13.3c0-0.5-0.7-0.5-0.7,0c0,4.4,0,8.9,0,13.3C178.2,73.5,178.9,73.5,178.9,73
			L178.9,73z"/>
	</g>
	<g>
		<path class="st4" d="M176.1,67.1c0-2.4,0-4.9,0-7.3c0-0.5-0.7-0.5-0.7,0c0,2.4,0,4.9,0,7.3C175.4,67.6,176.1,67.6,176.1,67.1
			L176.1,67.1z"/>
	</g>
	<g>
		<path class="st4" d="M173.4,67.1c0-2.4,0-4.9,0-7.3c0-0.5-0.7-0.5-0.7,0c0,2.4,0,4.9,0,7.3C172.7,67.6,173.4,67.6,173.4,67.1
			L173.4,67.1z"/>
	</g>
	<g>
		<path class="st4" d="M170.7,67.1c0-2.4,0-4.9,0-7.3c0-0.5-0.7-0.5-0.7,0c0,2.4,0,4.9,0,7.3C170,67.6,170.7,67.6,170.7,67.1
			L170.7,67.1z"/>
	</g>
	<g>
		<path class="st4" d="M155,67.1c0-2.4,0-4.9,0-7.3c0-0.5-0.7-0.5-0.7,0c0,2.4,0,4.9,0,7.3C154.3,67.6,155,67.6,155,67.1L155,67.1z"
			/>
	</g>
	<g>
		<path class="st4" d="M165.6,70.3c0-3.5,0-7,0-10.5c0-0.5-0.7-0.5-0.7,0c0,3.5,0,7,0,10.5C164.9,70.8,165.6,70.8,165.6,70.3
			L165.6,70.3z"/>
	</g>
	<g>
		<path class="st4" d="M152.5,73c0-4.4,0-8.9,0-13.3c0-0.5-0.7-0.5-0.7,0c0,4.4,0,8.9,0,13.3C151.8,73.5,152.5,73.5,152.5,73
			L152.5,73z"/>
	</g>
	<g>
		<path class="st4" d="M168.4,67.1c0-2.4,0-4.9,0-7.3c0-0.5-0.7-0.5-0.7,0c0,2.4,0,4.9,0,7.3C167.7,67.6,168.4,67.6,168.4,67.1
			L168.4,67.1z"/>
	</g>
	<g>
		<path class="st4" d="M163.1,67.1c0-2.4,0-4.9,0-7.3c0-0.5-0.7-0.5-0.7,0c0,2.4,0,4.9,0,7.3C162.4,67.6,163.1,67.6,163.1,67.1
			L163.1,67.1z"/>
	</g>
	<g>
		<path class="st4" d="M160.4,67.1c0-2.4,0-4.9,0-7.3c0-0.5-0.7-0.5-0.7,0c0,2.4,0,4.9,0,7.3C159.7,67.6,160.4,67.6,160.4,67.1
			L160.4,67.1z"/>
	</g>
	<g>
		<path class="st4" d="M157.8,67.1c0-2.4,0-4.9,0-7.3c0-0.5-0.7-0.5-0.7,0c0,2.4,0,4.9,0,7.3C157.1,67.6,157.8,67.6,157.8,67.1
			L157.8,67.1z"/>
	</g>
	<g>
		<path class="st4" d="M152.5,73c0-4.4,0-8.9,0-13.3c0-0.5-0.7-0.5-0.7,0c0,4.4,0,8.9,0,13.3C151.8,73.5,152.5,73.5,152.5,73
			L152.5,73z"/>
	</g>
	<g>
		<path class="st4" d="M149.8,67.1c0-2.4,0-4.9,0-7.3c0-0.5-0.7-0.5-0.7,0c0,2.4,0,4.9,0,7.3C149.1,67.6,149.8,67.6,149.8,67.1
			L149.8,67.1z"/>
	</g>
	<g>
		<path class="st4" d="M147,67.1c0-2.4,0-4.9,0-7.3c0-0.5-0.7-0.5-0.7,0c0,2.4,0,4.9,0,7.3C146.3,67.6,147,67.6,147,67.1L147,67.1z"
			/>
	</g>
	<g>
		<path class="st4" d="M144.3,67.1c0-2.4,0-4.9,0-7.3c0-0.5-0.7-0.5-0.7,0c0,2.4,0,4.9,0,7.3C143.6,67.6,144.3,67.6,144.3,67.1
			L144.3,67.1z"/>
	</g>
	<g>
		<path class="st4" d="M128.6,67.1c0-2.4,0-4.9,0-7.3c0-0.5-0.7-0.5-0.7,0c0,2.4,0,4.9,0,7.3C127.9,67.6,128.6,67.6,128.6,67.1
			L128.6,67.1z"/>
	</g>
	<g>
		<path class="st4" d="M139.3,70.3c0-3.5,0-7,0-10.5c0-0.5-0.7-0.5-0.7,0c0,3.5,0,7,0,10.5C138.6,70.8,139.3,70.8,139.3,70.3
			L139.3,70.3z"/>
	</g>
	<g>
		<path class="st4" d="M126.1,73c0-4.4,0-8.9,0-13.3c0-0.5-0.7-0.5-0.7,0c0,4.4,0,8.9,0,13.3C125.4,73.5,126.1,73.5,126.1,73
			L126.1,73z"/>
	</g>
	<g>
		<path class="st4" d="M142,67.1c0-2.4,0-4.9,0-7.3c0-0.5-0.7-0.5-0.7,0c0,2.4,0,4.9,0,7.3C141.3,67.6,142,67.6,142,67.1L142,67.1z"
			/>
	</g>
	<g>
		<path class="st4" d="M136.7,67.1c0-2.4,0-4.9,0-7.3c0-0.5-0.7-0.5-0.7,0c0,2.4,0,4.9,0,7.3C136,67.6,136.7,67.6,136.7,67.1
			L136.7,67.1z"/>
	</g>
	<g>
		<path class="st4" d="M134,67.1c0-2.4,0-4.9,0-7.3c0-0.5-0.7-0.5-0.7,0c0,2.4,0,4.9,0,7.3C133.3,67.6,134,67.6,134,67.1L134,67.1z"
			/>
	</g>
	<g>
		<path class="st4" d="M131.4,67.1c0-2.4,0-4.9,0-7.3c0-0.5-0.7-0.5-0.7,0c0,2.4,0,4.9,0,7.3C130.7,67.6,131.4,67.6,131.4,67.1
			L131.4,67.1z"/>
	</g>
	<g>
		<path class="st4" d="M126.1,73c0-4.4,0-8.9,0-13.3c0-0.5-0.7-0.5-0.7,0c0,4.4,0,8.9,0,13.3C125.4,73.5,126.1,73.5,126.1,73
			L126.1,73z"/>
	</g>
	<g>
		<path class="st4" d="M123.4,67.1c0-2.4,0-4.9,0-7.3c0-0.5-0.7-0.5-0.7,0c0,2.4,0,4.9,0,7.3C122.7,67.6,123.4,67.6,123.4,67.1
			L123.4,67.1z"/>
	</g>
	<g>
		<path class="st4" d="M120.7,67.1c0-2.4,0-4.9,0-7.3c0-0.5-0.7-0.5-0.7,0c0,2.4,0,4.9,0,7.3C120,67.6,120.7,67.6,120.7,67.1
			L120.7,67.1z"/>
	</g>
	<g>
		<path class="st4" d="M117.9,67.1c0-2.4,0-4.9,0-7.3c0-0.5-0.7-0.5-0.7,0c0,2.4,0,4.9,0,7.3C117.2,67.6,117.9,67.6,117.9,67.1
			L117.9,67.1z"/>
	</g>
	<g>
		<path class="st4" d="M102.3,67.1c0-2.4,0-4.9,0-7.3c0-0.5-0.7-0.5-0.7,0c0,2.4,0,4.9,0,7.3C101.6,67.6,102.3,67.6,102.3,67.1
			L102.3,67.1z"/>
	</g>
	<g>
		<path class="st4" d="M112.9,70.3c0-3.5,0-7,0-10.5c0-0.5-0.7-0.5-0.7,0c0,3.5,0,7,0,10.5C112.2,70.8,112.9,70.8,112.9,70.3
			L112.9,70.3z"/>
	</g>
	<g>
		<path class="st4" d="M99.8,73c0-4.4,0-8.9,0-13.3c0-0.5-0.7-0.5-0.7,0c0,4.4,0,8.9,0,13.3C99.1,73.5,99.8,73.5,99.8,73L99.8,73z"
			/>
	</g>
	<g>
		<path class="st4" d="M115.6,67.1c0-2.4,0-4.9,0-7.3c0-0.5-0.7-0.5-0.7,0c0,2.4,0,4.9,0,7.3C114.9,67.6,115.6,67.6,115.6,67.1
			L115.6,67.1z"/>
	</g>
	<g>
		<path class="st4" d="M110.3,67.1c0-2.4,0-4.9,0-7.3c0-0.5-0.7-0.5-0.7,0c0,2.4,0,4.9,0,7.3C109.6,67.6,110.3,67.6,110.3,67.1
			L110.3,67.1z"/>
	</g>
	<g>
		<path class="st4" d="M107.7,67.1c0-2.4,0-4.9,0-7.3c0-0.5-0.7-0.5-0.7,0c0,2.4,0,4.9,0,7.3C107,67.6,107.7,67.6,107.7,67.1
			L107.7,67.1z"/>
	</g>
	<g>
		<path class="st4" d="M105.1,67.1c0-2.4,0-4.9,0-7.3c0-0.5-0.7-0.5-0.7,0c0,2.4,0,4.9,0,7.3C104.4,67.6,105.1,67.6,105.1,67.1
			L105.1,67.1z"/>
	</g>
	<g>
		<path class="st4" d="M99.8,73c0-4.4,0-8.9,0-13.3c0-0.5-0.7-0.5-0.7,0c0,4.4,0,8.9,0,13.3C99.1,73.5,99.8,73.5,99.8,73L99.8,73z"
			/>
	</g>
	<g>
		<path class="st4" d="M97,67.1c0-2.4,0-4.9,0-7.3c0-0.5-0.7-0.5-0.7,0c0,2.4,0,4.9,0,7.3C96.3,67.6,97,67.6,97,67.1L97,67.1z"/>
	</g>
	<g>
		<path class="st4" d="M94.3,67.1c0-2.4,0-4.9,0-7.3c0-0.5-0.7-0.5-0.7,0c0,2.4,0,4.9,0,7.3C93.6,67.6,94.3,67.6,94.3,67.1
			L94.3,67.1z"/>
	</g>
	<g>
		<path class="st4" d="M91.6,67.1c0-2.4,0-4.9,0-7.3c0-0.5-0.7-0.5-0.7,0c0,2.4,0,4.9,0,7.3C90.9,67.6,91.6,67.6,91.6,67.1
			L91.6,67.1z"/>
	</g>
	<g>
		<path class="st4" d="M87.6,112.2c0-17,0-34,0-51c0-2.4-0.7-2.4-0.7,0c0,17,0,34,0,51C86.9,114.6,87.6,114.6,87.6,112.2L87.6,112.2
			z"/>
	</g>
	<g>
		<path class="st4" d="M89.3,67.1c0-2.4,0-4.9,0-7.3c0-0.5-0.7-0.5-0.7,0c0,2.4,0,4.9,0,7.3C88.6,67.6,89.3,67.6,89.3,67.1
			L89.3,67.1z"/>
	</g>
</g>
<text transform="matrix(1 0 0 1 144.9063 43.9551)" class="st5 st6 st7">M</text>
<rect x="171.4" y="16.7" class="st8" width="86.8" height="35.5"/>
</svg>
